<svg width="74" height="74" viewBox="0 0 74 74" fill="none" xmlns="http://www.w3.org/2000/svg">
<path d="M59.0251 12.006C59.0251 11.399 58.5192 11.1109 58.0691 11.1235L54.4349 11.2246L54.2529 15.7211C54.2428 15.9791 54.2225 16.2295 54.1998 16.5886C54.1796 16.8947 54.1897 17.059 54.1695 17.5471L52.0048 14.9016C51.9288 14.803 51.7164 14.674 51.6836 14.5704C50.8972 14.0418 50.9123 14.0166 50.4873 13.6878C47.9885 11.7455 44.9639 10.6834 41.8026 10.4229L37.4147 10.3926C36.8103 10.4483 36.7696 10.4557 36.0415 10.5948L35.5306 10.6681C31.985 11.3257 28.7806 12.8178 26.2162 15.3974C23.9605 17.6685 22.3014 20.3291 21.4011 23.3056L21.4035 18.3614L21.4112 17.8631L21.3707 12.0489C21.3707 11.7152 21.1633 11.0803 20.8093 11.0778L17.3293 11.0524C16.9147 11.0499 16.5427 11.3686 16.5427 11.8768L16.5504 62.7584C16.5504 63.3655 17.0563 63.6538 17.5064 63.641L21.1406 63.5399L21.3226 59.0434C21.3327 58.7854 21.353 58.535 21.3757 58.1759C21.3959 57.8697 21.3858 57.7055 21.406 57.2173L23.5708 59.8626C23.6467 59.9612 23.8591 60.0902 23.8919 60.1938C24.6783 60.7224 24.6632 60.7476 25.0882 61.0764C27.587 63.0187 30.6116 64.0808 33.7729 64.3413L38.1608 64.3716C38.7652 64.3134 38.8059 64.3085 39.534 64.1694L40.0449 64.0961C43.5905 63.4385 46.7949 61.9464 49.3593 59.3668C51.615 57.0957 53.2741 54.4352 54.1744 51.4584L54.172 56.4026L54.1643 56.9008L54.2048 62.715C54.2048 63.0488 54.4122 63.6837 54.7662 63.6861L58.2462 63.7115C58.6608 63.714 59.0328 63.3929 59.0328 62.8869L59.0251 12.0055V12.006ZM48.7369 49.9466C48.5092 52.119 45.4313 56.4208 42.9733 57.463L40.3811 58.6517C36.8784 60.2577 31.8659 59.7595 28.0774 58.0042C27.0961 57.5488 25.9605 56.6258 25.0046 55.6976C24.0461 54.7721 23.2646 53.8464 22.9891 53.3861C22.7716 53.022 22.812 53.08 22.6781 52.8296C20.8572 49.4559 20.5967 44.9037 21.0821 41.1026C21.1177 40.8369 21.1125 40.7131 21.2467 40.258C21.2795 40.0153 21.2871 39.9975 21.3175 39.8912C21.5375 39.1376 21.7449 38.4901 21.9598 37.9085C22.8349 40.1315 24.0994 42.218 25.6294 43.8063C26.2466 44.4461 26.9447 45.0658 27.6526 45.6652C31.3474 48.7885 37.1238 50.0758 41.9568 49.4917C43.3073 49.3299 45.8615 48.8215 46.6558 48.4523C47.5788 48.0198 48.4868 47.5872 49.3163 47.0662C49.1595 48.1587 48.9345 49.1932 48.7372 49.9468L48.7369 49.9466ZM47.1385 43.8339C47.1385 43.8339 47.1361 43.8339 47.1333 43.8364C47.1282 43.8389 47.1232 43.8416 47.1156 43.844C47.1079 43.8492 47.1005 43.8541 47.0929 43.8541C46.9765 43.9173 46.8983 43.9476 46.8753 43.9427C43.1526 45.4829 38.9721 45.5966 35.1103 44.4511L34.1922 44.0971C33.2944 43.7404 32.2828 43.1539 31.4508 42.6302C30.0675 41.7577 28.9269 40.478 28.0998 39.0794C27.7633 38.5128 27.6294 38.0451 27.4676 37.5545C27.2224 36.816 27.015 36.1179 26.805 35.4073C26.6077 34.7447 26.3726 34.0847 26.2967 33.2702L26.2005 32.2534C26.6987 31.9448 27.9076 31.2038 28.4437 30.9283C28.4538 30.9231 28.4663 30.9182 28.4816 30.9106C28.5981 30.8474 28.6763 30.8171 28.6992 30.822C32.4219 29.2818 36.6024 29.1681 40.4642 30.3136L41.3823 30.6676C42.2802 31.0243 43.2918 31.6108 44.1238 32.1345C45.5071 33.007 46.6477 34.2867 47.4747 35.6828C47.8112 36.2494 47.9451 36.7198 48.1069 37.2104C48.3521 37.9489 48.5596 38.647 48.7719 39.3577C48.9666 40.0202 49.2019 40.6803 49.2779 41.4948L49.3741 42.5115C48.8783 42.8176 47.677 43.5535 47.1383 43.8342L47.1385 43.8339ZM54.4931 33.6621C54.4576 33.9275 54.4628 34.0516 54.3288 34.5067C54.296 34.7494 54.2884 34.7672 54.2581 34.8735C54.038 35.6271 53.8306 36.2746 53.6157 36.8562C52.7406 34.6333 51.4762 32.5467 49.9461 30.9584C49.3289 30.3186 48.6308 29.6989 47.9229 29.0995C44.2281 25.9762 38.4517 24.6889 33.6187 25.273C32.2682 25.4348 29.714 25.9432 28.9197 26.3124C27.9967 26.7449 27.0887 27.1775 26.2592 27.6985C26.4161 26.606 26.641 25.5715 26.8383 24.8179C27.066 22.6455 30.1439 18.3436 32.602 17.3017L35.1942 16.113C38.6968 14.507 43.7094 15.0052 47.4979 16.7605C48.4792 17.2159 49.6121 18.1389 50.5706 19.0671C51.5292 19.9926 52.3106 20.9183 52.5862 21.3786C52.8037 21.7427 52.7633 21.6847 52.8972 21.9351C54.7181 25.3088 54.981 29.861 54.4931 33.6621Z" fill="white"/>
<path d="M49.3743 42.5115C48.8785 42.8176 47.6772 43.5534 47.1385 43.8341C47.1385 43.8341 47.136 43.8341 47.1333 43.8366C47.1281 43.8391 47.1232 43.8418 47.1156 43.8443C47.1079 43.8494 47.1005 43.8544 47.0929 43.8544C46.9764 43.9175 46.8982 43.9479 46.8753 43.9429C43.1526 45.4831 38.9721 45.5968 35.1103 44.4513L34.1922 44.0973C33.2943 43.7407 32.2827 43.1541 31.4507 42.6304C30.0674 41.758 28.9268 40.4782 28.0998 39.0796C27.7633 38.5131 27.6294 38.0454 27.4676 37.5548C27.2224 36.8162 27.0149 36.1182 26.805 35.4075C26.6077 34.745 26.3726 34.0849 26.2966 33.2704L26.2004 32.2536C26.6987 31.9451 27.9076 31.2041 28.4436 30.9285C28.4537 30.9234 28.4663 30.9184 28.4816 30.9108C28.598 30.8476 28.6762 30.8173 28.6992 30.8222C32.4219 29.282 36.6024 29.1683 40.4642 30.3139L41.3823 30.6678C42.2801 31.0245 43.2917 31.6111 44.1237 32.1347C45.507 33.0072 46.6476 34.2869 47.4747 35.683C47.8112 36.2496 47.9451 36.72 48.1069 37.2107C48.3521 37.9492 48.5595 38.6472 48.7719 39.3579C48.9665 40.0204 49.2019 40.6805 49.2778 41.495L49.374 42.5118L49.3743 42.5115Z" fill="#C69372"/>
<path d="M49.3161 47.0662C49.1592 48.1587 48.9343 49.1932 48.7369 49.9468C48.5093 52.1192 45.4313 56.421 42.9733 57.4632L40.3811 58.6519C36.8784 60.2579 31.8659 59.7597 28.0774 58.0044C27.0961 57.549 25.9605 56.626 25.0046 55.6978C24.0461 54.7723 23.2646 53.8466 22.9891 53.3863C22.7716 53.0222 22.812 53.0802 22.6781 52.8298C20.8572 49.4561 20.5967 44.9039 21.0821 41.1028C21.1177 40.8371 21.1125 40.7133 21.2467 40.2582C21.2795 40.0155 21.2871 39.9977 21.3175 39.8914C21.5375 39.1378 21.7449 38.4903 21.9598 37.9087C22.835 40.1317 24.0994 42.2182 25.6294 43.8065C26.2466 44.4463 26.9447 45.066 27.6526 45.6654C31.3474 48.7887 37.1239 50.076 41.9568 49.4919C43.3073 49.3301 45.8615 48.8217 46.6558 48.4525C47.5788 48.0201 48.4868 47.5874 49.3163 47.0664L49.3161 47.0662Z" fill="#849367"/>
<path d="M54.4932 33.6621C54.4577 33.9275 54.4629 34.0516 54.329 34.5067C54.2961 34.7494 54.2885 34.7672 54.2582 34.8735C54.0381 35.627 53.8307 36.2745 53.6158 36.8562C52.7407 34.6332 51.4763 32.5467 49.9462 30.9584C49.329 30.3185 48.631 29.6989 47.923 29.0995C44.2282 25.9762 38.4518 24.6889 33.6188 25.273C32.2683 25.4348 29.7141 25.9432 28.9198 26.3124C27.9968 26.7448 27.0888 27.1775 26.2593 27.6984C26.4162 26.6059 26.6411 25.5714 26.8385 24.8179C27.0661 22.6455 30.144 18.3436 32.6021 17.3017L35.1943 16.113C38.6969 14.5069 43.7095 15.0052 47.498 16.7605C48.4793 17.2158 49.6122 18.1389 50.5707 19.0671C51.5293 19.9926 52.3107 20.9183 52.5863 21.3786C52.8038 21.7427 52.7634 21.6847 52.8973 21.9351C54.7182 25.3087 54.9811 29.861 54.4932 33.6621Z" fill="#73829D"/>
<path d="M68.481 68.6108L68.4709 3.69303C68.4709 2.91924 67.8031 2.54998 67.2089 2.56749L66.1796 2.59536L10.6776 2.58525L8.51013 2.5702C7.96376 2.56774 7.47314 2.97227 7.47314 3.6173L7.48079 68.2289C7.48079 68.2896 7.48597 68.3454 7.49337 68.4009L7.48079 70.3683C7.47832 70.9146 7.84758 71.4077 8.43934 71.4077L67.4568 71.3976C68.1623 71.3976 68.4963 70.7274 68.481 70.1332L68.4506 68.8737C68.4709 68.7928 68.481 68.7043 68.481 68.6108ZM62.7679 52.6171C62.74 53.1332 62.7299 53.6514 62.6971 54.1674C62.7805 54.5493 62.8641 54.9338 62.9172 55.3206C63.2132 57.4881 62.6288 59.6706 62.5531 61.838C62.5077 63.1101 62.3913 64.3748 62.2825 65.6416C61.9764 65.6695 61.6705 65.6922 61.3644 65.71C59.412 65.8187 57.4569 65.6189 55.5073 65.5659C53.2868 65.5052 51.0663 65.5129 48.8458 65.5533C47.5005 65.6974 46.1423 65.7253 44.8197 65.6572C44.3873 65.6698 43.9522 65.6851 43.5198 65.7001C41.5497 65.7684 39.5593 65.9505 37.5916 65.8696C36.6888 65.8343 35.7962 65.7179 34.9032 65.5763C34.7286 65.7408 34.5061 65.8444 34.2278 65.8291C33.3376 65.7887 32.5739 65.9177 31.7898 65.6495C31.7518 65.6596 31.7138 65.6747 31.6734 65.6823C31.2459 65.7632 30.8843 65.7734 30.4899 65.6747C30.0348 65.8264 29.5769 65.9857 29.0937 65.9783C28.0972 65.9658 27.0503 65.8113 26.0664 65.6318C25.9628 65.6115 25.8589 65.5913 25.7553 65.5711C24.8501 65.8163 23.9041 65.7507 22.9784 65.6924C22.508 65.6646 22.0376 65.6545 21.5697 65.6217C21.2206 65.7077 20.8716 65.7887 20.5201 65.8417C18.55 66.1377 16.5648 65.5533 14.5947 65.4776C14.2582 65.465 13.922 65.4448 13.5855 65.4194C13.3909 64.1372 13.2365 62.8499 13.1682 61.5576C13.0594 59.4232 13.2617 57.2809 13.3122 55.144C13.3729 52.7161 13.3653 50.2832 13.3248 47.8552C13.1808 46.3809 13.1529 44.8938 13.2212 43.4471C13.2086 42.9715 13.1933 42.4962 13.1783 42.0206C13.11 39.866 12.9279 37.6884 13.0088 35.531C13.0468 34.5446 13.1605 33.5661 13.3021 32.5898C13.1378 32.4001 13.0367 32.1522 13.0493 31.8513C13.0897 30.875 12.9607 30.038 13.2289 29.1806C13.2188 29.1402 13.2035 29.0997 13.1961 29.0541C13.1176 28.5861 13.105 28.189 13.2037 27.7566C13.052 27.2608 12.8927 26.7576 12.9003 26.229C12.9129 25.139 13.0698 23.9935 13.2493 22.916C13.2671 22.8023 13.2873 22.6883 13.3076 22.5771C13.0624 21.5833 13.128 20.5487 13.1862 19.5347C13.2141 19.0214 13.2242 18.5054 13.257 17.992C13.1709 17.6102 13.09 17.2308 13.037 16.8438C12.741 14.6865 13.3253 12.5141 13.401 10.3567C13.4213 9.76991 13.4593 9.1858 13.5046 8.60145C13.9726 8.56346 14.443 8.53312 14.9134 8.51536C16.8608 8.43692 18.8233 7.85282 20.7705 8.14857C21.1195 8.2016 21.4633 8.28522 21.8074 8.37106C22.2702 8.33826 22.7356 8.32543 23.1984 8.2978C24.1165 8.24206 25.0496 8.17398 25.9475 8.42163C26.0486 8.39894 26.1498 8.37871 26.2536 8.36095C27.2247 8.18138 28.2593 8.0245 29.2454 8.01192C29.721 8.00674 30.1761 8.16608 30.6238 8.31532C31.0158 8.21912 31.3749 8.22923 31.7972 8.30767C31.8352 8.31532 31.8732 8.33036 31.9084 8.34294C32.6849 8.07482 33.441 8.20136 34.3211 8.1609C34.5941 8.14832 34.8169 8.24946 34.9888 8.41374C35.8714 8.27215 36.754 8.15819 37.6442 8.12045C39.5916 8.03954 41.559 8.22405 43.504 8.29238C43.9339 8.30767 44.3639 8.32025 44.7913 8.3353C46.0989 8.2645 47.4418 8.29238 48.7721 8.4389C50.9674 8.47935 53.16 8.48428 55.3551 8.42632C57.2848 8.37328 59.2169 8.17077 61.1466 8.27955C61.6397 8.30742 62.1303 8.35281 62.6184 8.40856C62.6944 9.06864 62.7499 9.73118 62.7854 10.394C62.8942 12.5412 62.6919 14.6909 62.6414 16.8379C62.5807 19.2784 62.5856 21.7214 62.6261 24.1619C62.7729 25.6439 62.8007 27.1387 62.7297 28.5903C62.7447 29.0684 62.76 29.5464 62.7753 30.0217C62.8436 32.1892 63.0257 34.3766 62.9448 36.5441C62.9068 37.5355 62.7931 38.5167 62.6515 39.4979C62.8158 39.6901 62.9169 39.938 62.9043 40.2414C62.8639 41.2226 62.9929 42.0623 62.7223 42.9246C62.7349 42.9651 62.7502 43.0055 62.7576 43.0512C62.836 43.5216 62.8461 43.9212 62.7499 44.3536C62.9016 44.8543 63.061 45.3602 63.0533 45.8913C63.0407 46.9862 62.8839 48.1369 62.7043 49.2196C62.6865 49.3333 62.6663 49.4472 62.6436 49.5609C62.8915 50.5575 62.8256 51.5969 62.7674 52.6159L62.7679 52.6171Z" fill="white"/>
<path d="M48.7722 8.44014C47.4444 8.41473 46.1193 8.37946 44.7915 8.33654C46.0991 8.26574 47.4419 8.29362 48.7722 8.44014Z" fill="white"/>
</svg>
