<svg width="134" height="40" viewBox="0 0 134 40" fill="none" xmlns="http://www.w3.org/2000/svg">
<path d="M60.22 24C60.0733 24 59.96 23.96 59.88 23.88C59.8133 23.7867 59.78 23.68 59.78 23.56V16.38C59.78 16.26 59.8133 16.1533 59.88 16.06C59.9467 15.9667 60.06 15.92 60.22 15.92H62.7C63.26 15.92 63.7 16.0867 64.02 16.42C64.34 16.74 64.5 17.2 64.5 17.8V18.54C64.5 19.1267 64.3267 19.5733 63.98 19.88C64.1533 20.04 64.2933 20.24 64.4 20.48C64.52 20.72 64.58 20.9867 64.58 21.28V22.12C64.58 22.72 64.4133 23.1867 64.08 23.52C63.7467 23.84 63.3133 24 62.78 24H60.22ZM63.5 17.8C63.5 17.2267 63.2333 16.94 62.7 16.94H60.8V19.4H62.7C62.9533 19.4 63.1467 19.3333 63.28 19.2C63.4267 19.0667 63.5 18.84 63.5 18.52V17.8ZM63.54 21.28C63.54 20.9867 63.48 20.7733 63.36 20.64C63.24 20.4933 63.02 20.42 62.7 20.42H60.8V22.98H62.78C63.2867 22.98 63.54 22.6933 63.54 22.12V21.28ZM73.9881 24C73.8148 24 73.7015 23.94 73.6481 23.82C73.4215 23.94 73.1415 24 72.8081 24H72.1081C71.6148 24 71.2148 23.8467 70.9081 23.54C70.6148 23.22 70.4681 22.8 70.4681 22.28V18.52C70.4681 18.4133 70.5015 18.32 70.5681 18.24C70.6481 18.16 70.7481 18.12 70.8681 18.12H71.0281C71.1481 18.12 71.2415 18.1667 71.3081 18.26C71.3748 18.3533 71.4081 18.44 71.4081 18.52V22.26C71.4081 22.8067 71.6415 23.08 72.1081 23.08H72.8081C73.3281 23.08 73.5881 22.8267 73.5881 22.32V18.52C73.5881 18.4133 73.6215 18.32 73.6881 18.24C73.7548 18.16 73.8548 18.12 73.9881 18.12H74.1081C74.2415 18.12 74.3348 18.1667 74.3881 18.26C74.4548 18.3533 74.4881 18.44 74.4881 18.52V23.58C74.4881 23.6733 74.4548 23.7667 74.3881 23.86C74.3348 23.9533 74.2415 24 74.1081 24H73.9881ZM81.5063 19.04C81.3063 19.04 81.1396 19.12 81.0063 19.28C80.8863 19.4267 80.8263 19.6467 80.8263 19.94V23.58C80.8263 23.6867 80.7929 23.7867 80.7263 23.88C80.6729 23.96 80.5863 24 80.4663 24H80.3463C80.2129 24 80.1196 23.9533 80.0663 23.86C80.0263 23.7533 80.0063 23.66 80.0063 23.58V18.52C80.0063 18.44 80.0263 18.3533 80.0663 18.26C80.1196 18.1667 80.2129 18.12 80.3463 18.12H80.4663C80.6263 18.12 80.7329 18.1867 80.7863 18.32C80.8796 18.2667 80.9863 18.22 81.1063 18.18C81.2263 18.14 81.3663 18.12 81.5263 18.12H81.8663C81.9729 18.12 82.0596 18.1667 82.1263 18.26C82.1929 18.34 82.2263 18.4267 82.2263 18.52V18.64C82.2263 18.7733 82.1863 18.8733 82.1063 18.94C82.0396 19.0067 81.9596 19.04 81.8663 19.04H81.5063ZM88.5741 21.56V22.26C88.5741 22.8067 88.8141 23.08 89.2941 23.08H91.3141C91.5807 23.08 91.7141 23.2133 91.7141 23.48V23.6C91.7141 23.7333 91.6674 23.8333 91.5741 23.9C91.4941 23.9667 91.4074 24 91.3141 24H89.2941C88.7874 24 88.3874 23.8467 88.0941 23.54C87.8141 23.22 87.6741 22.8 87.6741 22.28V19.84C87.6741 19.32 87.8141 18.9067 88.0941 18.6C88.3874 18.28 88.7874 18.12 89.2941 18.12H90.1541C90.6741 18.12 91.0741 18.28 91.3541 18.6C91.6341 18.9067 91.7741 19.32 91.7741 19.84V21.14C91.7741 21.2333 91.7407 21.3267 91.6741 21.42C91.6207 21.5133 91.5274 21.56 91.3941 21.56H88.5741ZM89.2941 19.04C88.8141 19.04 88.5741 19.3067 88.5741 19.84V20.64H90.8741V19.84C90.8741 19.3067 90.6341 19.04 90.1541 19.04H89.2941ZM100.891 24C100.718 24 100.605 23.94 100.551 23.82C100.285 23.94 100.011 24 99.7313 24H99.0113C98.5046 24 98.1046 23.8467 97.8113 23.54C97.5313 23.22 97.3913 22.8 97.3913 22.28V19.84C97.3913 19.32 97.5313 18.9067 97.8113 18.6C98.1046 18.28 98.5046 18.12 99.0113 18.12H101.011C101.145 18.12 101.245 18.16 101.311 18.24C101.378 18.32 101.411 18.4133 101.411 18.52V23.58C101.411 23.7 101.378 23.8 101.311 23.88C101.245 23.96 101.145 24 101.011 24H100.891ZM100.531 19.66C100.531 19.54 100.525 19.4733 100.511 19.46V19.34C100.525 19.2867 100.511 19.2267 100.471 19.16C100.445 19.0933 100.351 19.0533 100.191 19.04C100.178 19.0267 100.145 19.02 100.091 19.02C100.051 19.02 100.025 19.0267 100.011 19.04C99.9579 19.04 99.8579 19.0467 99.7113 19.06C99.5779 19.06 99.3446 19.0533 99.0113 19.04C98.5313 19.04 98.2913 19.3067 98.2913 19.84V22.26C98.2913 22.8067 98.5313 23.08 99.0113 23.08H99.7113C100.245 23.08 100.511 22.8267 100.511 22.32C100.511 21.4667 100.511 20.8467 100.511 20.46C100.525 20.0733 100.531 19.8067 100.531 19.66ZM110.689 24C110.516 24 110.402 23.94 110.349 23.82C110.122 23.94 109.842 24 109.509 24H108.809C108.316 24 107.916 23.8467 107.609 23.54C107.316 23.22 107.169 22.8 107.169 22.28V18.52C107.169 18.4133 107.202 18.32 107.269 18.24C107.349 18.16 107.449 18.12 107.569 18.12H107.729C107.849 18.12 107.942 18.1667 108.009 18.26C108.076 18.3533 108.109 18.44 108.109 18.52V22.26C108.109 22.8067 108.342 23.08 108.809 23.08H109.509C110.029 23.08 110.289 22.8267 110.289 22.32V18.52C110.289 18.4133 110.322 18.32 110.389 18.24C110.456 18.16 110.556 18.12 110.689 18.12H110.809C110.942 18.12 111.036 18.1667 111.089 18.26C111.156 18.3533 111.189 18.44 111.189 18.52V23.58C111.189 23.6733 111.156 23.7667 111.089 23.86C111.036 23.9533 110.942 24 110.809 24H110.689Z" fill="#FFFCF7"/>
<rect x="0.5" y="0.5" width="133" height="39" rx="0.5" stroke="#FFFCF7"/>
<path d="M40 39C40 39.5523 39.5523 40 39 40H0.999999C0.447714 40 0 39.5523 0 39V0.999999C0 0.447714 0.447715 0 1 0H39C39.5523 0 40 0.447715 40 1V39ZM10.4395 5C10.2069 4.99839 10 5.17837 10 5.46289L10.0039 33.9707C10.0041 34.311 10.2869 34.4717 10.5391 34.4648L11.6419 34.4347C12.1678 34.4203 12.5926 34.001 12.6138 33.4753L12.6777 31.8887C12.6834 31.7445 12.6945 31.6043 12.707 31.4033C12.7187 31.2161 12.9452 31.1369 13.0641 31.282L13.9365 32.3477C14.04 32.4805 14.1931 32.5837 14.3313 32.68C14.5632 32.8418 14.5962 32.8806 14.7861 33.0283C16.186 34.1168 17.8814 34.7113 19.6523 34.8574L22.1113 34.875C22.4494 34.8431 22.4726 34.8399 22.8809 34.7617L23.168 34.7207C25.1546 34.3518 26.949 33.5157 28.3857 32.0703C30.1843 30.2608 31.3054 28.0081 31.4912 25.4336L31.5068 22.5332C31.3318 20.3001 30.2696 17.7656 28.7148 16.1533C28.369 15.7947 27.9781 15.4479 27.5811 15.1123C25.5107 13.3625 22.2749 12.6416 19.5674 12.9678C18.8104 13.059 17.3782 13.3429 16.9336 13.5508C16.0722 13.9537 15.2366 14.3559 14.585 14.9932L13.4055 16.146C13.3845 16.1665 13.3653 16.1886 13.3479 16.2121C13.099 16.549 12.7267 16.4609 12.7238 16.0421C12.7237 16.0382 12.7237 16.0342 12.7236 16.0303L12.7129 15.3389L12.7109 14.5713L12.7217 13.7744L12.7227 9.0957L12.7266 8.81641L12.7051 5.55762C12.7037 5.3706 12.5884 5.01603 12.3896 5.01465L10.4395 5ZM16.5112 16.2199C16.6997 16.1145 16.9169 16.0309 17.1193 15.9557C18.9947 15.2592 21.0543 15.1882 22.9951 15.6797L23.917 15.9902C24.4197 16.1899 24.9862 16.5191 25.4521 16.8125C26.2271 17.3007 26.8669 18.0185 27.3301 18.8008C27.5179 19.1182 27.5938 19.3812 27.6846 19.6562C27.8212 20.0705 27.9376 20.4622 28.0557 20.8604C28.1656 21.2305 28.2969 21.6001 28.3398 22.0566L28.4531 23.2617C28.5544 24.3404 28.2816 25.834 28.0553 26.718C28.0427 26.7674 28.0341 26.8167 28.0265 26.8671C27.8392 28.1062 26.157 30.4309 24.8076 31.0039L23.3545 31.6699C21.3924 32.5696 18.5844 32.2894 16.4619 31.3066C15.3622 30.7973 13.92 29.2341 13.6104 28.7197C13.4886 28.5156 13.5118 28.5476 13.4365 28.4082C12.4157 26.5173 12.2696 23.967 12.543 21.8369C12.5602 21.7034 12.5589 21.6333 12.6136 21.4341C12.6265 21.3869 12.6369 21.3389 12.6446 21.2905C12.6556 21.2211 12.6614 21.2051 12.6748 21.1592C13.2644 19.1439 13.6809 18.4368 15.2184 17.0182C15.2636 16.9766 15.3126 16.9392 15.3648 16.9068C15.5728 16.7779 16.1514 16.4212 16.5112 16.2199Z" fill="#FFFCF7"/>
</svg>
