<svg width="117" height="45" viewBox="0 0 117 45" fill="none" xmlns="http://www.w3.org/2000/svg">
<path d="M1.22 42C1.07333 42 0.96 41.96 0.88 41.88C0.813333 41.7867 0.78 41.68 0.78 41.56V34.38C0.78 34.26 0.813333 34.1533 0.88 34.06C0.946667 33.9667 1.06 33.92 1.22 33.92H3.7C4.26 33.92 4.7 34.0867 5.02 34.42C5.34 34.74 5.5 35.2 5.5 35.8V36.54C5.5 37.1267 5.32667 37.5733 4.98 37.88C5.15333 38.04 5.29333 38.24 5.4 38.48C5.52 38.72 5.58 38.9867 5.58 39.28V40.12C5.58 40.72 5.41333 41.1867 5.08 41.52C4.74667 41.84 4.31333 42 3.78 42H1.22ZM4.5 35.8C4.5 35.2267 4.23333 34.94 3.7 34.94H1.8V37.4H3.7C3.95333 37.4 4.14667 37.3333 4.28 37.2C4.42667 37.0667 4.5 36.84 4.5 36.52V35.8ZM4.54 39.28C4.54 38.9867 4.48 38.7733 4.36 38.64C4.24 38.4933 4.02 38.42 3.7 38.42H1.8V40.98H3.78C4.28667 40.98 4.54 40.6933 4.54 40.12V39.28ZM14.9881 42C14.8148 42 14.7015 41.94 14.6481 41.82C14.4215 41.94 14.1415 42 13.8081 42H13.1081C12.6148 42 12.2148 41.8467 11.9081 41.54C11.6148 41.22 11.4681 40.8 11.4681 40.28V36.52C11.4681 36.4133 11.5015 36.32 11.5681 36.24C11.6481 36.16 11.7481 36.12 11.8681 36.12H12.0281C12.1481 36.12 12.2415 36.1667 12.3081 36.26C12.3748 36.3533 12.4081 36.44 12.4081 36.52V40.26C12.4081 40.8067 12.6415 41.08 13.1081 41.08H13.8081C14.3281 41.08 14.5881 40.8267 14.5881 40.32V36.52C14.5881 36.4133 14.6215 36.32 14.6881 36.24C14.7548 36.16 14.8548 36.12 14.9881 36.12H15.1081C15.2415 36.12 15.3348 36.1667 15.3881 36.26C15.4548 36.3533 15.4881 36.44 15.4881 36.52V41.58C15.4881 41.6733 15.4548 41.7667 15.3881 41.86C15.3348 41.9533 15.2415 42 15.1081 42H14.9881ZM22.5063 37.04C22.3063 37.04 22.1396 37.12 22.0063 37.28C21.8863 37.4267 21.8263 37.6467 21.8263 37.94V41.58C21.8263 41.6867 21.7929 41.7867 21.7263 41.88C21.6729 41.96 21.5863 42 21.4663 42H21.3463C21.2129 42 21.1196 41.9533 21.0663 41.86C21.0263 41.7533 21.0063 41.66 21.0063 41.58V36.52C21.0063 36.44 21.0263 36.3533 21.0663 36.26C21.1196 36.1667 21.2129 36.12 21.3463 36.12H21.4663C21.6263 36.12 21.7329 36.1867 21.7863 36.32C21.8796 36.2667 21.9863 36.22 22.1063 36.18C22.2263 36.14 22.3663 36.12 22.5263 36.12H22.8663C22.9729 36.12 23.0596 36.1667 23.1263 36.26C23.1929 36.34 23.2263 36.4267 23.2263 36.52V36.64C23.2263 36.7733 23.1863 36.8733 23.1063 36.94C23.0396 37.0067 22.9596 37.04 22.8663 37.04H22.5063ZM29.5741 39.56V40.26C29.5741 40.8067 29.8141 41.08 30.2941 41.08H32.3141C32.5807 41.08 32.7141 41.2133 32.7141 41.48V41.6C32.7141 41.7333 32.6674 41.8333 32.5741 41.9C32.4941 41.9667 32.4074 42 32.3141 42H30.2941C29.7874 42 29.3874 41.8467 29.0941 41.54C28.8141 41.22 28.6741 40.8 28.6741 40.28V37.84C28.6741 37.32 28.8141 36.9067 29.0941 36.6C29.3874 36.28 29.7874 36.12 30.2941 36.12H31.1541C31.6741 36.12 32.0741 36.28 32.3541 36.6C32.6341 36.9067 32.7741 37.32 32.7741 37.84V39.14C32.7741 39.2333 32.7407 39.3267 32.6741 39.42C32.6207 39.5133 32.5274 39.56 32.3941 39.56H29.5741ZM30.2941 37.04C29.8141 37.04 29.5741 37.3067 29.5741 37.84V38.64H31.8741V37.84C31.8741 37.3067 31.6341 37.04 31.1541 37.04H30.2941ZM41.8913 42C41.7179 42 41.6046 41.94 41.5513 41.82C41.2846 41.94 41.0113 42 40.7313 42H40.0113C39.5046 42 39.1046 41.8467 38.8113 41.54C38.5313 41.22 38.3913 40.8 38.3913 40.28V37.84C38.3913 37.32 38.5313 36.9067 38.8113 36.6C39.1046 36.28 39.5046 36.12 40.0113 36.12H42.0113C42.1446 36.12 42.2446 36.16 42.3113 36.24C42.3779 36.32 42.4113 36.4133 42.4113 36.52V41.58C42.4113 41.7 42.3779 41.8 42.3113 41.88C42.2446 41.96 42.1446 42 42.0113 42H41.8913ZM41.5313 37.66C41.5313 37.54 41.5246 37.4733 41.5113 37.46V37.34C41.5246 37.2867 41.5113 37.2267 41.4713 37.16C41.4446 37.0933 41.3513 37.0533 41.1913 37.04C41.1779 37.0267 41.1446 37.02 41.0913 37.02C41.0513 37.02 41.0246 37.0267 41.0113 37.04C40.9579 37.04 40.8579 37.0467 40.7113 37.06C40.5779 37.06 40.3446 37.0533 40.0113 37.04C39.5313 37.04 39.2913 37.3067 39.2913 37.84V40.26C39.2913 40.8067 39.5313 41.08 40.0113 41.08H40.7113C41.2446 41.08 41.5113 40.8267 41.5113 40.32C41.5113 39.4667 41.5113 38.8467 41.5113 38.46C41.5246 38.0733 41.5313 37.8067 41.5313 37.66ZM51.6889 42C51.5156 42 51.4022 41.94 51.3489 41.82C51.1222 41.94 50.8422 42 50.5089 42H49.8089C49.3156 42 48.9156 41.8467 48.6089 41.54C48.3156 41.22 48.1689 40.8 48.1689 40.28V36.52C48.1689 36.4133 48.2022 36.32 48.2689 36.24C48.3489 36.16 48.4489 36.12 48.5689 36.12H48.7289C48.8489 36.12 48.9422 36.1667 49.0089 36.26C49.0756 36.3533 49.1089 36.44 49.1089 36.52V40.26C49.1089 40.8067 49.3422 41.08 49.8089 41.08H50.5089C51.0289 41.08 51.2889 40.8267 51.2889 40.32V36.52C51.2889 36.4133 51.3222 36.32 51.3889 36.24C51.4556 36.16 51.5556 36.12 51.6889 36.12H51.8089C51.9422 36.12 52.0356 36.1667 52.0889 36.26C52.1556 36.3533 52.1889 36.44 52.1889 36.52V41.58C52.1889 41.6733 52.1556 41.7667 52.0889 41.86C52.0356 41.9533 51.9422 42 51.8089 42H51.6889Z" fill="#FFFCF7"/>
<path d="M23 0C24.6569 0 26 1.34315 26 3V13.5469C26.9266 13.1952 27.9389 13 29 13C33.4183 13 37 16.3579 37 20.5C37 24.6421 33.4183 28 29 28C27.6075 28 26.2986 27.6656 25.1582 27.0791C24.6125 27.6454 23.8486 28 23 28C21.3431 28 20 26.6569 20 25V3C20 1.34315 21.3431 0 23 0ZM29 16C26.7909 16 25 17.7909 25 20C25 22.2091 26.7909 24 29 24C31.2091 24 33 22.2091 33 20C33 17.7909 31.2091 16 29 16Z" fill="#FFFCF7"/>
</svg>
