<svg width="44" height="44" viewBox="0 0 44 44" fill="none" xmlns="http://www.w3.org/2000/svg">
<rect x="0.5" y="0.5" width="43" height="43" rx="7.5" stroke="#EFEEEE"/>
<path d="M21.9775 11C26.3624 11 28.5555 11.0002 30.1348 12.0449C30.84 12.5115 31.4445 13.1161 31.9111 13.8213C32.9559 15.4005 32.9561 17.5936 32.9561 21.9785C32.9561 26.363 32.9558 28.5556 31.9111 30.1348C31.4445 30.84 30.84 31.4445 30.1348 31.9111C28.5555 32.9559 26.3625 32.9561 21.9775 32.9561C17.5929 32.9561 15.4005 32.9558 13.8213 31.9111C13.1161 31.4445 12.5115 30.84 12.0449 30.1348C11.0002 28.5556 11 26.3631 11 21.9785C11 17.5935 11.0001 15.4005 12.0449 13.8213C12.5115 13.1161 13.1161 12.5115 13.8213 12.0449C15.4005 11.0003 17.593 11 21.9775 11ZM21.9775 16.2949C18.8388 16.295 16.294 18.8398 16.2939 21.9785C16.2939 25.1173 18.8388 27.6621 21.9775 27.6621C25.1164 27.6621 27.6611 25.1173 27.6611 21.9785C27.661 18.8398 25.1163 16.2949 21.9775 16.2949ZM21.9775 18.2178C24.0544 18.2178 25.7382 19.9017 25.7383 21.9785C25.7383 24.0554 24.0544 25.7393 21.9775 25.7393C19.9007 25.7392 18.2168 24.0554 18.2168 21.9785C18.2169 19.9018 19.9008 18.2178 21.9775 18.2178ZM27.8857 14.6748C27.1482 14.6748 26.5498 15.2723 26.5498 16.0098C26.5498 16.7473 27.1482 17.3457 27.8857 17.3457C28.6232 17.3456 29.2207 16.7472 29.2207 16.0098C29.2207 15.2723 28.6232 14.6749 27.8857 14.6748Z" fill="#EFEEEE"/>
</svg>
