<svg width="134" height="40" viewBox="0 0 134 40" fill="none" xmlns="http://www.w3.org/2000/svg">
<path d="M54.2 24C53.9733 24 53.82 23.9067 53.74 23.72L51.58 20.34L50.72 21.46V23.56C50.72 23.6533 50.68 23.7533 50.6 23.86C50.5333 23.9533 50.4267 24 50.28 24H50.14C50.0067 24 49.8933 23.96 49.8 23.88C49.72 23.7867 49.68 23.68 49.68 23.56V16.38C49.68 16.26 49.7133 16.1533 49.78 16.06C49.86 15.9667 49.98 15.92 50.14 15.92H50.28C50.4533 15.92 50.5667 15.9733 50.62 16.08C50.6867 16.1867 50.72 16.2867 50.72 16.38V19.8L53.36 16.18C53.4133 16.1133 53.4733 16.0533 53.54 16C53.62 15.9467 53.7067 15.92 53.8 15.92H54.02C54.1533 15.92 54.2467 15.9467 54.3 16C54.3533 16.04 54.3867 16.1 54.4 16.18C54.4133 16.2467 54.4067 16.32 54.38 16.4C54.3667 16.4667 54.3533 16.5267 54.34 16.58L52.24 19.48L54.68 23.34C54.76 23.46 54.78 23.6 54.74 23.76C54.7 23.92 54.5667 24 54.34 24H54.2ZM63.8514 24C63.6781 24 63.5647 23.94 63.5114 23.82C63.2847 23.94 63.0047 24 62.6714 24H61.9714C61.4781 24 61.0781 23.8467 60.7714 23.54C60.4781 23.22 60.3314 22.8 60.3314 22.28V18.52C60.3314 18.4133 60.3647 18.32 60.4314 18.24C60.5114 18.16 60.6114 18.12 60.7314 18.12H60.8914C61.0114 18.12 61.1047 18.1667 61.1714 18.26C61.2381 18.3533 61.2714 18.44 61.2714 18.52V22.26C61.2714 22.8067 61.5047 23.08 61.9714 23.08H62.6714C63.1914 23.08 63.4514 22.8267 63.4514 22.32V18.52C63.4514 18.4133 63.4847 18.32 63.5514 18.24C63.6181 18.16 63.7181 18.12 63.8514 18.12H63.9714C64.1047 18.12 64.1981 18.1667 64.2514 18.26C64.3181 18.3533 64.3514 18.44 64.3514 18.52V23.58C64.3514 23.6733 64.3181 23.7667 64.2514 23.86C64.1981 23.9533 64.1047 24 63.9714 24H63.8514ZM73.5295 24C73.4095 24 73.3162 23.96 73.2495 23.88C73.1829 23.8 73.1495 23.7 73.1495 23.58V19.84C73.1495 19.3067 72.9162 19.04 72.4495 19.04H71.7295C71.2095 19.04 70.9495 19.2933 70.9495 19.8V23.58C70.9495 23.7 70.9162 23.8 70.8495 23.88C70.7829 23.96 70.6895 24 70.5695 24H70.4295C70.2962 24 70.1962 23.9533 70.1295 23.86C70.0762 23.7667 70.0495 23.6733 70.0495 23.58V18.52C70.0495 18.44 70.0762 18.3533 70.1295 18.26C70.1962 18.1667 70.2962 18.12 70.4295 18.12H70.5695C70.7295 18.12 70.8429 18.18 70.9095 18.3C71.1095 18.18 71.3829 18.12 71.7295 18.12H72.4495C72.9429 18.12 73.3362 18.28 73.6295 18.6C73.9229 18.9067 74.0695 19.32 74.0695 19.84V23.58C74.0695 23.7 74.0362 23.8 73.9695 23.88C73.9029 23.96 73.8029 24 73.6695 24H73.5295ZM80.1253 24C80.0453 24 79.9586 23.9667 79.8653 23.9C79.7853 23.8333 79.7453 23.7333 79.7453 23.6V23.48C79.7453 23.2133 79.872 23.08 80.1253 23.08H81.7653C82.032 23.08 82.212 23.0333 82.3053 22.94C82.3986 22.8467 82.4453 22.72 82.4453 22.56V22.26C82.4453 22.0467 82.4186 21.9 82.3653 21.82C82.312 21.7267 82.2053 21.6467 82.0453 21.58L80.7853 21.12C80.3853 20.9733 80.0986 20.7867 79.9253 20.56C79.7653 20.32 79.6853 19.9933 79.6853 19.58C79.6853 19.1 79.812 18.74 80.0653 18.5C80.332 18.2467 80.7053 18.12 81.1853 18.12H82.7253C82.8586 18.12 82.952 18.1667 83.0053 18.26C83.072 18.3533 83.1053 18.44 83.1053 18.52V18.64C83.1053 18.9067 82.9786 19.04 82.7253 19.04H81.1853C80.9453 19.04 80.7853 19.0867 80.7053 19.18C80.6386 19.26 80.6053 19.3467 80.6053 19.44V19.72C80.6053 19.8533 80.632 19.9533 80.6853 20.02C80.7386 20.0733 80.8653 20.14 81.0653 20.22L82.3253 20.72C82.7253 20.88 82.992 21.1067 83.1253 21.4C83.2586 21.68 83.3253 22.0467 83.3253 22.5C83.3253 23.02 83.192 23.4 82.9253 23.64C82.6586 23.88 82.272 24 81.7653 24H80.1253ZM90.978 24C90.498 24 90.1046 23.8467 89.798 23.54C89.4913 23.22 89.338 22.8 89.338 22.28V18.96H88.958C88.8646 18.96 88.778 18.9267 88.698 18.86C88.618 18.7933 88.578 18.6933 88.578 18.56V18.42C88.578 18.3133 88.6113 18.22 88.678 18.14C88.7446 18.06 88.838 18.02 88.958 18.02H89.338V17.44C89.338 17.3467 89.3713 17.2533 89.438 17.16C89.5046 17.0533 89.6046 17 89.738 17H89.878C90.0246 17 90.118 17.06 90.158 17.18C90.2113 17.2867 90.238 17.3733 90.238 17.44V18.02H91.218C91.3513 18.02 91.4446 18.06 91.498 18.14C91.5646 18.22 91.598 18.3133 91.598 18.42V18.56C91.598 18.6933 91.558 18.7933 91.478 18.86C91.398 18.9267 91.3113 18.96 91.218 18.96H90.238V22.28C90.238 22.8 90.4846 23.06 90.978 23.06H91.318C91.438 23.06 91.5313 23.1 91.598 23.18C91.6646 23.26 91.698 23.3533 91.698 23.46V23.6C91.698 23.7333 91.658 23.8333 91.578 23.9C91.498 23.9667 91.4113 24 91.318 24H90.978ZM100.669 24C100.416 24 100.289 23.86 100.289 23.58V19.7C100.289 19.1533 100.056 18.88 99.5894 18.88H98.8694C98.3494 18.88 98.0894 19.14 98.0894 19.66V23.58C98.0894 23.86 97.9627 24 97.7094 24H97.5694C97.436 24 97.336 23.9533 97.2694 23.86C97.216 23.7533 97.1894 23.66 97.1894 23.58V16.32C97.1894 16.2267 97.216 16.1333 97.2694 16.04C97.336 15.9467 97.436 15.9 97.5694 15.9H97.7094C97.9627 15.9 98.0894 16.04 98.0894 16.32V18.1C98.3294 17.9933 98.5894 17.94 98.8694 17.94H99.5894C100.083 17.94 100.476 18.0933 100.769 18.4C101.063 18.7067 101.209 19.14 101.209 19.7V23.58C101.209 23.86 101.076 24 100.809 24H100.669ZM110.384 24C110.211 24 110.098 23.94 110.044 23.82C109.778 23.94 109.504 24 109.224 24H108.504C107.998 24 107.598 23.8467 107.304 23.54C107.024 23.22 106.884 22.8 106.884 22.28V19.84C106.884 19.32 107.024 18.9067 107.304 18.6C107.598 18.28 107.998 18.12 108.504 18.12H110.504C110.638 18.12 110.738 18.16 110.804 18.24C110.871 18.32 110.904 18.4133 110.904 18.52V23.58C110.904 23.7 110.871 23.8 110.804 23.88C110.738 23.96 110.638 24 110.504 24H110.384ZM110.024 19.66C110.024 19.54 110.018 19.4733 110.004 19.46V19.34C110.018 19.2867 110.004 19.2267 109.964 19.16C109.938 19.0933 109.844 19.0533 109.684 19.04C109.671 19.0267 109.638 19.02 109.584 19.02C109.544 19.02 109.518 19.0267 109.504 19.04C109.451 19.04 109.351 19.0467 109.204 19.06C109.071 19.06 108.838 19.0533 108.504 19.04C108.024 19.04 107.784 19.3067 107.784 19.84V22.26C107.784 22.8067 108.024 23.08 108.504 23.08H109.204C109.738 23.08 110.004 22.8267 110.004 22.32C110.004 21.4667 110.004 20.8467 110.004 20.46C110.018 20.0733 110.024 19.8067 110.024 19.66ZM117.082 24C116.949 24 116.849 23.9533 116.782 23.86C116.729 23.7533 116.702 23.66 116.702 23.58V16.32C116.702 16.2267 116.729 16.1333 116.782 16.04C116.849 15.9467 116.949 15.9 117.082 15.9H117.222C117.489 15.9 117.622 16.04 117.622 16.32V23.58C117.622 23.86 117.489 24 117.222 24H117.082Z" fill="#FFFCF7"/>
<rect x="0.5" y="0.5" width="133" height="39" rx="0.5" stroke="#FFFCF7"/>
<path d="M40 39C40 39.5523 39.5523 40 39 40H0.999999C0.447714 40 0 39.5523 0 39V0.999999C0 0.447714 0.447715 0 1 0H39C39.5523 0 40 0.447715 40 1V39ZM12.8125 4.76172C12.5461 4.76172 12.2791 4.76062 12.0127 4.76172C11.7851 4.7626 11.6115 4.88031 11.5117 5.12207C11.4362 5.30478 11.3731 5.49588 11.3125 5.68652C11.1433 6.21905 11.0416 6.76959 11.0225 7.33984C11.0139 7.59228 10.9961 7.84447 10.9834 8.09668C10.9519 8.72712 10.9465 9.35747 11.0654 9.97754C11.1278 10.3033 11.182 10.6399 11.3799 10.9004C11.56 11.1377 11.7474 11.3673 11.9355 11.5957C12.1909 11.9056 12.4568 12.2049 12.7061 12.5215C12.9211 12.7947 13.0303 13.1233 13.0371 13.5049C13.0429 13.8341 13.0711 14.1636 13.0957 14.4922C13.1279 14.923 13.1713 15.3531 13.2002 15.7842C13.2343 16.2929 13.259 16.8024 13.2861 17.3115C13.3155 17.8606 13.2094 18.3408 12.8135 18.6904C12.6859 18.803 12.5765 18.9482 12.4697 19.0898C12.3351 19.2688 12.3288 19.448 12.4336 19.6543C12.4542 19.6947 12.4771 19.7337 12.501 19.7715C12.5918 19.9149 12.6895 20.0535 12.7734 20.2021C12.8799 20.3907 12.8712 20.5137 12.7549 20.6924C12.7039 20.7707 12.6482 20.845 12.5967 20.9229C12.4348 21.1679 12.439 21.4232 12.6113 21.6592C12.6515 21.7143 12.6965 21.767 12.7451 21.8115C12.8672 21.9235 12.9918 22.032 13.1172 22.1387C13.2644 22.264 13.392 22.4139 13.4209 22.6318C13.4795 23.0724 13.5428 23.5139 13.5684 23.958C13.597 24.4555 13.5789 24.9571 13.5947 25.4561C13.6057 25.8035 13.6365 26.1507 13.6641 26.4971C13.6924 26.851 13.7425 27.2033 13.7559 27.5576C13.7728 28.005 13.7653 28.4541 13.7627 28.9023C13.7612 29.1408 13.756 29.3801 13.7383 29.6172C13.7178 29.891 13.5979 30.1188 13.4688 30.3389C13.1603 30.865 12.848 31.3884 12.5449 31.9189C12.3093 32.3312 12.2085 32.7794 12.3047 33.2812C12.4165 33.8649 12.5738 34.4311 12.7461 34.9922C12.8034 35.1788 12.8717 35.3584 13.0029 35.4932C13.2815 35.7794 13.6152 35.9164 13.9727 35.9502C14.2329 35.9747 14.498 35.9519 14.7598 35.9316C14.9952 35.9133 15.1647 35.7684 15.2422 35.4951C15.2656 35.4128 15.2871 35.3289 15.3027 35.2441C15.4027 34.7035 15.5043 34.163 15.5986 33.6211C15.6433 33.3643 15.6944 33.105 15.707 32.8447C15.7286 32.3969 15.5904 32.0005 15.3604 31.6494C15.0721 31.2097 14.7756 30.7768 14.4932 30.332C14.2307 29.9188 14.043 29.4598 14.043 28.9316C14.0432 28.3214 14.0021 27.7153 13.9688 27.1074C13.9241 26.2945 13.9057 25.4788 13.8701 24.665C13.8461 24.1194 13.8191 23.5737 13.7803 23.0293C13.7492 22.5948 13.8335 22.2157 14.0723 21.876C14.2098 21.6805 14.3295 21.4623 14.4336 21.2393C14.5605 20.9668 14.5253 20.7969 14.3389 20.583C14.3101 20.55 14.2806 20.517 14.2529 20.4824C14.1509 20.3552 14.138 20.2371 14.2139 20.085C14.2656 19.9814 14.33 19.8862 14.376 19.7793C14.486 19.523 14.4855 19.2641 14.3223 19.042C14.1804 18.849 14.0162 18.6787 13.8623 18.498C13.6206 18.2144 13.4715 17.869 13.4434 17.4717C13.4128 17.0406 13.4097 16.6059 13.4082 16.1729C13.4052 15.2913 13.4103 14.4099 13.4141 13.5283C13.4154 13.2158 13.4272 12.9022 13.5615 12.6221C13.6544 12.4285 13.7606 12.2434 13.8633 12.0566C14.0619 11.6953 14.2794 11.3458 14.459 10.9717C14.7065 10.4558 14.8408 9.88297 14.9863 9.31836C15.0393 9.11199 15.0463 8.90067 15.0088 8.68945C14.9371 8.28708 14.8566 7.88634 14.792 7.48242C14.7187 7.02327 14.6216 6.57284 14.4824 6.13574C14.3793 5.81236 14.2795 5.48681 14.165 5.16895C14.0636 4.88702 13.8667 4.7614 13.6113 4.76074C13.3451 4.76008 13.0787 4.76172 12.8125 4.76172ZM16.9053 4.68066C16.8738 4.67748 16.8191 4.72877 16.8076 4.76953C16.7846 4.8511 16.7759 4.94147 16.7754 5.02832L16.7744 6.28418C16.7547 6.80469 16.7383 7.32563 16.7119 7.8457C16.7054 7.97122 16.6748 8.09922 16.6357 8.2168C16.6194 8.2655 16.5517 8.31946 16.5088 8.31836C16.4664 8.31712 16.4188 8.25611 16.3857 8.20898C16.362 8.17529 16.3506 8.12222 16.3467 8.07617C16.3309 7.89396 16.3147 7.71098 16.3086 7.52832C16.2965 7.16909 16.2956 6.80942 16.2822 6.4502C16.2673 6.05289 16.2722 5.65993 16.3691 5.27344C16.3996 5.1522 16.4037 5.02096 16.4141 4.89355C16.4143 4.89029 16.4141 4.88697 16.4136 4.88362C16.4073 4.84404 16.3394 4.82957 16.3193 4.86426C16.3028 4.89382 16.2921 4.93128 16.2871 4.9668C16.2523 5.2165 16.2349 5.47163 16.1826 5.71582C16.0686 6.24947 16.0238 6.79266 16.0146 7.33887C16.0031 8.01714 16.001 8.69587 16.0635 9.37305C16.1145 9.92565 16.1789 10.473 16.3652 10.9883C16.5196 11.4147 16.6888 11.8354 17.0322 12.0977C17.2878 12.2931 17.3522 12.567 17.3291 12.9014C17.2952 13.3906 17.2668 13.8805 17.2393 14.3701C17.2173 14.7615 17.1975 15.1531 17.1816 15.5449C17.155 16.2009 17.1322 16.8577 17.1084 17.5137C17.0967 17.8363 17.0871 18.1589 17.0752 18.4814C17.0659 18.7311 17.0655 18.9796 17.124 19.2227C17.1962 19.5224 17.2109 19.8193 17.1523 20.1299C17.1118 20.3445 17.1113 20.5738 17.1143 20.7959C17.1174 21.0258 17.1463 21.2547 17.1631 21.4844C17.1893 21.8451 17.217 22.2062 17.2402 22.5674C17.2665 22.9767 17.2861 23.3868 17.3135 23.7959C17.336 24.1349 17.365 24.4739 17.3926 24.8125C17.4211 25.1621 17.4525 25.5115 17.4795 25.8613C17.5026 26.1602 17.514 26.461 17.5439 26.7588C17.5781 27.0974 17.5217 27.4069 17.3594 27.6855C17.2278 27.9114 17.0868 28.1296 16.9492 28.3506C16.7932 28.6012 16.633 28.8518 16.5811 29.165C16.5496 29.3541 16.5412 29.5494 16.5283 29.7422C16.5024 30.1328 16.4619 30.5242 16.4619 30.915C16.4617 31.2758 16.4921 31.6392 16.5342 31.9971C16.5936 32.5022 16.6683 33.0061 16.751 33.5068C16.8137 33.8865 16.8978 34.2613 16.9746 34.6377C16.9897 34.7116 17.0107 34.7857 17.04 34.8525C17.0542 34.885 17.0995 34.9244 17.1221 34.918C17.1474 34.9103 17.1739 34.8588 17.1807 34.8213C17.1918 34.7582 17.1937 34.6904 17.1885 34.626C17.1632 34.3156 17.1292 34.0059 17.1084 33.6953C17.0816 33.2971 17.0631 32.8979 17.0439 32.499C17.0305 32.2208 17.0065 31.9403 17.0713 31.667C17.09 31.5873 17.2342 31.5912 17.2529 31.6709C17.2944 31.8469 17.319 32.0285 17.3594 32.2051C17.4748 32.7111 17.5681 33.2208 17.5986 33.7461C17.6174 34.0679 17.6503 34.3887 17.6836 34.709C17.6925 34.7937 17.7234 34.8767 17.751 34.957C17.7582 34.9774 17.7937 35.0004 17.8096 34.9951C17.8315 34.9876 17.8603 34.9558 17.8633 34.9307C17.8699 34.8739 17.8696 34.8131 17.8604 34.7568C17.7926 34.3471 17.7152 33.9394 17.6543 33.5283C17.6202 33.2989 17.5966 33.0636 17.5947 32.8311C17.5912 32.3686 17.6022 31.9056 17.6152 31.4434C17.6192 31.3025 17.6399 31.1598 17.668 31.0225C17.6902 30.9138 17.7581 30.835 17.8564 30.8213C17.9587 30.8072 18.0465 30.867 18.085 30.9717C18.138 31.1163 18.182 31.2706 18.2021 31.4258C18.2509 31.8012 18.2891 32.1795 18.3223 32.5576C18.3688 33.0861 18.408 33.6154 18.4482 34.1445C18.4611 34.3123 18.4655 34.4814 18.4775 34.6494C18.4801 34.6875 18.4935 34.7286 18.5117 34.7607C18.5495 34.8276 18.6106 34.8242 18.6309 34.749C18.648 34.6855 18.6527 34.6109 18.6436 34.5449C18.578 34.0682 18.5612 33.5906 18.5908 33.1084C18.6252 32.5453 18.6422 31.9806 18.6729 31.417C18.6797 31.2906 18.6981 31.1598 18.7354 31.042C18.7555 30.9785 18.8214 30.9135 18.8779 30.8926C18.9542 30.8646 19.0187 30.939 19.0439 31.0176C19.0849 31.1451 19.1322 31.2819 19.1309 31.4141C19.1273 31.7686 19.1022 32.1234 19.0801 32.4775C19.0505 32.9526 19.0132 33.4273 18.9844 33.9023C18.9691 34.1546 18.9617 34.4082 18.958 34.6611C18.9579 34.6661 18.9584 34.6711 18.9593 34.6761C18.9695 34.7348 19.0739 34.7536 19.0957 34.6982C19.1284 34.6158 19.1557 34.5283 19.1719 34.4395C19.2309 34.115 19.286 33.7891 19.3389 33.4629C19.3854 33.1759 19.4355 32.889 19.4668 32.5996C19.5085 32.2149 19.5414 31.8283 19.5645 31.4414C19.6009 30.8314 19.6427 30.2205 19.6504 29.6094C19.6552 29.2251 19.526 28.8745 19.3047 28.584C19.0239 28.2155 18.7161 27.8825 18.3711 27.5986C18.0865 27.3646 17.9486 27.0353 17.9443 26.627C17.9419 26.3887 17.939 26.1503 17.9414 25.9121C17.9483 25.2475 17.9522 24.5822 17.9688 23.918C17.9844 23.2948 18.0117 22.6716 18.04 22.0488C18.0536 21.7528 18.0811 21.4577 18.1025 21.1621C18.1344 20.7224 18.1296 20.2918 17.9102 19.9043C17.8722 19.837 17.8491 19.7529 17.834 19.6729C17.7983 19.4837 17.8833 19.3338 17.9668 19.1885C18.1444 18.8796 18.1764 18.5455 18.1211 18.1826C18.0636 17.8062 18.008 17.426 17.9883 17.0449C17.9531 16.3674 17.945 15.6874 17.9258 15.0088C17.9087 14.4073 17.8981 13.8051 17.8721 13.2041C17.8522 12.7433 17.9368 12.3403 18.248 12.0312C18.3403 11.9395 18.4226 11.8329 18.5078 11.7314C18.667 11.5423 18.7887 11.3232 18.8574 11.0684C18.9792 10.6153 19.0499 10.1501 19.084 9.67578C19.1192 9.18681 19.104 8.69935 19.0352 8.21875C18.968 7.74931 18.8795 7.28212 18.7773 6.82129C18.6398 6.20123 18.4804 5.58754 18.3291 4.97168C18.3172 4.92294 18.2991 4.87495 18.2773 4.83105C18.2116 4.69873 18.1324 4.67787 18.0332 4.77441C17.9743 4.83169 17.9314 4.8461 17.8662 4.78223C17.7862 4.70369 17.7172 4.73411 17.6982 4.85742C17.6822 4.96087 17.6848 5.06894 17.6855 5.1748C17.6895 5.68461 17.702 6.19527 17.6982 6.70508C17.6964 6.95334 17.6703 7.20206 17.6455 7.44922C17.6208 7.69553 17.5935 7.94267 17.5488 8.18457C17.5144 8.37055 17.4728 8.56265 17.3965 8.72754C17.3047 8.92561 17.0973 8.91012 17.0107 8.70703C16.9622 8.5932 16.9301 8.45812 16.9258 8.33105C16.9148 8.00189 16.9164 7.67141 16.9248 7.3418C16.9455 6.5344 16.9732 5.7271 16.9971 4.91992C16.9984 4.87617 17.0036 4.82682 16.9893 4.79004C16.9716 4.74526 16.9365 4.68397 16.9053 4.68066ZM21.4746 4.16602C21.4149 3.97501 21.2663 3.94362 21.1572 4.10059C21.0901 4.19709 21.0381 4.31442 20.999 4.43164C20.8593 4.85156 20.7257 5.27479 20.5938 5.69824C20.4057 6.30225 20.1846 6.8961 20.1328 7.54688C20.1034 7.91624 20.1052 8.28672 20.166 8.65234C20.2593 9.21177 20.4182 9.74613 20.6162 10.2656C20.8552 10.8924 21.1169 11.5095 21.2305 12.1934C21.2889 12.5449 21.3441 12.8953 21.3506 13.2559C21.3655 14.0865 21.3147 14.9119 21.1982 15.7295C21.1197 16.2813 21.0162 16.8295 20.9062 17.374C20.8307 17.7485 20.7686 18.1215 20.8711 18.4951C20.9286 18.7047 21.0208 18.9032 21.1094 19.0986C21.2106 19.3218 21.2139 19.5354 21.1045 19.752C21.0714 19.8179 21.0385 19.8844 21.0068 19.9512C20.927 20.1199 20.8651 20.3023 20.8936 20.4941C20.9451 20.841 21.004 21.1884 21.084 21.5273C21.2753 22.338 21.4316 23.153 21.4424 24.001C21.4474 24.3962 21.4758 24.7912 21.5029 25.1855C21.5376 25.6896 21.5132 26.1857 21.4121 26.6787C21.306 27.1954 21.1087 27.6701 20.9492 28.1621C20.7588 28.7493 20.521 29.3178 20.4277 29.9443C20.3819 30.2518 20.3548 30.5646 20.417 30.8721C20.4883 31.225 20.5587 31.5805 20.6602 31.9219C20.9051 32.7459 21.1662 33.5632 21.4258 34.3809C21.4552 34.4735 21.5088 34.5627 21.5684 34.6328C21.6757 34.7591 21.8057 34.7209 21.8643 34.5566C21.8819 34.5063 21.8991 34.4528 21.9053 34.3994C21.9756 33.7923 22.0583 33.1867 22.1084 32.5771C22.1533 32.0304 22.1768 31.4791 22.1826 30.9297C22.1912 30.1109 22.1794 29.2914 22.1689 28.4727C22.1617 27.9075 22.1448 27.3421 22.126 26.7773C22.1062 26.187 22.0655 25.5972 22.0586 25.0068C22.0471 24.0336 22.0531 23.0594 22.0566 22.0859C22.0578 21.7779 22.0682 21.4695 22.085 21.1621C22.1153 20.6091 22.0928 20.0686 21.8242 19.5879C21.7081 19.3796 21.7126 19.1799 21.7959 18.957C21.8457 18.8239 21.8841 18.671 21.8838 18.5273C21.8806 17.1741 21.8683 15.8205 21.8584 14.4673C21.8584 14.4643 21.856 14.4619 21.853 14.4619C21.8501 14.4619 21.8477 14.4595 21.8477 14.4565C21.8476 13.6688 21.8431 12.8805 21.8496 12.0928C21.8569 11.2115 21.8769 10.3303 21.8877 9.44922C21.897 8.6928 21.9098 7.93611 21.9033 7.17969C21.9003 6.82202 21.8726 6.46144 21.8242 6.1084C21.7553 5.60565 21.658 5.1074 21.5703 4.6084C21.5441 4.45929 21.519 4.30808 21.4746 4.16602ZM24.1826 26.2324C24.1485 26.2566 24.1222 26.3364 24.126 26.3887C24.1327 26.4771 24.155 26.57 24.1895 26.6494C24.412 27.1622 24.6405 27.6718 24.8662 28.1826C25.0804 28.6677 25.2804 29.1638 25.5713 29.5938C26.0337 30.2767 26.4987 30.9579 26.9727 31.6299C27.3188 32.1206 27.7049 32.5691 28.1201 32.9775C28.572 33.4222 29.0349 33.8522 29.4961 34.2832C29.6335 34.4117 29.7764 34.5355 29.9277 34.6387C30.0522 34.7235 30.1558 34.6836 30.248 34.5537C30.2796 34.5093 30.3098 34.4612 30.333 34.4102C30.476 34.0947 30.6198 33.7789 30.7568 33.46C30.7733 33.4216 30.7856 33.3807 30.7964 33.339C30.8245 33.23 30.8411 33.1138 30.8044 33.0074C30.772 32.9136 30.7177 32.8381 30.6465 32.7764C30.0533 32.2626 29.453 31.7586 28.8643 31.2373C28.4216 30.8453 27.9746 30.456 27.5615 30.0225C27.0776 29.5147 26.6223 28.9672 26.165 28.4248C25.609 27.7652 25.0639 27.0921 24.5127 26.4268C24.4567 26.3593 24.3954 26.2933 24.3271 26.2461C24.2877 26.219 24.2175 26.208 24.1826 26.2324ZM22.7783 19.4668C22.6591 19.4581 22.5925 19.5653 22.6025 19.7041C22.6064 19.7582 22.6147 19.8134 22.6299 19.8643C22.8505 20.5975 23.0566 21.338 23.2979 22.0615C23.659 23.1444 24.0946 24.188 24.5391 25.2266C24.9006 26.071 25.3906 26.7847 25.9941 27.3984C26.5293 27.9427 27.0809 28.4612 27.668 28.9238C28.4697 29.5558 29.2638 30.2051 30.0869 30.7959C30.7473 31.2696 31.4453 31.6705 32.1289 32.0986C32.4419 32.2947 32.7571 32.4862 33.0771 32.665C33.2905 32.7842 33.4278 32.7036 33.4766 32.4316C33.5264 32.1542 33.5565 31.871 33.5898 31.5898C33.6228 31.3114 33.6446 31.0311 33.6777 30.7529C33.7196 30.4029 33.7664 30.0534 33.8135 29.7041C33.8838 29.1824 33.9548 28.6605 34.0293 28.1396C34.0842 27.7554 34.1455 27.3718 34.2041 26.9883C34.2828 26.4727 34.3619 25.9572 34.4404 25.4414L34.5573 24.6649C34.558 24.66 34.555 24.6552 34.5503 24.6535C34.5465 24.6522 34.5437 24.6487 34.5435 24.6447C34.5392 24.5777 34.543 24.5075 34.5273 24.4443C34.4248 24.033 34.3141 23.6244 34.2119 23.2129C34.1389 22.9188 33.9751 22.74 33.7314 22.6602C33.4041 22.5528 33.0754 22.4498 32.7471 22.3457C32.0211 22.1159 31.2947 21.8865 30.5684 21.6582C29.8891 21.4447 29.2102 21.2281 28.5293 21.0225C28.0116 20.8663 27.4908 20.7226 26.9707 20.5781C26.2897 20.3891 25.6077 20.2066 24.9268 20.0176C24.3828 19.8667 23.8404 19.7054 23.2959 19.5576C23.1264 19.5116 22.9517 19.4796 22.7783 19.4668ZM11.8428 26.1621C11.8126 26.1361 11.7347 26.1443 11.7012 26.1738C11.6178 26.2473 11.5349 26.3311 11.4736 26.4297C11.2743 26.7506 11.0776 27.0744 10.8926 27.4072C10.5735 27.9812 10.2013 28.4942 9.68848 28.8291C8.93562 29.3207 8.17232 29.7896 7.41406 30.2695C7.1179 30.4568 6.82206 30.6465 6.52832 30.8389C6.48726 30.8658 6.45375 30.9002 6.42927 30.9465C6.36102 31.0755 6.39184 31.2415 6.47227 31.3633C6.474 31.366 6.47575 31.3685 6.47754 31.3711C6.59607 31.5402 6.71769 31.7088 6.85352 31.8574C6.92686 31.9375 7.0282 31.9961 7.125 32.0303C7.27899 32.0845 7.42416 32.0105 7.55566 31.9199C7.87025 31.7031 8.18616 31.4871 8.49219 31.2539C9.0353 30.8399 9.53941 30.3668 9.96191 29.7832C10.2417 29.3965 10.5137 29.0017 10.793 28.6143C11.0681 28.2324 11.3411 27.8484 11.5479 27.4072C11.707 27.0678 11.8401 26.7155 11.8867 26.3271C11.8932 26.2737 11.875 26.1903 11.8428 26.1621ZM11.167 24.0732C11.1552 23.9014 11.026 23.8536 10.9092 23.959C10.8776 23.9879 10.8476 24.021 10.8223 24.0576C10.7341 24.1848 10.6439 24.3109 10.5615 24.4434C10.1101 25.1697 9.60138 25.8306 8.99609 26.3828C8.87141 26.4966 8.74368 26.6089 8.63184 26.7393C8.50023 26.8927 8.53043 27.0557 8.70508 27.1289C8.74724 27.1466 8.79049 27.1607 8.83493 27.173C9.02319 27.225 9.22787 27.2199 9.41181 27.1541C9.45191 27.1398 9.49164 27.1237 9.53027 27.1045C9.82127 26.9598 10.0531 26.7079 10.2959 26.4766C10.5435 26.2407 10.7476 25.9657 10.8525 25.6064C10.9536 25.2598 11.0495 24.9101 11.1309 24.5566C11.1664 24.4025 11.1778 24.2327 11.167 24.0732ZM11.5996 20.1738C11.5594 20.1738 11.5176 20.1671 11.4785 20.1748C11.1025 20.2489 10.7266 20.3221 10.3516 20.4023C9.86814 20.5058 9.38577 20.6196 8.90234 20.7227C8.39423 20.8307 7.88446 20.9311 7.37598 21.0361C7.03114 21.1073 6.68701 21.183 6.3418 21.252C6.05114 21.3099 5.95578 21.4691 6.01855 21.8105C6.04125 21.9347 6.07155 22.0573 6.09277 22.1816C6.1726 22.6485 6.24319 23.1179 6.33008 23.583C6.46745 24.3189 6.64795 25.0418 6.86816 25.749C6.91984 25.9155 6.97485 26.0831 7.04785 26.2373C7.11833 26.3863 7.24117 26.4119 7.36816 26.3262C7.42935 26.2847 7.49023 26.237 7.54102 26.1797C7.79711 25.8916 8.0506 25.6004 8.30371 25.3086C8.58327 24.9861 8.85335 24.6509 9.14258 24.3408C9.68233 23.7623 10.2336 23.1957 10.666 22.4961C11.0542 21.8677 11.4232 21.2221 11.7979 20.582C11.8527 20.4883 11.8969 20.3775 11.8408 20.2646C11.7871 20.1569 11.6894 20.169 11.5996 20.1738ZM17.9219 5.15723C17.9541 5.05962 17.9924 5.04802 18.0312 5.1377C18.0935 5.28225 18.1567 5.43372 18.1846 5.59082C18.297 6.22254 18.4 6.85693 18.498 7.49219C18.544 7.79044 18.5856 8.09417 18.5195 8.39551C18.4961 8.50193 18.4535 8.61031 18.3965 8.69629C18.2837 8.86628 18.101 8.8213 18.0439 8.61621C18.022 8.53724 18.0076 8.45231 18.0029 8.36914C17.981 7.97058 17.9654 7.57141 17.9443 7.17285C17.9254 6.81442 17.9013 6.45609 17.8809 6.09766C17.8747 5.98815 17.8723 5.87769 17.8662 5.73535C17.8757 5.59952 17.886 5.43147 17.8994 5.26367C17.9024 5.22793 17.9109 5.19098 17.9219 5.15723Z" fill="#FFFCF7"/>
</svg>
