<svg width="78" height="48" viewBox="0 0 78 48" fill="none" xmlns="http://www.w3.org/2000/svg">
<path d="M5.2 45C4.97333 45 4.82 44.9067 4.74 44.72L2.58 41.34L1.72 42.46V44.56C1.72 44.6533 1.68 44.7533 1.6 44.86C1.53333 44.9533 1.42667 45 1.28 45H1.14C1.00667 45 0.893333 44.96 0.8 44.88C0.72 44.7867 0.68 44.68 0.68 44.56V37.38C0.68 37.26 0.713333 37.1533 0.78 37.06C0.86 36.9667 0.98 36.92 1.14 36.92H1.28C1.45333 36.92 1.56667 36.9733 1.62 37.08C1.68667 37.1867 1.72 37.2867 1.72 37.38V40.8L4.36 37.18C4.41333 37.1133 4.47333 37.0533 4.54 37C4.62 36.9467 4.70667 36.92 4.8 36.92H5.02C5.15333 36.92 5.24667 36.9467 5.3 37C5.35333 37.04 5.38667 37.1 5.4 37.18C5.41333 37.2467 5.40667 37.32 5.38 37.4C5.36667 37.4667 5.35333 37.5267 5.34 37.58L3.24 40.48L5.68 44.34C5.76 44.46 5.78 44.6 5.74 44.76C5.7 44.92 5.56667 45 5.34 45H5.2ZM14.8514 45C14.6781 45 14.5647 44.94 14.5114 44.82C14.2847 44.94 14.0047 45 13.6714 45H12.9714C12.4781 45 12.0781 44.8467 11.7714 44.54C11.4781 44.22 11.3314 43.8 11.3314 43.28V39.52C11.3314 39.4133 11.3647 39.32 11.4314 39.24C11.5114 39.16 11.6114 39.12 11.7314 39.12H11.8914C12.0114 39.12 12.1047 39.1667 12.1714 39.26C12.2381 39.3533 12.2714 39.44 12.2714 39.52V43.26C12.2714 43.8067 12.5047 44.08 12.9714 44.08H13.6714C14.1914 44.08 14.4514 43.8267 14.4514 43.32V39.52C14.4514 39.4133 14.4847 39.32 14.5514 39.24C14.6181 39.16 14.7181 39.12 14.8514 39.12H14.9714C15.1047 39.12 15.1981 39.1667 15.2514 39.26C15.3181 39.3533 15.3514 39.44 15.3514 39.52V44.58C15.3514 44.6733 15.3181 44.7667 15.2514 44.86C15.1981 44.9533 15.1047 45 14.9714 45H14.8514ZM24.5295 45C24.4095 45 24.3162 44.96 24.2495 44.88C24.1829 44.8 24.1495 44.7 24.1495 44.58V40.84C24.1495 40.3067 23.9162 40.04 23.4495 40.04H22.7295C22.2095 40.04 21.9495 40.2933 21.9495 40.8V44.58C21.9495 44.7 21.9162 44.8 21.8495 44.88C21.7829 44.96 21.6895 45 21.5695 45H21.4295C21.2962 45 21.1962 44.9533 21.1295 44.86C21.0762 44.7667 21.0495 44.6733 21.0495 44.58V39.52C21.0495 39.44 21.0762 39.3533 21.1295 39.26C21.1962 39.1667 21.2962 39.12 21.4295 39.12H21.5695C21.7295 39.12 21.8429 39.18 21.9095 39.3C22.1095 39.18 22.3829 39.12 22.7295 39.12H23.4495C23.9429 39.12 24.3362 39.28 24.6295 39.6C24.9229 39.9067 25.0695 40.32 25.0695 40.84V44.58C25.0695 44.7 25.0362 44.8 24.9695 44.88C24.9029 44.96 24.8029 45 24.6695 45H24.5295ZM31.1253 45C31.0453 45 30.9586 44.9667 30.8653 44.9C30.7853 44.8333 30.7453 44.7333 30.7453 44.6V44.48C30.7453 44.2133 30.872 44.08 31.1253 44.08H32.7653C33.032 44.08 33.212 44.0333 33.3053 43.94C33.3986 43.8467 33.4453 43.72 33.4453 43.56V43.26C33.4453 43.0467 33.4186 42.9 33.3653 42.82C33.312 42.7267 33.2053 42.6467 33.0453 42.58L31.7853 42.12C31.3853 41.9733 31.0986 41.7867 30.9253 41.56C30.7653 41.32 30.6853 40.9933 30.6853 40.58C30.6853 40.1 30.812 39.74 31.0653 39.5C31.332 39.2467 31.7053 39.12 32.1853 39.12H33.7253C33.8586 39.12 33.952 39.1667 34.0053 39.26C34.072 39.3533 34.1053 39.44 34.1053 39.52V39.64C34.1053 39.9067 33.9786 40.04 33.7253 40.04H32.1853C31.9453 40.04 31.7853 40.0867 31.7053 40.18C31.6386 40.26 31.6053 40.3467 31.6053 40.44V40.72C31.6053 40.8533 31.632 40.9533 31.6853 41.02C31.7386 41.0733 31.8653 41.14 32.0653 41.22L33.3253 41.72C33.7253 41.88 33.992 42.1067 34.1253 42.4C34.2586 42.68 34.3253 43.0467 34.3253 43.5C34.3253 44.02 34.192 44.4 33.9253 44.64C33.6586 44.88 33.272 45 32.7653 45H31.1253ZM41.978 45C41.498 45 41.1046 44.8467 40.798 44.54C40.4913 44.22 40.338 43.8 40.338 43.28V39.96H39.958C39.8646 39.96 39.778 39.9267 39.698 39.86C39.618 39.7933 39.578 39.6933 39.578 39.56V39.42C39.578 39.3133 39.6113 39.22 39.678 39.14C39.7446 39.06 39.838 39.02 39.958 39.02H40.338V38.44C40.338 38.3467 40.3713 38.2533 40.438 38.16C40.5046 38.0533 40.6046 38 40.738 38H40.878C41.0246 38 41.118 38.06 41.158 38.18C41.2113 38.2867 41.238 38.3733 41.238 38.44V39.02H42.218C42.3513 39.02 42.4446 39.06 42.498 39.14C42.5646 39.22 42.598 39.3133 42.598 39.42V39.56C42.598 39.6933 42.558 39.7933 42.478 39.86C42.398 39.9267 42.3113 39.96 42.218 39.96H41.238V43.28C41.238 43.8 41.4846 44.06 41.978 44.06H42.318C42.438 44.06 42.5313 44.1 42.598 44.18C42.6646 44.26 42.698 44.3533 42.698 44.46V44.6C42.698 44.7333 42.658 44.8333 42.578 44.9C42.498 44.9667 42.4113 45 42.318 45H41.978ZM51.6694 45C51.416 45 51.2894 44.86 51.2894 44.58V40.7C51.2894 40.1533 51.056 39.88 50.5894 39.88H49.8694C49.3494 39.88 49.0894 40.14 49.0894 40.66V44.58C49.0894 44.86 48.9627 45 48.7094 45H48.5694C48.436 45 48.336 44.9533 48.2694 44.86C48.216 44.7533 48.1894 44.66 48.1894 44.58V37.32C48.1894 37.2267 48.216 37.1333 48.2694 37.04C48.336 36.9467 48.436 36.9 48.5694 36.9H48.7094C48.9627 36.9 49.0894 37.04 49.0894 37.32V39.1C49.3294 38.9933 49.5894 38.94 49.8694 38.94H50.5894C51.0827 38.94 51.476 39.0933 51.7694 39.4C52.0627 39.7067 52.2094 40.14 52.2094 40.7V44.58C52.2094 44.86 52.076 45 51.8094 45H51.6694ZM61.3842 45C61.2109 45 61.0976 44.94 61.0442 44.82C60.7776 44.94 60.5042 45 60.2242 45H59.5042C58.9976 45 58.5976 44.8467 58.3042 44.54C58.0242 44.22 57.8842 43.8 57.8842 43.28V40.84C57.8842 40.32 58.0242 39.9067 58.3042 39.6C58.5976 39.28 58.9976 39.12 59.5042 39.12H61.5042C61.6376 39.12 61.7376 39.16 61.8042 39.24C61.8709 39.32 61.9042 39.4133 61.9042 39.52V44.58C61.9042 44.7 61.8709 44.8 61.8042 44.88C61.7376 44.96 61.6376 45 61.5042 45H61.3842ZM61.0242 40.66C61.0242 40.54 61.0176 40.4733 61.0042 40.46V40.34C61.0176 40.2867 61.0042 40.2267 60.9642 40.16C60.9376 40.0933 60.8442 40.0533 60.6842 40.04C60.6709 40.0267 60.6376 40.02 60.5842 40.02C60.5442 40.02 60.5176 40.0267 60.5042 40.04C60.4509 40.04 60.3509 40.0467 60.2042 40.06C60.0709 40.06 59.8376 40.0533 59.5042 40.04C59.0242 40.04 58.7842 40.3067 58.7842 40.84V43.26C58.7842 43.8067 59.0242 44.08 59.5042 44.08H60.2042C60.7376 44.08 61.0042 43.8267 61.0042 43.32C61.0042 42.4667 61.0042 41.8467 61.0042 41.46C61.0176 41.0733 61.0242 40.8067 61.0242 40.66ZM68.0819 45C67.9485 45 67.8485 44.9533 67.7819 44.86C67.7285 44.7533 67.7019 44.66 67.7019 44.58V37.32C67.7019 37.2267 67.7285 37.1333 67.7819 37.04C67.8485 36.9467 67.9485 36.9 68.0819 36.9H68.2219C68.4885 36.9 68.6219 37.04 68.6219 37.32V44.58C68.6219 44.86 68.4885 45 68.2219 45H68.0819Z" fill="#FFFCF7"/>
<path d="M51.5588 20.6553C51.5195 20.9172 51.4806 21.179 51.4408 21.4406C51.3622 21.9566 51.2829 22.4724 51.2042 22.9882C51.1455 23.3718 51.0841 23.755 51.0292 24.1393C50.9547 24.6601 50.8842 25.1816 50.8138 25.7033C50.7667 26.0527 50.72 26.4022 50.6781 26.7523C50.645 27.0307 50.6227 27.311 50.5897 27.5897C50.5564 27.8709 50.526 28.1537 50.4762 28.4313C50.4274 28.7033 50.2909 28.7836 50.0776 28.6644C49.7574 28.4855 49.4419 28.2943 49.1288 28.0981C48.4451 27.67 47.7472 27.2687 47.0868 26.7948C46.2636 26.2041 45.4697 25.5557 44.668 24.9237C44.0807 24.4609 43.5293 23.9418 42.9939 23.3974C42.3905 22.7837 41.9005 22.0707 41.539 21.2262C41.0945 20.1876 40.6591 19.144 40.298 18.0611C40.0567 17.3375 39.8505 16.5974 39.6299 15.8641C39.6146 15.8131 39.6064 15.7578 39.6025 15.7035C39.5925 15.5645 39.6593 15.4573 39.7788 15.4664C39.9523 15.4791 40.1267 15.5109 40.2963 15.557C40.8408 15.7048 41.3827 15.8656 41.9266 16.0165C42.6077 16.2056 43.2899 16.388 43.971 16.5771C44.4911 16.7216 45.0116 16.8656 45.5293 17.0218C46.2102 17.2274 46.8891 17.4436 47.5683 17.6571C48.2947 17.8855 49.0207 18.1155 49.7466 18.3454C50.0752 18.4495 50.4041 18.5526 50.7317 18.66C50.9754 18.7398 51.1394 18.9181 51.2124 19.2121C51.3146 19.6238 51.4244 20.0328 51.527 20.4442C51.5432 20.5095 51.5389 20.5819 51.5439 20.6509C51.5487 20.6524 51.5536 20.654 51.5584 20.6553H51.5588Z" fill="#FFFCF7"/>
<path d="M29.8116 0.76006C30.0781 0.76006 30.3449 0.759398 30.6115 0.76006C30.8668 0.760722 31.0638 0.886022 31.1652 1.16795C31.2797 1.48583 31.3795 1.81122 31.4826 2.13462C31.6219 2.57185 31.7185 3.02254 31.7918 3.48183C31.8564 3.88575 31.9366 4.28613 32.0083 4.68851C32.0459 4.89984 32.0392 5.11118 31.9862 5.31766C31.8406 5.8824 31.7062 6.45508 31.4586 6.97106C31.279 7.3452 31.0623 7.69441 30.8637 8.05575C30.7609 8.2426 30.6546 8.42746 30.5618 8.62115C30.4274 8.90131 30.4158 9.21457 30.4145 9.52716C30.4108 10.4089 30.405 11.2904 30.408 12.1722C30.4095 12.6052 30.413 13.0396 30.4435 13.4706C30.4717 13.8681 30.6209 14.2134 30.8628 14.4971C31.0167 14.6777 31.1801 14.8485 31.322 15.0415C31.4852 15.2636 31.4858 15.522 31.3758 15.7783C31.3298 15.8853 31.2656 15.9808 31.2138 16.0845C31.1379 16.2367 31.1509 16.3545 31.2531 16.4818C31.2808 16.5164 31.3103 16.5493 31.3391 16.5824C31.5256 16.7964 31.5604 16.966 31.4333 17.2387C31.3292 17.4617 31.2099 17.6794 31.0724 17.8749C30.8335 18.2146 30.749 18.5934 30.7801 19.028C30.819 19.5726 30.8458 20.1186 30.8698 20.6646C30.9054 21.4784 30.924 22.2933 30.9687 23.1062C31.002 23.7142 31.0428 24.3204 31.0426 24.9308C31.0426 25.4589 31.2304 25.9175 31.4929 26.3307C31.7754 26.7757 32.0716 27.2083 32.3599 27.6481C32.5902 27.9993 32.7285 28.3958 32.7069 28.8438C32.6943 29.1041 32.6429 29.3631 32.5982 29.6199C32.5038 30.1619 32.4028 30.7021 32.3028 31.2428C32.2872 31.3278 32.2652 31.4116 32.2417 31.4941C32.1643 31.7674 31.9956 31.9126 31.7602 31.9309C31.4983 31.9512 31.2336 31.9739 30.9731 31.9494C30.6156 31.9157 30.2814 31.7789 30.0028 31.4925C29.8715 31.3578 29.8034 31.1782 29.7461 30.9916C29.5737 30.4304 29.4164 29.8641 29.3045 29.2804C29.2083 28.7785 29.3088 28.33 29.5445 27.9177C29.8475 27.3872 30.1602 26.8644 30.4687 26.3382C30.5979 26.1181 30.7181 25.8902 30.7386 25.6162C30.7563 25.379 30.7609 25.1399 30.7624 24.9014C30.765 24.4532 30.7728 24.0043 30.7559 23.5569C30.7425 23.2024 30.6926 22.8499 30.6643 22.4958C30.6368 22.1495 30.6057 21.8027 30.5947 21.4552C30.5789 20.9562 30.5969 20.455 30.5683 19.9576C30.5428 19.5133 30.4798 19.0714 30.4212 18.6307C30.3924 18.4127 30.2643 18.2636 30.117 18.1383C29.9916 18.0315 29.867 17.9228 29.7449 17.8107C29.6964 17.7661 29.6515 17.7136 29.6113 17.6585C29.4389 17.4224 29.4343 17.1668 29.5962 16.9217C29.6478 16.8438 29.7036 16.7699 29.7546 16.6916C29.8711 16.5127 29.8799 16.3898 29.7732 16.201C29.6893 16.0523 29.5916 15.9144 29.5007 15.771C29.4767 15.7331 29.4542 15.6936 29.4335 15.653C29.3287 15.4467 29.3347 15.2681 29.4693 15.0892C29.5761 14.9473 29.6861 14.8024 29.8138 14.6896C30.2097 14.34 30.3159 13.8597 30.2864 13.3107C30.2593 12.8015 30.2347 12.2919 30.2006 11.7832C30.1718 11.3522 30.128 10.9225 30.0958 10.4916C30.0713 10.1629 30.0431 9.83379 30.0374 9.50443C30.0307 9.12257 29.9212 8.79366 29.706 8.52034C29.4568 8.20377 29.1911 7.90508 28.9358 7.59514C28.7476 7.3666 28.5601 7.13695 28.3799 6.89959C28.182 6.63906 28.1277 6.30264 28.0653 5.97682C27.9464 5.35671 27.9523 4.72645 27.9838 4.09598C27.9965 3.84361 28.014 3.59124 28.0225 3.33866C28.0417 2.76841 28.143 2.21867 28.3122 1.68614C28.3728 1.49532 28.4361 1.3045 28.5117 1.12162C28.6115 0.879625 28.7846 0.761604 29.0123 0.760722C29.2788 0.759619 29.5456 0.760501 29.8121 0.760501L29.8116 0.76006Z" fill="#FFFCF7"/>
<path d="M33.7742 2.28426C33.7742 1.86534 33.7725 1.44665 33.7755 1.02795C33.7761 0.94103 33.7846 0.850584 33.8077 0.768962C33.8192 0.72815 33.874 0.67653 33.9054 0.679839C33.9367 0.683148 33.9717 0.744475 33.9894 0.789257C34.0039 0.826097 33.9979 0.875732 33.9966 0.919631C33.9728 1.72681 33.9456 2.53376 33.925 3.34116C33.9166 3.67096 33.9144 4.00164 33.9253 4.33099C33.9296 4.45806 33.9618 4.59285 34.0104 4.70668C34.097 4.90985 34.3043 4.92573 34.3961 4.72763C34.4726 4.56262 34.5149 4.3707 34.5493 4.18452C34.594 3.94252 34.6212 3.69522 34.6459 3.44881C34.6707 3.20152 34.6962 2.95268 34.698 2.70429C34.7018 2.19448 34.6893 1.68423 34.6854 1.17442C34.6846 1.06854 34.6822 0.960442 34.6982 0.856981C34.7172 0.733665 34.7859 0.703002 34.8659 0.781536C34.9313 0.845731 34.9743 0.831612 35.0333 0.774256C35.1325 0.677633 35.2114 0.698369 35.2771 0.830729C35.2989 0.874629 35.3174 0.9225 35.3293 0.971252C35.4806 1.58717 35.6401 2.20088 35.7777 2.82099C35.8799 3.28182 35.9681 3.74861 36.0353 4.21805C36.1042 4.69874 36.1189 5.18626 36.0837 5.67533C36.0497 6.14962 35.9793 6.61465 35.8576 7.06776C35.7889 7.32278 35.6671 7.54205 35.5078 7.73133C35.4225 7.8328 35.3406 7.93957 35.2483 8.03134C34.9371 8.3404 34.8525 8.743 34.8725 9.20383C34.8985 9.80497 34.9091 10.4072 34.9263 11.0088C34.9454 11.6876 34.9529 12.3672 34.9881 13.0449C35.0078 13.4261 35.0636 13.806 35.1212 14.1826C35.1764 14.5454 35.144 14.8788 34.9665 15.1876C34.8829 15.333 34.7984 15.4832 34.8341 15.6725C34.8492 15.7526 34.8723 15.8362 34.9102 15.9035C35.1299 16.2911 35.1346 16.7219 35.1027 17.1618C35.0813 17.4574 35.0534 17.7525 35.0398 18.0486C35.0115 18.6713 34.9841 19.2943 34.9685 19.9175C34.9519 20.5817 34.9484 21.2466 34.9415 21.9113C34.9391 22.1498 34.9419 22.3885 34.9443 22.6269C34.9486 23.0353 35.0862 23.3642 35.3708 23.5982C35.7159 23.8821 36.0238 24.2152 36.3047 24.5839C36.526 24.8744 36.6552 25.2243 36.6504 25.6086C36.6427 26.2198 36.6005 26.8309 36.564 27.4411C36.5409 27.828 36.5089 28.2147 36.4672 28.5995C36.4359 28.8889 36.3857 29.1754 36.3391 29.4624C36.2863 29.7887 36.2306 30.1143 36.1716 30.4388C36.1554 30.5277 36.1282 30.6153 36.0955 30.6978C36.0807 30.7351 36.0405 30.758 36.0119 30.7874C35.9931 30.7452 35.9579 30.7027 35.9584 30.661C35.9622 30.4079 35.9692 30.1547 35.9845 29.9023C36.0134 29.4271 36.051 28.9526 36.0806 28.4775C36.1027 28.1232 36.1275 27.7682 36.131 27.4135C36.1323 27.2814 36.0845 27.1448 36.0435 27.0173C36.0182 26.9386 35.954 26.864 35.8775 26.8924C35.8209 26.9134 35.7552 26.978 35.7351 27.0416C35.6978 27.1594 35.6802 27.2897 35.6733 27.4162C35.6426 27.98 35.6249 28.545 35.5904 29.1084C35.5608 29.5906 35.5776 30.068 35.6431 30.5447C35.6522 30.6107 35.6481 30.6852 35.631 30.7488C35.6107 30.824 35.5495 30.8275 35.5117 30.7607C35.4934 30.7285 35.4799 30.6874 35.4773 30.6493C35.4652 30.4812 35.4609 30.3122 35.448 30.1443C35.4078 29.6151 35.3685 29.0857 35.322 28.5571C35.2889 28.179 35.2511 27.8011 35.2023 27.4256C35.1822 27.2703 35.1383 27.1157 35.0852 26.971C35.0467 26.8662 34.9585 26.8069 34.8561 26.8212C34.7576 26.8349 34.6902 26.9136 34.6681 27.0224C34.64 27.1598 34.6193 27.3023 34.6154 27.4433C34.6024 27.9057 34.5908 28.3685 34.5944 28.8311C34.5962 29.0636 34.6206 29.2983 34.6547 29.5277C34.7155 29.9389 34.7924 30.3468 34.8602 30.7567C34.8695 30.8132 34.8697 30.8738 34.863 30.9308C34.86 30.9559 34.8319 30.9877 34.8099 30.9952C34.7941 31.0007 34.7582 30.9769 34.7511 30.9563C34.7235 30.876 34.6925 30.7935 34.6835 30.7088C34.6502 30.3885 34.6176 30.0675 34.5988 29.7457C34.5683 29.2204 34.4745 28.7109 34.3591 28.2048C34.3187 28.0281 34.2945 27.8463 34.253 27.6703C34.2396 27.6134 34.1947 27.5668 34.1644 27.5156C34.1325 27.5657 34.0849 27.6105 34.0717 27.6668C34.0069 27.9401 34.0303 28.2202 34.0437 28.4984C34.0629 28.8975 34.0813 29.2968 34.1081 29.6952C34.129 30.0058 34.1634 30.3151 34.1887 30.6254C34.194 30.6899 34.1921 30.7576 34.1809 30.8207C34.1742 30.8584 34.1472 30.9107 34.1217 30.918C34.0992 30.9244 34.0538 30.8849 34.0396 30.8524C34.0102 30.7856 33.9899 30.7115 33.9749 30.6376C33.898 30.261 33.8138 29.886 33.7511 29.5061C33.6685 29.0054 33.5934 28.5022 33.5341 27.997C33.492 27.639 33.462 27.2754 33.4622 26.9145C33.4622 26.5236 33.502 26.1323 33.5279 25.7416C33.5408 25.5488 33.5495 25.3538 33.581 25.1647C33.6329 24.8515 33.7934 24.6011 33.9494 24.3505C34.0869 24.1294 34.228 23.9115 34.3596 23.6856C34.5221 23.4067 34.5778 23.0968 34.5435 22.758C34.5136 22.4601 34.5026 22.1599 34.4795 21.861C34.4525 21.5111 34.4207 21.1619 34.3922 20.8123C34.3646 20.4736 34.336 20.135 34.3135 19.796C34.2861 19.3867 34.2664 18.9769 34.2401 18.5674C34.2168 18.2061 34.1897 17.8452 34.1634 17.4843C34.1467 17.2544 34.1174 17.0252 34.1143 16.7951C34.1113 16.573 34.1113 16.3442 34.1519 16.1296C34.2105 15.819 34.1966 15.5223 34.1243 15.2225C34.0657 14.9794 34.0655 14.7308 34.0748 14.481C34.0867 14.1583 34.0966 13.8356 34.1083 13.5128C34.1322 12.8568 34.155 12.2005 34.1817 11.5444C34.1975 11.1526 34.2176 10.7613 34.2396 10.3699C34.2671 9.88019 34.2956 9.39024 34.3295 8.90095C34.3526 8.56652 34.2876 8.29275 34.0318 8.0973C33.6884 7.83501 33.5195 7.41432 33.3652 6.9879C33.1789 6.47258 33.1143 5.92549 33.0633 5.37289C33.0007 4.69565 33.003 4.01708 33.0145 3.33873C33.0236 2.79231 33.0689 2.24897 33.183 1.71512C33.2353 1.47091 33.2526 1.21612 33.2874 0.966399C33.2924 0.930882 33.3025 0.893821 33.3191 0.864261C33.3321 0.841319 33.3585 0.828965 33.379 0.811758C33.3915 0.838892 33.4162 0.867349 33.4142 0.892939C33.4038 1.02045 33.3993 1.1517 33.3688 1.27303C33.2718 1.65952 33.2673 2.05241 33.2822 2.44972C33.2956 2.80907 33.2965 3.16887 33.3086 3.52823C33.3148 3.71089 33.331 3.89332 33.3468 4.07554C33.3507 4.12164 33.3615 4.17481 33.3853 4.20856C33.4185 4.25577 33.4665 4.3171 33.5089 4.3182C33.5519 4.3193 33.6191 4.26481 33.6353 4.21606C33.6744 4.09848 33.7057 3.97097 33.7122 3.84545C33.7386 3.32528 33.7546 2.80422 33.7744 2.2836L33.7742 2.28426ZM34.8656 1.73541C34.8717 1.87792 34.8751 1.988 34.8812 2.09764C34.9017 2.45611 34.925 2.81415 34.9439 3.17262C34.965 3.57125 34.981 3.97031 35.003 4.36894C35.0076 4.4521 35.0216 4.53659 35.0435 4.61557C35.1005 4.82095 35.2833 4.86617 35.3961 4.69609C35.4532 4.61005 35.4964 4.50174 35.5199 4.39519C35.586 4.09385 35.5439 3.7903 35.4979 3.49205C35.3998 2.85672 35.2967 2.2225 35.1843 1.5907C35.1563 1.43341 35.0936 1.28164 35.0312 1.13692C34.9923 1.04714 34.954 1.05927 34.9218 1.15722C34.9108 1.19097 34.9026 1.22737 34.8996 1.26311C34.8862 1.43098 34.8753 1.59908 34.8658 1.73497L34.8656 1.73541Z" fill="#FFFCF7"/>
<path d="M38.8585 10.4613C38.8684 11.8165 38.881 13.1716 38.8842 14.5268C38.8846 14.6706 38.8455 14.8235 38.7956 14.9567C38.7122 15.1797 38.7083 15.3796 38.8246 15.5881C39.0932 16.0688 39.115 16.6088 39.0847 17.1618C39.0679 17.4694 39.0579 17.778 39.0567 18.0862C39.0532 19.0597 39.0471 20.0336 39.0586 21.0069C39.0655 21.5972 39.1063 22.1869 39.126 22.7772C39.1448 23.342 39.1621 23.9071 39.1694 24.4723C39.1798 25.2912 39.1908 26.1105 39.1822 26.9294C39.1764 27.4789 39.1532 28.0299 39.1083 28.5768C39.0582 29.1865 38.9752 29.7923 38.9048 30.3996C38.8987 30.453 38.8823 30.5059 38.8646 30.5562C38.8062 30.7208 38.6753 30.7594 38.5679 30.633C38.5084 30.5629 38.4553 30.4737 38.4259 30.3811C38.1662 29.5633 37.9052 28.7458 37.6603 27.9216C37.5588 27.5801 37.4881 27.2247 37.4168 26.8718C37.3546 26.5643 37.382 26.2517 37.4278 25.9442C37.521 25.3177 37.7585 24.7496 37.949 24.1624C38.1085 23.6702 38.3058 23.1953 38.4119 22.6784C38.513 22.1853 38.5374 21.6897 38.5028 21.1856C38.4756 20.7912 38.4473 20.3961 38.4423 20.0007C38.4315 19.1528 38.2751 18.3381 38.0837 17.5274C38.0037 17.1883 37.9454 16.8406 37.8939 16.4936C37.8654 16.3017 37.9268 16.1195 38.0067 15.9507C38.0383 15.8839 38.0711 15.8175 38.1042 15.7515C38.2137 15.5349 38.2111 15.3214 38.1098 15.0981C38.0212 14.9027 37.9285 14.7048 37.871 14.4952C37.7684 14.1215 37.8302 13.7487 37.9058 13.3741C38.0158 12.8295 38.1193 12.2815 38.1979 11.7296C38.3144 10.9118 38.3659 10.0863 38.3511 9.25553C38.3445 8.89485 38.2893 8.54453 38.2308 8.1929C38.1173 7.50904 37.8548 6.89246 37.6158 6.26573C37.4177 5.74622 37.2593 5.21193 37.166 4.65248C37.1052 4.28673 37.1035 3.91612 37.1329 3.54661C37.1847 2.89584 37.4056 2.30243 37.5936 1.69842C37.7256 1.27487 37.8591 0.851981 37.9989 0.431958C38.038 0.314599 38.0897 0.197019 38.1569 0.100396C38.266 -0.0566711 38.4145 -0.0253461 38.4743 0.165694C38.5188 0.307981 38.5445 0.459313 38.5707 0.608659C38.6584 1.10766 38.7552 1.60511 38.8241 2.10786C38.8725 2.46104 38.9004 2.82172 38.9034 3.17953C38.9099 3.93597 38.8967 4.69263 38.8873 5.44907C38.8766 6.33015 38.8564 7.21123 38.8492 8.09252C38.8427 8.88205 38.8479 9.6718 38.8479 10.4613C38.8516 10.4613 38.8555 10.4613 38.8592 10.4613H38.8585Z" fill="#FFFCF7"/>
<path d="M28.5992 16.174C28.6891 16.1692 28.7872 16.1564 28.841 16.2643C28.8972 16.3772 28.8529 16.4877 28.798 16.5815C28.4233 17.2217 28.0547 17.8674 27.6664 18.4959C27.234 19.1956 26.6826 19.7621 26.1428 20.3407C25.8535 20.6509 25.5836 20.986 25.304 21.3085C25.0509 21.6004 24.7975 21.8916 24.5414 22.1797C24.4906 22.237 24.4299 22.2844 24.3686 22.3259C24.2415 22.412 24.1188 22.3868 24.0483 22.2377C23.9751 22.0833 23.9204 21.9154 23.8686 21.7486C23.6484 21.0414 23.4679 20.3193 23.3305 19.5834C23.2436 19.1182 23.173 18.6487 23.0931 18.1817C23.0719 18.0573 23.0412 17.9351 23.0185 17.8109C22.9556 17.4692 23.0507 17.3101 23.3415 17.2521C23.687 17.1831 24.0313 17.1072 24.3764 17.0359C24.885 16.9309 25.3943 16.8303 25.9025 16.7222C26.3859 16.6192 26.8678 16.506 27.3513 16.4026C27.7265 16.3223 28.1028 16.2493 28.479 16.1751C28.518 16.1674 28.5594 16.174 28.5996 16.174H28.5992Z" fill="#FFFCF7"/>
<path d="M47.8378 29.1729C47.8113 29.2686 47.795 29.3705 47.7568 29.4592C47.6198 29.7782 47.4761 30.0934 47.3331 30.4089C47.3099 30.4601 47.2801 30.5081 47.2484 30.5527C47.1561 30.6829 47.0522 30.7232 46.9277 30.6383C46.7762 30.5351 46.6332 30.4109 46.4956 30.2823C46.0344 29.8512 45.5716 29.4215 45.1196 28.9767C44.7043 28.5682 44.3187 28.1197 43.9724 27.6289C43.4985 26.9569 43.034 26.2757 42.5717 25.5927C42.2807 25.1628 42.0802 24.6669 41.866 24.1818C41.6402 23.6709 41.4123 23.1611 41.1897 22.6482C41.1553 22.5687 41.1325 22.4768 41.1258 22.3883C41.1219 22.336 41.148 22.2555 41.1822 22.2312C41.2171 22.2067 41.2876 22.2182 41.3271 22.2453C41.3954 22.2926 41.4566 22.3585 41.5127 22.426C42.0638 23.0913 42.6089 23.764 43.1649 24.4236C43.6223 24.966 44.0772 25.5138 44.5612 26.0216C44.9744 26.4553 45.4218 26.8446 45.8646 27.2369C46.4534 27.7581 47.053 28.2622 47.6462 28.776C47.7555 28.8706 47.8255 28.9973 47.8374 29.1729H47.8378Z" fill="#FFFCF7"/>
<path d="M23.3826 27.1612C23.3863 26.9889 23.4401 26.8967 23.5287 26.8386C23.8225 26.6463 24.1179 26.4572 24.414 26.2699C25.1724 25.7899 25.9356 25.3207 26.6886 24.829C27.2014 24.4941 27.5739 23.9814 27.893 23.4074C28.078 23.0745 28.2747 22.7507 28.4741 22.4297C28.5354 22.3311 28.618 22.2473 28.7014 22.1738C28.7349 22.1443 28.8122 22.1361 28.8423 22.1621C28.8747 22.1902 28.8933 22.2731 28.8868 22.3267C28.8403 22.7152 28.7066 23.0673 28.5475 23.4068C28.3406 23.848 28.0683 24.232 27.7932 24.6139C27.5138 25.0015 27.2418 25.3966 26.9618 25.7835C26.5393 26.3672 26.0354 26.8402 25.4922 27.2543C25.1862 27.4874 24.8703 27.703 24.5557 27.9198C24.4241 28.0105 24.2789 28.0844 24.1248 28.0299C24.028 27.9957 23.9273 27.9372 23.8539 27.8572C23.718 27.7085 23.5963 27.5399 23.4777 27.3707C23.4288 27.3008 23.4031 27.2079 23.3826 27.1614V27.1612Z" fill="#FFFCF7"/>
<path d="M26.1261 23.2428C25.9735 23.2027 25.8343 23.1824 25.7051 23.1281C25.5304 23.0549 25.4999 22.8915 25.6316 22.738C25.7435 22.6077 25.8709 22.4956 25.9956 22.3818C26.601 21.8296 27.1103 21.1693 27.5618 20.4429C27.6442 20.3103 27.7337 20.184 27.822 20.0567C27.8473 20.0201 27.8772 19.9868 27.9089 19.9579C28.0257 19.8525 28.1554 19.9006 28.1672 20.0726C28.178 20.232 28.1666 20.4016 28.1311 20.5558C28.0497 20.9093 27.9533 21.2586 27.8523 21.6053C27.7473 21.9648 27.5436 22.24 27.2959 22.476C27.053 22.7074 26.8209 22.9586 26.5299 23.1032C26.3983 23.1685 26.2547 23.1996 26.1263 23.2428H26.1261Z" fill="#FFFCF7"/>
</svg>
