<svg width="134" height="40" viewBox="0 0 134 40" fill="none" xmlns="http://www.w3.org/2000/svg">
<path d="M34.5588 24.6558C34.5195 24.9177 34.4806 25.1795 34.4408 25.4411C34.3622 25.9571 34.283 26.4729 34.2042 26.9886C34.1456 27.3723 34.0841 27.7555 34.0292 28.1397C33.9548 28.6606 33.8842 29.1821 33.8139 29.7038C33.7668 30.0532 33.72 30.4027 33.6782 30.7528C33.645 31.0311 33.6227 31.3115 33.5897 31.5902C33.5564 31.8714 33.5261 32.1542 33.4762 32.4317C33.4274 32.7037 33.291 32.784 33.0776 32.6649C32.7575 32.486 32.4419 32.2947 32.1288 32.0986C31.4451 31.6704 30.7473 31.2692 30.0868 30.7953C29.2637 30.2046 28.4697 29.5562 27.668 28.9242C27.0807 28.4614 26.5293 27.9423 25.994 27.3979C25.3905 26.7842 24.9005 26.0712 24.539 25.2267C24.0945 24.1881 23.6591 23.1445 23.298 22.0615C23.0568 21.338 22.8505 20.5979 22.6299 19.8646C22.6147 19.8136 22.6065 19.7583 22.6026 19.704C22.5925 19.565 22.6593 19.4578 22.7788 19.4668C22.9523 19.4796 23.1267 19.5114 23.2963 19.5575C23.8408 19.7053 24.3827 19.8661 24.9266 20.017C25.6077 20.2061 26.29 20.3885 26.9711 20.5776C27.4912 20.7221 28.0116 20.8661 28.5293 21.0223C29.2102 21.2279 29.8891 21.4441 30.5684 21.6576C31.2947 21.8859 32.0207 22.116 32.7467 22.3459C33.0752 22.45 33.4041 22.553 33.7318 22.6605C33.9754 22.7403 34.1394 22.9186 34.2124 23.2126C34.3146 23.6243 34.4244 24.0333 34.527 24.4447C34.5432 24.51 34.5389 24.5823 34.5439 24.6514C34.5488 24.6529 34.5536 24.6545 34.5584 24.6558H34.5588Z" fill="#FFFCF7"/>
<path d="M12.8116 4.76079C13.0781 4.76079 13.3449 4.76013 13.6114 4.76079C13.8668 4.76145 14.0638 4.88675 14.1652 5.16868C14.2797 5.48657 14.3795 5.81195 14.4826 6.13535C14.6218 6.57258 14.7185 7.02327 14.7918 7.48256C14.8564 7.88648 14.9366 8.28687 15.0083 8.68924C15.0459 8.90058 15.0392 9.11191 14.9861 9.31839C14.8406 9.88313 14.7062 10.4558 14.4586 10.9718C14.279 11.3459 14.0623 11.6951 13.8637 12.0565C13.7609 12.2433 13.6546 12.4282 13.5617 12.6219C13.4273 12.902 13.4158 13.2153 13.4145 13.5279C13.4108 14.4096 13.405 15.2911 13.408 16.1729C13.4095 16.6059 13.413 17.0403 13.4435 17.4713C13.4716 17.8689 13.6209 18.2141 13.8627 18.4978C14.0167 18.6785 14.1801 18.8492 14.322 19.0422C14.4852 19.2644 14.4858 19.5227 14.3758 19.779C14.3298 19.886 14.2656 19.9815 14.2138 20.0852C14.1379 20.2374 14.1509 20.3552 14.2531 20.4825C14.2808 20.5172 14.3102 20.55 14.3391 20.5831C14.5256 20.7971 14.5604 20.9667 14.4333 21.2394C14.3292 21.4624 14.2099 21.6802 14.0723 21.8756C13.8335 22.2153 13.749 22.5941 13.7801 23.0287C13.819 23.5734 13.8458 24.1193 13.8698 24.6653C13.9054 25.4791 13.924 26.294 13.9687 27.1069C14.002 27.7149 14.0427 28.3211 14.0426 28.9315C14.0426 29.4596 14.2304 29.9183 14.4928 30.3315C14.7754 30.7764 15.0716 31.209 15.3599 31.6489C15.5902 32.0001 15.7285 32.3965 15.7069 32.8445C15.6942 33.1048 15.6429 33.3638 15.5982 33.6206C15.5038 34.1626 15.4027 34.7029 15.3028 35.2436C15.2871 35.3285 15.2652 35.4123 15.2417 35.4948C15.1643 35.7681 14.9956 35.9133 14.7602 35.9316C14.4982 35.9519 14.2335 35.9746 13.9731 35.9501C13.6155 35.9164 13.2814 35.7796 13.0027 35.4933C12.8715 35.3585 12.8034 35.1789 12.746 34.9923C12.5737 34.4311 12.4164 33.8648 12.3045 33.2811C12.2083 32.7792 12.3088 32.3308 12.5444 31.9185C12.8475 31.3879 13.1602 30.8651 13.4687 30.339C13.5979 30.1188 13.7181 29.8909 13.7386 29.6169C13.7563 29.3798 13.7609 29.1407 13.7624 28.9022C13.765 28.4539 13.7728 28.005 13.7559 27.5576C13.7425 27.2031 13.6926 26.8506 13.6643 26.4965C13.6368 26.1502 13.6057 25.8034 13.5947 25.456C13.5789 24.957 13.5969 24.4558 13.5683 23.9583C13.5428 23.514 13.4798 23.0722 13.4212 22.6314C13.3923 22.4134 13.2643 22.2643 13.117 22.139C12.9916 22.0322 12.867 21.9235 12.7449 21.8114C12.6963 21.7669 12.6515 21.7144 12.6113 21.6592C12.4389 21.4232 12.4342 21.1675 12.5962 20.9224C12.6478 20.8445 12.7036 20.7706 12.7546 20.6923C12.8711 20.5134 12.8799 20.3905 12.7732 20.2017C12.6893 20.053 12.5915 19.9151 12.5007 19.7718C12.4767 19.7338 12.4542 19.6943 12.4335 19.6537C12.3287 19.4475 12.3347 19.2688 12.4692 19.0899C12.5761 18.948 12.6861 18.8031 12.8138 18.6904C13.2097 18.3407 13.3158 17.8605 13.2864 17.3114C13.2592 16.8023 13.2347 16.2927 13.2006 15.784C13.1718 15.3529 13.128 14.9232 13.0958 14.4924C13.0712 14.1637 13.0431 13.8345 13.0374 13.5052C13.0307 13.1233 12.9212 12.7944 12.706 12.5211C12.4568 12.2045 12.1911 11.9058 11.9357 11.5959C11.7475 11.3673 11.5601 11.1377 11.3799 10.9003C11.182 10.6398 11.1277 10.3034 11.0653 9.97755C10.9464 9.35744 10.9523 8.72719 10.9838 8.09671C10.9964 7.84434 11.0139 7.59198 11.0225 7.33939C11.0417 6.76914 11.1429 6.2194 11.3121 5.68687C11.3728 5.49605 11.4361 5.30523 11.5117 5.12236C11.6115 4.88036 11.7846 4.76234 12.0122 4.76145C12.2788 4.76035 12.5456 4.76123 12.8121 4.76123L12.8116 4.76079Z" fill="#FFFCF7"/>
<path d="M16.7741 6.28475C16.7741 5.86583 16.7725 5.44713 16.7754 5.02843C16.776 4.94152 16.7846 4.85107 16.8076 4.76945C16.8192 4.72864 16.8739 4.67702 16.9054 4.68033C16.9366 4.68364 16.9716 4.74496 16.9893 4.78975C17.0038 4.82659 16.9979 4.87622 16.9966 4.92012C16.9727 5.7273 16.9456 6.53425 16.9249 7.34165C16.9165 7.67145 16.9143 8.00213 16.9253 8.33148C16.9296 8.45855 16.9618 8.59334 17.0103 8.70716C17.0969 8.91034 17.3043 8.92622 17.396 8.72812C17.4726 8.56311 17.5148 8.37119 17.5492 8.185C17.5939 7.94301 17.6211 7.69571 17.6459 7.4493C17.6706 7.20201 17.6961 6.95317 17.698 6.70478C17.7017 6.19497 17.6892 5.68472 17.6853 5.17491C17.6846 5.06903 17.6822 4.96093 17.6982 4.85747C17.7172 4.73415 17.7858 4.70349 17.8659 4.78202C17.9312 4.84622 17.9742 4.8321 18.0332 4.77474C18.1324 4.67812 18.2114 4.69886 18.2771 4.83122C18.2989 4.87512 18.3173 4.92299 18.3292 4.97174C18.4805 5.58766 18.6401 6.20137 18.7776 6.82147C18.8798 7.28231 18.9681 7.7491 19.0353 8.21854C19.1041 8.69922 19.1188 9.18675 19.0837 9.67582C19.0496 10.1501 18.9792 10.6151 18.8575 11.0682C18.7888 11.3233 18.6671 11.5425 18.5077 11.7318C18.4225 11.8333 18.3406 11.9401 18.2482 12.0318C17.937 12.3409 17.8525 12.7435 17.8724 13.2043C17.8985 13.8055 17.9091 14.4077 17.9262 15.0093C17.9454 15.6881 17.9528 16.3677 17.988 17.0454C18.0077 17.4266 18.0636 17.8065 18.1211 18.183C18.1764 18.5459 18.144 18.8793 17.9664 19.1881C17.8828 19.3335 17.7983 19.4837 17.8341 19.673C17.8491 19.7531 17.8722 19.8367 17.9102 19.904C18.1298 20.2915 18.1345 20.7224 18.1027 21.1623C18.0813 21.4579 18.0533 21.753 18.0397 22.0491C18.0115 22.6718 17.9841 23.2948 17.9685 23.918C17.9519 24.5822 17.9483 25.2471 17.9415 25.9118C17.939 26.1502 17.9418 26.3889 17.9443 26.6274C17.9485 27.0357 18.0861 27.3647 18.3707 27.5987C18.7158 27.8826 19.0237 28.2157 19.3046 28.5844C19.5259 28.8749 19.6551 29.2248 19.6503 29.609C19.6427 30.2203 19.6004 30.8314 19.5639 31.4416C19.5408 31.8285 19.5088 32.2152 19.4671 32.5999C19.4359 32.8894 19.3856 33.1759 19.3391 33.4629C19.2862 33.7892 19.2305 34.1148 19.1715 34.4393C19.1553 34.5282 19.1282 34.6158 19.0954 34.6983C19.0807 34.7356 19.0405 34.7585 19.0118 34.7879C18.993 34.7457 18.9578 34.7031 18.9584 34.6614C18.9621 34.4084 18.9692 34.1552 18.9844 33.9028C19.0133 33.4276 19.0509 32.9531 19.0805 32.4779C19.1027 32.1237 19.1274 31.7687 19.1309 31.414C19.1322 31.2819 19.0844 31.1453 19.0435 31.0178C19.0181 30.939 18.9539 30.8645 18.8774 30.8929C18.8208 30.9139 18.7551 30.9785 18.735 31.0421C18.6978 31.1599 18.6801 31.2902 18.6732 31.4166C18.6425 31.9805 18.6248 32.5455 18.5904 33.1089C18.5608 33.5911 18.5775 34.0685 18.6431 34.5452C18.6522 34.6112 18.6481 34.6857 18.631 34.7492C18.6107 34.8245 18.5494 34.828 18.5116 34.7612C18.4934 34.729 18.4798 34.6879 18.4772 34.6498C18.4651 34.4817 18.4608 34.3127 18.448 34.1448C18.4078 33.6156 18.3685 33.0861 18.3219 32.5576C18.2888 32.1795 18.251 31.8016 18.2023 31.4261C18.1822 31.2708 18.1382 31.1162 18.0852 30.9715C18.0466 30.8667 17.9584 30.8073 17.856 30.8217C17.7575 30.8354 17.6902 30.9141 17.668 31.0229C17.6399 31.1603 17.6192 31.3028 17.6153 31.4438C17.6023 31.9062 17.5908 32.369 17.5943 32.8316C17.5962 33.0641 17.6205 33.2988 17.6546 33.5282C17.7155 33.9394 17.7924 34.3473 17.8601 34.7572C17.8694 34.8137 17.8696 34.8743 17.8629 34.9312C17.8599 34.9564 17.8318 34.9882 17.8099 34.9957C17.794 35.0012 17.7581 34.9774 17.751 34.9568C17.7235 34.8765 17.6924 34.794 17.6835 34.7093C17.6501 34.389 17.6176 34.068 17.5988 33.7462C17.5682 33.2209 17.4744 32.7113 17.359 32.2053C17.3186 32.0286 17.2944 31.8468 17.2529 31.6708C17.2395 31.6139 17.1946 31.5673 17.1643 31.5161C17.1325 31.5662 17.0848 31.611 17.0716 31.6672C17.0068 31.9406 17.0303 32.2207 17.0437 32.4989C17.0628 32.898 17.0813 33.2973 17.1081 33.6957C17.1289 34.0063 17.1634 34.3155 17.1887 34.6259C17.1939 34.6903 17.192 34.7581 17.1809 34.8212C17.1742 34.8589 17.1472 34.9112 17.1217 34.9184C17.0991 34.9248 17.0537 34.8854 17.0396 34.8529C17.0102 34.7861 16.9899 34.712 16.9748 34.6381C16.8979 34.2615 16.8138 33.8865 16.751 33.5066C16.6684 33.0058 16.5934 32.5027 16.534 31.9975C16.4919 31.6394 16.462 31.2759 16.4621 30.915C16.4621 30.5241 16.502 30.1327 16.5279 29.7421C16.5407 29.5493 16.5494 29.3542 16.5809 29.1652C16.6328 28.8519 16.7933 28.6016 16.9493 28.351C17.0869 28.1299 17.228 27.912 17.3596 27.6861C17.5221 27.4072 17.5777 27.0973 17.5435 26.7584C17.5135 26.4606 17.5025 26.1604 17.4794 25.8615C17.4525 25.5116 17.4206 25.1624 17.3921 24.8127C17.3646 24.4741 17.3359 24.1355 17.3134 23.7964C17.286 23.3872 17.2663 22.9774 17.2401 22.5679C17.2168 22.2066 17.1896 21.8457 17.1634 21.4848C17.1466 21.2549 17.1174 21.0257 17.1142 20.7956C17.1112 20.5735 17.1112 20.3447 17.1518 20.1301C17.2105 19.8195 17.1965 19.5228 17.1243 19.223C17.0656 18.9799 17.0654 18.7312 17.0748 18.4815C17.0867 18.1588 17.0965 17.836 17.1083 17.5133C17.1321 16.8572 17.155 16.201 17.1816 15.5449C17.1974 15.1531 17.2175 14.7618 17.2395 14.3704C17.267 13.8807 17.2955 13.3907 17.3294 12.9014C17.3525 12.567 17.2875 12.2932 17.0318 12.0978C16.6883 11.8355 16.5195 11.4148 16.3652 10.9884C16.1788 10.4731 16.1142 9.92598 16.0632 9.37338C16.0007 8.69614 16.0029 8.01757 16.0145 7.33922C16.0236 6.7928 16.0688 6.24946 16.1829 5.7156C16.2352 5.4714 16.2525 5.21661 16.2874 4.96689C16.2924 4.93137 16.3024 4.89431 16.319 4.86475C16.332 4.84181 16.3585 4.82945 16.3789 4.81225C16.3914 4.83938 16.4162 4.86784 16.4141 4.89343C16.4037 5.02093 16.3992 5.15219 16.3687 5.27352C16.2717 5.66001 16.2672 6.0529 16.2821 6.4502C16.2955 6.80956 16.2965 7.16936 16.3086 7.52872C16.3147 7.71137 16.3309 7.89381 16.3467 8.07603C16.3506 8.12213 16.3614 8.1753 16.3853 8.20905C16.4184 8.25626 16.4664 8.31758 16.5089 8.31869C16.5519 8.31979 16.6191 8.2653 16.6353 8.21655C16.6744 8.09897 16.7056 7.97146 16.7121 7.84594C16.7386 7.32577 16.7546 6.80471 16.7743 6.28409L16.7741 6.28475ZM17.8655 5.7359C17.8717 5.87841 17.875 5.98849 17.8811 6.09813C17.9016 6.4566 17.9249 6.81463 17.9439 7.17311C17.9649 7.57173 17.9809 7.9708 18.0029 8.36943C18.0075 8.45259 18.0215 8.53708 18.0435 8.61606C18.1004 8.82144 18.2832 8.86666 18.396 8.69658C18.4532 8.61054 18.4964 8.50223 18.5198 8.39568C18.5859 8.09434 18.5438 7.79079 18.4979 7.49254C18.3998 6.85721 18.2966 6.22299 18.1842 5.59119C18.1563 5.4339 18.0935 5.28212 18.0312 5.13741C17.9923 5.04763 17.9539 5.05976 17.9217 5.15771C17.9107 5.19146 17.9026 5.22786 17.8996 5.26359C17.8862 5.43147 17.8752 5.59957 17.8657 5.73546L17.8655 5.7359Z" fill="#FFFCF7"/>
<path d="M21.8584 14.4613C21.8683 15.8165 21.8809 17.1716 21.8841 18.5268C21.8845 18.6706 21.8454 18.8235 21.7955 18.9567C21.7121 19.1797 21.7082 19.3796 21.8245 19.5881C22.0932 20.0688 22.1149 20.6088 22.0846 21.1618C22.0678 21.4694 22.0578 21.778 22.0567 22.0862C22.0531 23.0597 22.047 24.0336 22.0585 25.0069C22.0654 25.5972 22.1062 26.1869 22.1259 26.7772C22.1447 27.342 22.162 27.9071 22.1693 28.4723C22.1797 29.2912 22.1907 30.1105 22.1821 30.9294C22.1764 31.4789 22.1531 32.0299 22.1082 32.5768C22.0582 33.1865 21.9751 33.7923 21.9048 34.3996C21.8986 34.453 21.8822 34.5059 21.8646 34.5562C21.8061 34.7208 21.6752 34.7594 21.5678 34.633C21.5083 34.5629 21.4552 34.4737 21.4258 34.3811C21.1661 33.5633 20.9052 32.7458 20.6602 31.9216C20.5587 31.5801 20.488 31.2247 20.4167 30.8718C20.3545 30.5643 20.3819 30.2517 20.4277 29.9442C20.5209 29.3177 20.7585 28.7496 20.9489 28.1624C21.1084 27.6702 21.3057 27.1953 21.4119 26.6784C21.5129 26.1853 21.5373 25.6897 21.5027 25.1856C21.4755 24.7912 21.4472 24.3961 21.4422 24.0007C21.4314 23.1528 21.275 22.3381 21.0837 21.5274C21.0036 21.1883 20.9454 20.8406 20.8938 20.4936C20.8653 20.3017 20.9267 20.1195 21.0066 19.9507C21.0383 19.8839 21.071 19.8175 21.1041 19.7515C21.2136 19.5349 21.211 19.3214 21.1097 19.0981C21.0211 18.9027 20.9284 18.7048 20.8709 18.4952C20.7683 18.1215 20.8301 17.7487 20.9057 17.3741C21.0157 16.8295 21.1192 16.2815 21.1978 15.7296C21.3143 14.9118 21.3659 14.0863 21.351 13.2555C21.3445 12.8948 21.2892 12.5445 21.2307 12.1929C21.1172 11.509 20.8547 10.8925 20.6157 10.2657C20.4176 9.74622 20.2592 9.21193 20.166 8.65248C20.1051 8.28673 20.1034 7.91612 20.1328 7.54661C20.1846 6.89584 20.4055 6.30243 20.5935 5.69842C20.7255 5.27487 20.859 4.85198 20.9988 4.43196C21.0379 4.3146 21.0896 4.19702 21.1568 4.1004C21.2659 3.94333 21.4145 3.97465 21.4742 4.16569C21.5187 4.30798 21.5444 4.45931 21.5706 4.60866C21.6583 5.10766 21.7551 5.60511 21.824 6.10786C21.8724 6.46104 21.9003 6.82172 21.9033 7.17953C21.9098 7.93597 21.8966 8.69263 21.8873 9.44907C21.8765 10.3301 21.8564 11.2112 21.8491 12.0925C21.8426 12.8821 21.8478 13.6718 21.8478 14.4613C21.8515 14.4613 21.8554 14.4613 21.8592 14.4613H21.8584Z" fill="#FFFCF7"/>
<path d="M11.5992 20.174C11.6891 20.1692 11.7872 20.1564 11.841 20.2643C11.8972 20.3772 11.8529 20.4877 11.798 20.5815C11.4233 21.2217 11.0547 21.8674 10.6664 22.4959C10.234 23.1956 9.68263 23.7621 9.1428 24.3407C8.85353 24.6509 8.58362 24.986 8.30402 25.3085C8.05086 25.6004 7.79751 25.8916 7.54137 26.1797C7.49056 26.237 7.42987 26.2844 7.36863 26.3259C7.24149 26.412 7.11882 26.3868 7.04827 26.2377C6.97511 26.0833 6.92039 25.9154 6.86864 25.7486C6.64842 25.0414 6.46786 24.3193 6.33048 23.5834C6.24355 23.1182 6.173 22.6487 6.09314 22.1817C6.07192 22.0573 6.04121 21.9351 6.0185 21.8109C5.95558 21.4692 6.0507 21.3101 6.34147 21.2521C6.68696 21.1831 7.03133 21.1072 7.37645 21.0359C7.885 20.9309 8.3943 20.8303 8.90249 20.7222C9.38591 20.6192 9.86785 20.506 10.3513 20.4026C10.7265 20.3223 11.1028 20.2493 11.479 20.1751C11.518 20.1674 11.5594 20.174 11.5996 20.174H11.5992Z" fill="#FFFCF7"/>
<path d="M30.8378 33.1736C30.8114 33.2693 30.795 33.3712 30.7568 33.4599C30.6198 33.7789 30.4761 34.0941 30.3332 34.4096C30.3099 34.4608 30.2801 34.5089 30.2485 34.5534C30.1561 34.6836 30.0523 34.724 29.9277 34.639C29.7762 34.5358 29.6332 34.4116 29.4957 34.283C29.0344 33.8519 28.5716 33.4222 28.1197 32.9775C27.7044 32.5689 27.3187 32.1204 26.9724 31.6296C26.4985 30.9577 26.0341 30.2764 25.5717 29.5935C25.2807 29.1635 25.0803 28.6676 24.866 28.1825C24.6402 27.6716 24.4124 27.1618 24.1897 26.6489C24.1553 26.5695 24.1326 26.4775 24.1259 26.389C24.122 26.3367 24.148 26.2562 24.1823 26.232C24.2171 26.2075 24.2876 26.2189 24.3271 26.2461C24.3954 26.2933 24.4567 26.3592 24.5127 26.4267C25.0639 27.0921 25.6089 27.7647 26.1649 28.4243C26.6223 28.9667 27.0772 29.5145 27.5612 30.0223C27.9745 30.456 28.4218 30.8454 28.8646 31.2376C29.4534 31.7589 30.053 32.2629 30.6463 32.7767C30.7555 32.8714 30.8255 32.998 30.8374 33.1736H30.8378Z" fill="#FFFCF7"/>
<path d="M6.38257 31.1612C6.38629 30.9889 6.44009 30.8967 6.52869 30.8386C6.82243 30.6463 7.11785 30.4572 7.41401 30.2699C8.17238 29.7899 8.93558 29.3207 9.68855 28.829C10.2014 28.4941 10.5739 27.9814 10.8929 27.4074C11.078 27.0745 11.2747 26.7507 11.4741 26.4297C11.5353 26.3311 11.618 26.2473 11.7014 26.1738C11.7349 26.1443 11.8121 26.1361 11.8423 26.1621C11.8747 26.1902 11.8933 26.2731 11.8868 26.3267C11.8402 26.7152 11.7066 27.0673 11.5474 27.4068C11.3406 27.848 11.0683 28.232 10.7932 28.6139C10.5137 29.0015 10.2418 29.3966 9.96181 29.7835C9.53926 30.3672 9.03536 30.8402 8.49218 31.2543C8.18615 31.4874 7.87026 31.703 7.55567 31.9198C7.42406 32.0105 7.27887 32.0844 7.12474 32.0299C7.02794 31.9957 6.92724 31.9372 6.85389 31.8572C6.71801 31.7085 6.59627 31.5399 6.47769 31.3707C6.42873 31.3008 6.40304 31.2079 6.38257 31.1614V31.1612Z" fill="#FFFCF7"/>
<path d="M9.12599 27.2436C8.97339 27.2034 8.83419 27.1831 8.70504 27.1289C8.5303 27.0557 8.49978 26.8922 8.63153 26.7387C8.74337 26.6084 8.87085 26.4964 8.99553 26.3826C9.6009 25.8303 10.1102 25.1701 10.5617 24.4436C10.6442 24.3111 10.7337 24.1847 10.8219 24.0574C10.8472 24.0208 10.8771 23.9875 10.9088 23.9586C11.0257 23.8532 11.1554 23.9013 11.1671 24.0733C11.1779 24.2328 11.1665 24.4024 11.131 24.5565C11.0497 24.91 10.9533 25.2594 10.8522 25.6061C10.7473 25.9655 10.5435 26.2408 10.2958 26.4767C10.0529 26.7081 9.82087 26.9593 9.52982 27.104C9.39825 27.1692 9.25458 27.2003 9.12617 27.2436H9.12599Z" fill="#FFFCF7"/>
<path d="M54.2 24C53.9733 24 53.82 23.9067 53.74 23.72L51.58 20.34L50.72 21.46V23.56C50.72 23.6533 50.68 23.7533 50.6 23.86C50.5333 23.9533 50.4267 24 50.28 24H50.14C50.0067 24 49.8933 23.96 49.8 23.88C49.72 23.7867 49.68 23.68 49.68 23.56V16.38C49.68 16.26 49.7133 16.1533 49.78 16.06C49.86 15.9667 49.98 15.92 50.14 15.92H50.28C50.4533 15.92 50.5667 15.9733 50.62 16.08C50.6867 16.1867 50.72 16.2867 50.72 16.38V19.8L53.36 16.18C53.4133 16.1133 53.4733 16.0533 53.54 16C53.62 15.9467 53.7067 15.92 53.8 15.92H54.02C54.1533 15.92 54.2467 15.9467 54.3 16C54.3533 16.04 54.3867 16.1 54.4 16.18C54.4133 16.2467 54.4067 16.32 54.38 16.4C54.3667 16.4667 54.3533 16.5267 54.34 16.58L52.24 19.48L54.68 23.34C54.76 23.46 54.78 23.6 54.74 23.76C54.7 23.92 54.5667 24 54.34 24H54.2ZM63.8514 24C63.6781 24 63.5647 23.94 63.5114 23.82C63.2847 23.94 63.0047 24 62.6714 24H61.9714C61.4781 24 61.0781 23.8467 60.7714 23.54C60.4781 23.22 60.3314 22.8 60.3314 22.28V18.52C60.3314 18.4133 60.3647 18.32 60.4314 18.24C60.5114 18.16 60.6114 18.12 60.7314 18.12H60.8914C61.0114 18.12 61.1047 18.1667 61.1714 18.26C61.2381 18.3533 61.2714 18.44 61.2714 18.52V22.26C61.2714 22.8067 61.5047 23.08 61.9714 23.08H62.6714C63.1914 23.08 63.4514 22.8267 63.4514 22.32V18.52C63.4514 18.4133 63.4847 18.32 63.5514 18.24C63.6181 18.16 63.7181 18.12 63.8514 18.12H63.9714C64.1047 18.12 64.1981 18.1667 64.2514 18.26C64.3181 18.3533 64.3514 18.44 64.3514 18.52V23.58C64.3514 23.6733 64.3181 23.7667 64.2514 23.86C64.1981 23.9533 64.1047 24 63.9714 24H63.8514ZM73.5295 24C73.4095 24 73.3162 23.96 73.2495 23.88C73.1829 23.8 73.1495 23.7 73.1495 23.58V19.84C73.1495 19.3067 72.9162 19.04 72.4495 19.04H71.7295C71.2095 19.04 70.9495 19.2933 70.9495 19.8V23.58C70.9495 23.7 70.9162 23.8 70.8495 23.88C70.7829 23.96 70.6895 24 70.5695 24H70.4295C70.2962 24 70.1962 23.9533 70.1295 23.86C70.0762 23.7667 70.0495 23.6733 70.0495 23.58V18.52C70.0495 18.44 70.0762 18.3533 70.1295 18.26C70.1962 18.1667 70.2962 18.12 70.4295 18.12H70.5695C70.7295 18.12 70.8429 18.18 70.9095 18.3C71.1095 18.18 71.3829 18.12 71.7295 18.12H72.4495C72.9429 18.12 73.3362 18.28 73.6295 18.6C73.9229 18.9067 74.0695 19.32 74.0695 19.84V23.58C74.0695 23.7 74.0362 23.8 73.9695 23.88C73.9029 23.96 73.8029 24 73.6695 24H73.5295ZM80.1253 24C80.0453 24 79.9586 23.9667 79.8653 23.9C79.7853 23.8333 79.7453 23.7333 79.7453 23.6V23.48C79.7453 23.2133 79.872 23.08 80.1253 23.08H81.7653C82.032 23.08 82.212 23.0333 82.3053 22.94C82.3986 22.8467 82.4453 22.72 82.4453 22.56V22.26C82.4453 22.0467 82.4186 21.9 82.3653 21.82C82.312 21.7267 82.2053 21.6467 82.0453 21.58L80.7853 21.12C80.3853 20.9733 80.0986 20.7867 79.9253 20.56C79.7653 20.32 79.6853 19.9933 79.6853 19.58C79.6853 19.1 79.812 18.74 80.0653 18.5C80.332 18.2467 80.7053 18.12 81.1853 18.12H82.7253C82.8586 18.12 82.952 18.1667 83.0053 18.26C83.072 18.3533 83.1053 18.44 83.1053 18.52V18.64C83.1053 18.9067 82.9786 19.04 82.7253 19.04H81.1853C80.9453 19.04 80.7853 19.0867 80.7053 19.18C80.6386 19.26 80.6053 19.3467 80.6053 19.44V19.72C80.6053 19.8533 80.632 19.9533 80.6853 20.02C80.7386 20.0733 80.8653 20.14 81.0653 20.22L82.3253 20.72C82.7253 20.88 82.992 21.1067 83.1253 21.4C83.2586 21.68 83.3253 22.0467 83.3253 22.5C83.3253 23.02 83.192 23.4 82.9253 23.64C82.6586 23.88 82.272 24 81.7653 24H80.1253ZM90.978 24C90.498 24 90.1046 23.8467 89.798 23.54C89.4913 23.22 89.338 22.8 89.338 22.28V18.96H88.958C88.8646 18.96 88.778 18.9267 88.698 18.86C88.618 18.7933 88.578 18.6933 88.578 18.56V18.42C88.578 18.3133 88.6113 18.22 88.678 18.14C88.7446 18.06 88.838 18.02 88.958 18.02H89.338V17.44C89.338 17.3467 89.3713 17.2533 89.438 17.16C89.5046 17.0533 89.6046 17 89.738 17H89.878C90.0246 17 90.118 17.06 90.158 17.18C90.2113 17.2867 90.238 17.3733 90.238 17.44V18.02H91.218C91.3513 18.02 91.4446 18.06 91.498 18.14C91.5646 18.22 91.598 18.3133 91.598 18.42V18.56C91.598 18.6933 91.558 18.7933 91.478 18.86C91.398 18.9267 91.3113 18.96 91.218 18.96H90.238V22.28C90.238 22.8 90.4846 23.06 90.978 23.06H91.318C91.438 23.06 91.5313 23.1 91.598 23.18C91.6646 23.26 91.698 23.3533 91.698 23.46V23.6C91.698 23.7333 91.658 23.8333 91.578 23.9C91.498 23.9667 91.4113 24 91.318 24H90.978ZM100.669 24C100.416 24 100.289 23.86 100.289 23.58V19.7C100.289 19.1533 100.056 18.88 99.5894 18.88H98.8694C98.3494 18.88 98.0894 19.14 98.0894 19.66V23.58C98.0894 23.86 97.9627 24 97.7094 24H97.5694C97.436 24 97.336 23.9533 97.2694 23.86C97.216 23.7533 97.1894 23.66 97.1894 23.58V16.32C97.1894 16.2267 97.216 16.1333 97.2694 16.04C97.336 15.9467 97.436 15.9 97.5694 15.9H97.7094C97.9627 15.9 98.0894 16.04 98.0894 16.32V18.1C98.3294 17.9933 98.5894 17.94 98.8694 17.94H99.5894C100.083 17.94 100.476 18.0933 100.769 18.4C101.063 18.7067 101.209 19.14 101.209 19.7V23.58C101.209 23.86 101.076 24 100.809 24H100.669ZM110.384 24C110.211 24 110.098 23.94 110.044 23.82C109.778 23.94 109.504 24 109.224 24H108.504C107.998 24 107.598 23.8467 107.304 23.54C107.024 23.22 106.884 22.8 106.884 22.28V19.84C106.884 19.32 107.024 18.9067 107.304 18.6C107.598 18.28 107.998 18.12 108.504 18.12H110.504C110.638 18.12 110.738 18.16 110.804 18.24C110.871 18.32 110.904 18.4133 110.904 18.52V23.58C110.904 23.7 110.871 23.8 110.804 23.88C110.738 23.96 110.638 24 110.504 24H110.384ZM110.024 19.66C110.024 19.54 110.018 19.4733 110.004 19.46V19.34C110.018 19.2867 110.004 19.2267 109.964 19.16C109.938 19.0933 109.844 19.0533 109.684 19.04C109.671 19.0267 109.638 19.02 109.584 19.02C109.544 19.02 109.518 19.0267 109.504 19.04C109.451 19.04 109.351 19.0467 109.204 19.06C109.071 19.06 108.838 19.0533 108.504 19.04C108.024 19.04 107.784 19.3067 107.784 19.84V22.26C107.784 22.8067 108.024 23.08 108.504 23.08H109.204C109.738 23.08 110.004 22.8267 110.004 22.32C110.004 21.4667 110.004 20.8467 110.004 20.46C110.018 20.0733 110.024 19.8067 110.024 19.66ZM117.082 24C116.949 24 116.849 23.9533 116.782 23.86C116.729 23.7533 116.702 23.66 116.702 23.58V16.32C116.702 16.2267 116.729 16.1333 116.782 16.04C116.849 15.9467 116.949 15.9 117.082 15.9H117.222C117.489 15.9 117.622 16.04 117.622 16.32V23.58C117.622 23.86 117.489 24 117.222 24H117.082Z" fill="#FFFCF7"/>
<rect x="0.5" y="0.5" width="133" height="39" rx="0.5" stroke="#FFFCF7"/>
</svg>
