<svg width="134" height="40" viewBox="0 0 134 40" fill="none" xmlns="http://www.w3.org/2000/svg">
<rect x="0.5" y="0.5" width="133" height="39" rx="0.5" fill="#C1C1C1" stroke="#FFFCF7"/>
<path d="M15.4 25C14.84 25 14.4067 24.8333 14.1 24.5C13.7933 24.1533 13.64 23.68 13.64 23.08V18.84C13.64 18.2667 13.7933 17.8067 14.1 17.46C14.4067 17.1 14.84 16.92 15.4 16.92H16.62C17.18 16.92 17.6133 17.1 17.92 17.46C18.2267 17.8067 18.38 18.2667 18.38 18.84V19.38C18.38 19.5 18.3467 19.6133 18.28 19.72C18.2133 19.8133 18.1067 19.86 17.96 19.86H17.8C17.6267 19.86 17.5133 19.8067 17.46 19.7C17.4067 19.58 17.38 19.4733 17.38 19.38V18.84C17.38 18.24 17.1267 17.94 16.62 17.94H15.4C14.8933 17.94 14.64 18.24 14.64 18.84V23.06C14.64 23.6733 14.8933 23.98 15.4 23.98H16.62C17.1267 23.98 17.38 23.6733 17.38 23.06V21.58H16.22C16.1 21.58 16 21.54 15.92 21.46C15.8533 21.38 15.82 21.28 15.82 21.16V21.02C15.82 20.9267 15.8467 20.8267 15.9 20.72C15.9667 20.6133 16.0733 20.56 16.22 20.56H17.84C18.0133 20.56 18.1467 20.62 18.24 20.74C18.3333 20.8467 18.38 20.98 18.38 21.14V23.08C18.38 23.68 18.2267 24.1533 17.92 24.5C17.6133 24.8333 17.18 25 16.62 25H15.4ZM25.7933 25C25.2866 25 24.8866 24.8467 24.5933 24.54C24.3133 24.22 24.1733 23.8 24.1733 23.28V20.84C24.1733 20.32 24.3133 19.9067 24.5933 19.6C24.8866 19.28 25.2866 19.12 25.7933 19.12H26.6333C27.1266 19.12 27.5199 19.28 27.8133 19.6C28.1066 19.9067 28.2533 20.32 28.2533 20.84V23.28C28.2533 23.8 28.1066 24.22 27.8133 24.54C27.5199 24.8467 27.1266 25 26.6333 25H25.7933ZM27.3333 20.84C27.3333 20.3067 27.0999 20.04 26.6333 20.04H25.7933C25.3133 20.04 25.0733 20.3067 25.0733 20.84V23.26C25.0733 23.8067 25.3133 24.08 25.7933 24.08H26.6333C27.0999 24.08 27.3333 23.8067 27.3333 23.26V20.84ZM44.3037 25C43.8237 25 43.4304 24.8467 43.1237 24.54C42.8171 24.22 42.6637 23.8 42.6637 23.28V19.96H42.2837C42.1904 19.96 42.1037 19.9267 42.0237 19.86C41.9437 19.7933 41.9037 19.6933 41.9037 19.56V19.42C41.9037 19.3133 41.9371 19.22 42.0037 19.14C42.0704 19.06 42.1637 19.02 42.2837 19.02H42.6637V18.44C42.6637 18.3467 42.6971 18.2533 42.7637 18.16C42.8304 18.0533 42.9304 18 43.0637 18H43.2037C43.3504 18 43.4437 18.06 43.4837 18.18C43.5371 18.2867 43.5637 18.3733 43.5637 18.44V19.02H44.5437C44.6771 19.02 44.7704 19.06 44.8237 19.14C44.8904 19.22 44.9237 19.3133 44.9237 19.42V19.56C44.9237 19.6933 44.8837 19.7933 44.8037 19.86C44.7237 19.9267 44.6371 19.96 44.5437 19.96H43.5637V23.28C43.5637 23.8 43.8104 24.06 44.3037 24.06H44.6437C44.7637 24.06 44.8571 24.1 44.9237 24.18C44.9904 24.26 45.0237 24.3533 45.0237 24.46V24.6C45.0237 24.7333 44.9837 24.8333 44.9037 24.9C44.8237 24.9667 44.7371 25 44.6437 25H44.3037ZM52.0152 25C51.5085 25 51.1085 24.8467 50.8152 24.54C50.5352 24.22 50.3952 23.8 50.3952 23.28V20.84C50.3952 20.32 50.5352 19.9067 50.8152 19.6C51.1085 19.28 51.5085 19.12 52.0152 19.12H52.8552C53.3485 19.12 53.7418 19.28 54.0352 19.6C54.3285 19.9067 54.4752 20.32 54.4752 20.84V23.28C54.4752 23.8 54.3285 24.22 54.0352 24.54C53.7418 24.8467 53.3485 25 52.8552 25H52.0152ZM53.5552 20.84C53.5552 20.3067 53.3218 20.04 52.8552 20.04H52.0152C51.5352 20.04 51.2952 20.3067 51.2952 20.84V23.26C51.2952 23.8067 51.5352 24.08 52.0152 24.08H52.8552C53.3218 24.08 53.5552 23.8067 53.5552 23.26V20.84ZM69.0856 25C68.939 25 68.8256 24.96 68.7456 24.88C68.679 24.7867 68.6456 24.68 68.6456 24.56V17.38C68.6456 17.26 68.679 17.1533 68.7456 17.06C68.8123 16.9667 68.9256 16.92 69.0856 16.92H71.5656C72.1256 16.92 72.5656 17.0867 72.8856 17.42C73.2056 17.74 73.3656 18.2 73.3656 18.8V19.54C73.3656 20.1267 73.1923 20.5733 72.8456 20.88C73.019 21.04 73.159 21.24 73.2656 21.48C73.3856 21.72 73.4456 21.9867 73.4456 22.28V23.12C73.4456 23.72 73.279 24.1867 72.9456 24.52C72.6123 24.84 72.179 25 71.6456 25H69.0856ZM72.3656 18.8C72.3656 18.2267 72.099 17.94 71.5656 17.94H69.6656V20.4H71.5656C71.819 20.4 72.0123 20.3333 72.1456 20.2C72.2923 20.0667 72.3656 19.84 72.3656 19.52V18.8ZM72.4056 22.28C72.4056 21.9867 72.3456 21.7733 72.2256 21.64C72.1056 21.4933 71.8856 21.42 71.5656 21.42H69.6656V23.98H71.6456C72.1523 23.98 72.4056 23.6933 72.4056 23.12V22.28ZM82.8537 25C82.6804 25 82.5671 24.94 82.5137 24.82C82.2871 24.94 82.0071 25 81.6737 25H80.9737C80.4804 25 80.0804 24.8467 79.7737 24.54C79.4804 24.22 79.3337 23.8 79.3337 23.28V19.52C79.3337 19.4133 79.3671 19.32 79.4337 19.24C79.5137 19.16 79.6137 19.12 79.7337 19.12H79.8937C80.0137 19.12 80.1071 19.1667 80.1737 19.26C80.2404 19.3533 80.2737 19.44 80.2737 19.52V23.26C80.2737 23.8067 80.5071 24.08 80.9737 24.08H81.6737C82.1937 24.08 82.4537 23.8267 82.4537 23.32V19.52C82.4537 19.4133 82.4871 19.32 82.5537 19.24C82.6204 19.16 82.7204 19.12 82.8537 19.12H82.9737C83.1071 19.12 83.2004 19.1667 83.2537 19.26C83.3204 19.3533 83.3537 19.44 83.3537 19.52V24.58C83.3537 24.6733 83.3204 24.7667 83.2537 24.86C83.2004 24.9533 83.1071 25 82.9737 25H82.8537ZM90.3719 20.04C90.1719 20.04 90.0052 20.12 89.8719 20.28C89.7519 20.4267 89.6919 20.6467 89.6919 20.94V24.58C89.6919 24.6867 89.6585 24.7867 89.5919 24.88C89.5385 24.96 89.4519 25 89.3319 25H89.2119C89.0785 25 88.9852 24.9533 88.9319 24.86C88.8919 24.7533 88.8719 24.66 88.8719 24.58V19.52C88.8719 19.44 88.8919 19.3533 88.9319 19.26C88.9852 19.1667 89.0785 19.12 89.2119 19.12H89.3319C89.4919 19.12 89.5985 19.1867 89.6519 19.32C89.7452 19.2667 89.8519 19.22 89.9719 19.18C90.0919 19.14 90.2319 19.12 90.3919 19.12H90.7319C90.8385 19.12 90.9252 19.1667 90.9919 19.26C91.0585 19.34 91.0919 19.4267 91.0919 19.52V19.64C91.0919 19.7733 91.0519 19.8733 90.9719 19.94C90.9052 20.0067 90.8252 20.04 90.7319 20.04H90.3719ZM97.4397 22.56V23.26C97.4397 23.8067 97.6797 24.08 98.1597 24.08H100.18C100.446 24.08 100.58 24.2133 100.58 24.48V24.6C100.58 24.7333 100.533 24.8333 100.44 24.9C100.36 24.9667 100.273 25 100.18 25H98.1597C97.653 25 97.253 24.8467 96.9597 24.54C96.6797 24.22 96.5397 23.8 96.5397 23.28V20.84C96.5397 20.32 96.6797 19.9067 96.9597 19.6C97.253 19.28 97.653 19.12 98.1597 19.12H99.0197C99.5397 19.12 99.9397 19.28 100.22 19.6C100.5 19.9067 100.64 20.32 100.64 20.84V22.14C100.64 22.2333 100.606 22.3267 100.54 22.42C100.486 22.5133 100.393 22.56 100.26 22.56H97.4397ZM98.1597 20.04C97.6797 20.04 97.4397 20.3067 97.4397 20.84V21.64H99.7397V20.84C99.7397 20.3067 99.4997 20.04 99.0197 20.04H98.1597ZM109.757 25C109.584 25 109.47 24.94 109.417 24.82C109.15 24.94 108.877 25 108.597 25H107.877C107.37 25 106.97 24.8467 106.677 24.54C106.397 24.22 106.257 23.8 106.257 23.28V20.84C106.257 20.32 106.397 19.9067 106.677 19.6C106.97 19.28 107.37 19.12 107.877 19.12H109.877C110.01 19.12 110.11 19.16 110.177 19.24C110.244 19.32 110.277 19.4133 110.277 19.52V24.58C110.277 24.7 110.244 24.8 110.177 24.88C110.11 24.96 110.01 25 109.877 25H109.757ZM109.397 20.66C109.397 20.54 109.39 20.4733 109.377 20.46V20.34C109.39 20.2867 109.377 20.2267 109.337 20.16C109.31 20.0933 109.217 20.0533 109.057 20.04C109.044 20.0267 109.01 20.02 108.957 20.02C108.917 20.02 108.89 20.0267 108.877 20.04C108.824 20.04 108.724 20.0467 108.577 20.06C108.444 20.06 108.21 20.0533 107.877 20.04C107.397 20.04 107.157 20.3067 107.157 20.84V23.26C107.157 23.8067 107.397 24.08 107.877 24.08H108.577C109.11 24.08 109.377 23.8267 109.377 23.32C109.377 22.4667 109.377 21.8467 109.377 21.46C109.39 21.0733 109.397 20.8067 109.397 20.66ZM119.555 25C119.381 25 119.268 24.94 119.215 24.82C118.988 24.94 118.708 25 118.375 25H117.675C117.181 25 116.781 24.8467 116.475 24.54C116.181 24.22 116.035 23.8 116.035 23.28V19.52C116.035 19.4133 116.068 19.32 116.135 19.24C116.215 19.16 116.315 19.12 116.435 19.12H116.595C116.715 19.12 116.808 19.1667 116.875 19.26C116.941 19.3533 116.975 19.44 116.975 19.52V23.26C116.975 23.8067 117.208 24.08 117.675 24.08H118.375C118.895 24.08 119.155 23.8267 119.155 23.32V19.52C119.155 19.4133 119.188 19.32 119.255 19.24C119.321 19.16 119.421 19.12 119.555 19.12H119.675C119.808 19.12 119.901 19.1667 119.955 19.26C120.021 19.3533 120.055 19.44 120.055 19.52V24.58C120.055 24.6733 120.021 24.7667 119.955 24.86C119.901 24.9533 119.808 25 119.675 25H119.555Z" fill="#FFFCF7"/>
</svg>
