<svg width="134" height="40" viewBox="0 0 134 40" fill="none" xmlns="http://www.w3.org/2000/svg">
<rect x="2" y="3" width="130" height="33" fill="#C1C1C1"/>
<path d="M133 0C133.552 0 134 0.447715 134 1V39C134 39.5523 133.552 40 133 40H1C0.447715 40 8.05324e-09 39.5523 0 39V1C0 0.447715 0.447715 0 1 0H133ZM15.4004 16.9199C14.8404 16.9199 14.4063 17.1 14.0996 17.46C13.7931 17.8066 13.6397 18.2667 13.6396 18.8398V23.0801C13.6397 23.6799 13.7931 24.1534 14.0996 24.5C14.4063 24.8333 14.8404 25 15.4004 25H16.6201C17.18 25 17.6133 24.8333 17.9199 24.5C18.2266 24.1533 18.3799 23.68 18.3799 23.0801V21.1396C18.3798 20.9799 18.3334 20.8468 18.2402 20.7402C18.1469 20.6202 18.0132 20.5596 17.8398 20.5596H16.2197C16.0734 20.5596 15.967 20.6134 15.9004 20.7197C15.8471 20.8262 15.8204 20.9263 15.8203 21.0195V21.1602C15.8203 21.2801 15.8533 21.38 15.9199 21.46C15.9999 21.5399 16.0998 21.58 16.2197 21.5801H17.3799V23.0596C17.3799 23.6729 17.1267 23.9804 16.6201 23.9805H15.4004C14.8937 23.9805 14.6396 23.6729 14.6396 23.0596V18.8398C14.6397 18.2399 14.8938 17.9404 15.4004 17.9404H16.6201C17.1267 17.9405 17.3798 18.24 17.3799 18.8398V19.3799C17.3799 19.4732 17.4066 19.5802 17.46 19.7002C17.5133 19.8067 17.6267 19.8603 17.7998 19.8604H17.96C18.1066 19.8604 18.2136 19.8131 18.2803 19.7197C18.3468 19.6132 18.3799 19.4998 18.3799 19.3799V18.8398C18.3799 18.2666 18.2266 17.8066 17.9199 17.46C17.6133 17.1 17.18 16.9199 16.6201 16.9199H15.4004ZM25.793 19.1201C25.2867 19.1202 24.887 19.28 24.5938 19.5996C24.3138 19.9062 24.1729 20.3199 24.1729 20.8398V23.2803C24.1729 23.8001 24.3138 24.2201 24.5938 24.54C24.887 24.8465 25.2866 24.9999 25.793 25H26.6328C27.1261 25 27.5201 24.8467 27.8135 24.54C28.1067 24.2201 28.2529 23.8001 28.2529 23.2803V20.8398C28.2529 20.3199 28.1068 19.9062 27.8135 19.5996C27.5202 19.2797 27.1261 19.1201 26.6328 19.1201H25.793ZM43.0635 18C42.9303 18.0001 42.8303 18.0536 42.7637 18.1602C42.6971 18.2534 42.6641 18.3471 42.6641 18.4404V19.0195H42.2842C42.1643 19.0195 42.0706 19.0598 42.0039 19.1396C41.9373 19.2196 41.9033 19.3133 41.9033 19.4199V19.5596C41.9033 19.6929 41.9434 19.7937 42.0234 19.8604C42.1034 19.927 42.1908 19.96 42.2842 19.96H42.6641V23.2803C42.6641 23.8001 42.8174 24.2201 43.124 24.54C43.4307 24.8466 43.8238 25 44.3037 25H44.6436C44.7367 25 44.8234 24.9668 44.9033 24.9004C44.9833 24.8337 45.0234 24.7329 45.0234 24.5996V24.46C45.0234 24.3533 44.9905 24.2597 44.9238 24.1797C44.8572 24.0998 44.7635 24.0596 44.6436 24.0596H44.3037C43.8105 24.0596 43.5636 23.8001 43.5635 23.2803V19.96H44.5439C44.6371 19.9599 44.7238 19.9269 44.8037 19.8604C44.8837 19.7937 44.9238 19.6929 44.9238 19.5596V19.4199C44.9238 19.3133 44.8909 19.2196 44.8242 19.1396C44.7709 19.0597 44.6772 19.0196 44.5439 19.0195H43.5635V18.4404C43.5635 18.3738 43.5367 18.2864 43.4834 18.1797C43.4434 18.06 43.3504 18.0001 43.2041 18H43.0635ZM52.0156 19.1201C51.5091 19.1201 51.1087 19.2798 50.8154 19.5996C50.5355 19.9062 50.3955 20.3199 50.3955 20.8398V23.2803C50.3956 23.8001 50.5355 24.2201 50.8154 24.54C51.1087 24.8466 51.509 25 52.0156 25H52.8555C53.3486 24.9999 53.7419 24.8466 54.0352 24.54C54.3284 24.2201 54.4755 23.8001 54.4756 23.2803V20.8398C54.4756 20.3199 54.3285 19.9062 54.0352 19.5996C53.7419 19.2798 53.3485 19.1202 52.8555 19.1201H52.0156ZM69.0859 16.9199C68.9262 16.9199 68.8128 16.9666 68.7461 17.0596C68.6795 17.1529 68.6455 17.2599 68.6455 17.3799V24.5596C68.6455 24.6796 68.6794 24.7865 68.7461 24.8799C68.8261 24.9598 68.9394 25 69.0859 25H71.6455C72.1788 25 72.612 24.8395 72.9453 24.5195C73.2786 24.1862 73.4453 23.72 73.4453 23.1201V22.2803C73.4453 21.9871 73.3855 21.7204 73.2656 21.4805C73.159 21.2405 73.019 21.0399 72.8457 20.8799C73.1923 20.5732 73.3652 20.1266 73.3652 19.54V18.7998C73.3652 18.1999 73.2057 17.7399 72.8857 17.4199C72.5657 17.0866 72.1254 16.9199 71.5654 16.9199H69.0859ZM79.7334 19.1201C79.6136 19.1202 79.5135 19.1603 79.4336 19.2402C79.3671 19.3201 79.3341 19.4132 79.334 19.5195V23.2803C79.334 23.8001 79.4802 24.2201 79.7734 24.54C80.0801 24.8467 80.4804 25 80.9736 25H81.6738C82.007 25 82.2871 24.9402 82.5137 24.8203C82.567 24.9401 82.6804 24.9999 82.8535 25H82.9736C83.1069 25 83.2006 24.9536 83.2539 24.8604C83.3206 24.767 83.3535 24.6734 83.3535 24.5801V19.5195C83.3534 19.4397 83.3204 19.3529 83.2539 19.2598C83.2006 19.1665 83.1069 19.1201 82.9736 19.1201H82.8535C82.7203 19.1202 82.6203 19.1603 82.5537 19.2402C82.4872 19.3201 82.4542 19.4131 82.4541 19.5195V23.3203C82.454 23.8267 82.1937 24.0801 81.6738 24.0801H80.9736C80.507 24.08 80.2734 23.8064 80.2734 23.2598V19.5195C80.2733 19.4397 80.2404 19.3529 80.1738 19.2598C80.1072 19.1665 80.0135 19.1201 79.8936 19.1201H79.7334ZM89.2119 19.1201C89.0786 19.1201 88.985 19.1665 88.9316 19.2598C88.8917 19.3529 88.8721 19.4397 88.8721 19.5195V24.5801C88.8721 24.6601 88.8917 24.7537 88.9316 24.8604C88.985 24.9536 89.0787 25 89.2119 25H89.332C89.452 25 89.5385 24.9598 89.5918 24.8799C89.6584 24.7866 89.6914 24.6867 89.6914 24.5801V20.9404C89.6914 20.6471 89.7521 20.4269 89.8721 20.2803C90.0054 20.1203 90.1721 20.04 90.3721 20.04H90.7314C90.8246 20.04 90.9051 20.0069 90.9717 19.9404C91.0517 19.8738 91.0918 19.773 91.0918 19.6396V19.5195C91.0917 19.4264 91.0587 19.3396 90.9922 19.2598C90.9255 19.1664 90.8381 19.1201 90.7314 19.1201H90.3916C90.2317 19.1201 90.0916 19.1397 89.9717 19.1797C89.8518 19.2197 89.7456 19.267 89.6523 19.3203C89.599 19.187 89.4919 19.1202 89.332 19.1201H89.2119ZM98.1602 19.1201C97.6537 19.1201 97.2533 19.2798 96.96 19.5996C96.68 19.9062 96.5401 20.3199 96.54 20.8398V23.2803C96.5401 23.8001 96.68 24.2201 96.96 24.54C97.2533 24.8466 97.6536 25 98.1602 25H100.18C100.273 25 100.36 24.9669 100.439 24.9004C100.533 24.8337 100.58 24.7329 100.58 24.5996V24.4805C100.58 24.2138 100.446 24.0801 100.18 24.0801H98.1602C97.6802 24.0801 97.4395 23.8064 97.4395 23.2598V22.5596H100.26C100.393 22.5596 100.487 22.5132 100.54 22.4199C100.607 22.3267 100.64 22.2329 100.64 22.1396V20.8398C100.64 20.3199 100.5 19.9062 100.22 19.5996C99.9397 19.2797 99.5394 19.1201 99.0195 19.1201H98.1602ZM107.877 19.1201C107.37 19.1201 106.97 19.2797 106.677 19.5996C106.397 19.9062 106.257 20.3199 106.257 20.8398V23.2803C106.257 23.8001 106.397 24.2201 106.677 24.54C106.97 24.8467 107.37 25 107.877 25H108.597C108.877 25 109.15 24.9403 109.417 24.8203C109.47 24.9401 109.584 25 109.757 25H109.877C110.01 25 110.11 24.9599 110.177 24.8799C110.243 24.7999 110.277 24.7 110.277 24.5801V19.5195C110.277 19.4131 110.243 19.3201 110.177 19.2402C110.11 19.1602 110.01 19.1201 109.877 19.1201H107.877ZM116.435 19.1201C116.315 19.1201 116.215 19.1602 116.135 19.2402C116.068 19.3201 116.034 19.4131 116.034 19.5195V23.2803C116.034 23.8001 116.181 24.2201 116.475 24.54C116.781 24.8467 117.182 25 117.675 25H118.375C118.708 24.9999 118.988 24.9403 119.215 24.8203C119.268 24.9401 119.382 25 119.555 25H119.675C119.808 24.9999 119.901 24.9533 119.954 24.8604C120.021 24.767 120.055 24.6734 120.055 24.5801V19.5195C120.055 19.4397 120.021 19.3529 119.954 19.2598C119.901 19.1667 119.808 19.1202 119.675 19.1201H119.555C119.421 19.1201 119.322 19.1603 119.255 19.2402C119.188 19.3201 119.154 19.4131 119.154 19.5195V23.3203C119.154 23.8266 118.895 24.0799 118.375 24.0801H117.675C117.208 24.0801 116.975 23.8064 116.975 23.2598V19.5195C116.974 19.4397 116.942 19.3529 116.875 19.2598C116.808 19.1665 116.715 19.1202 116.595 19.1201H116.435ZM26.6328 20.04C27.0994 20.04 27.333 20.3066 27.333 20.8398V23.2598C27.333 23.8064 27.0995 24.0801 26.6328 24.0801H25.793C25.3132 24.08 25.0732 23.8063 25.0732 23.2598V20.8398C25.0733 20.3067 25.3132 20.0402 25.793 20.04H26.6328ZM52.8555 20.04C53.3219 20.0402 53.5546 20.3067 53.5547 20.8398V23.2598C53.5547 23.8063 53.3219 24.08 52.8555 24.0801H52.0156C51.5356 24.0801 51.2949 23.8064 51.2949 23.2598V20.8398C51.295 20.3066 51.5357 20.04 52.0156 20.04H52.8555ZM108.957 20.0195C109.01 20.0195 109.043 20.0268 109.057 20.04C109.217 20.0534 109.31 20.0935 109.337 20.1602C109.377 20.2267 109.39 20.2866 109.377 20.3398V20.46C109.39 20.4733 109.396 20.5402 109.396 20.6602C109.396 20.8069 109.39 21.0735 109.377 21.46V23.3203C109.377 23.8267 109.11 24.08 108.577 24.0801H107.877C107.397 24.0801 107.157 23.8064 107.157 23.2598V20.8398C107.157 20.3066 107.397 20.04 107.877 20.04C108.21 20.0534 108.444 20.0596 108.577 20.0596C108.724 20.0463 108.824 20.04 108.877 20.04C108.89 20.0267 108.917 20.0195 108.957 20.0195ZM71.5654 21.4199C71.8853 21.4199 72.1055 21.4931 72.2256 21.6396C72.3456 21.773 72.4053 21.9869 72.4053 22.2803V23.1201C72.4052 23.6934 72.1521 23.9805 71.6455 23.9805H69.666V21.4199H71.5654ZM99.0195 20.04C99.4995 20.04 99.7392 20.3066 99.7393 20.8398V21.6396H97.4395V20.8398C97.4395 20.3066 97.6802 20.04 98.1602 20.04H99.0195ZM71.5654 17.9404C72.0987 17.9404 72.3652 18.2266 72.3652 18.7998V19.5195C72.3652 19.8395 72.2922 20.0669 72.1455 20.2002C72.0122 20.3334 71.8187 20.4004 71.5654 20.4004H69.666V17.9404H71.5654Z" fill="#FFFCF7"/>
</svg>
