<svg width="134" height="40" viewBox="0 0 134 40" fill="none" xmlns="http://www.w3.org/2000/svg">
<rect x="2" y="3" width="130" height="33" fill="#C1C1C1"/>
<path d="M133 0C133.552 0 134 0.447715 134 1V39C134 39.5523 133.552 40 133 40H1C0.447715 40 0 39.5523 0 39V1C0 0.447715 0.447715 0 1 0H133ZM117.973 19.1201C117.799 19.1202 117.692 19.187 117.652 19.3203C117.613 19.4533 117.606 19.5598 117.633 19.6396C117.926 20.493 118.233 21.3736 118.553 22.2803C118.873 23.1867 119.166 23.9999 119.433 24.7197C119.339 24.9864 119.226 25.2271 119.093 25.4404C118.959 25.6535 118.753 25.7598 118.473 25.7598H118.213C118.093 25.7598 117.986 25.7937 117.893 25.8604C117.813 25.927 117.772 26.027 117.772 26.1602V26.2803C117.773 26.4401 117.82 26.5463 117.913 26.5996C118.02 26.6663 118.12 26.7002 118.213 26.7002H118.473C119.099 26.7002 119.586 26.4068 119.933 25.8203C119.999 25.7136 120.072 25.5532 120.152 25.3398C120.246 25.1265 120.346 24.8662 120.453 24.5596L122.133 19.6396C122.146 19.5597 122.133 19.4533 122.093 19.3203C122.066 19.187 121.959 19.1201 121.772 19.1201H121.633C121.526 19.1201 121.44 19.1532 121.373 19.2197C121.306 19.273 121.253 19.34 121.213 19.4199L120.713 20.9004L119.873 23.3604L118.533 19.4199C118.507 19.38 118.466 19.3201 118.413 19.2402C118.36 19.1602 118.266 19.1201 118.133 19.1201H117.973ZM13.4004 16.9199C12.8404 16.9199 12.4063 17.1 12.0996 17.46C11.7931 17.8066 11.6397 18.2667 11.6396 18.8398V23.0801C11.6397 23.6799 11.7931 24.1534 12.0996 24.5C12.4063 24.8333 12.8404 25 13.4004 25H14.6201C15.18 25 15.6133 24.8333 15.9199 24.5C16.2266 24.1533 16.3799 23.68 16.3799 23.0801V21.1396C16.3798 20.9799 16.3334 20.8468 16.2402 20.7402C16.1469 20.6202 16.0132 20.5596 15.8398 20.5596H14.2197C14.0734 20.5596 13.967 20.6134 13.9004 20.7197C13.8471 20.8262 13.8204 20.9263 13.8203 21.0195V21.1602C13.8203 21.2801 13.8533 21.38 13.9199 21.46C13.9999 21.5399 14.0998 21.58 14.2197 21.5801H15.3799V23.0596C15.3799 23.6729 15.1267 23.9804 14.6201 23.9805H13.4004C12.8937 23.9805 12.6396 23.6729 12.6396 23.0596V18.8398C12.6397 18.2399 12.8938 17.9404 13.4004 17.9404H14.6201C15.1267 17.9405 15.3798 18.24 15.3799 18.8398V19.3799C15.3799 19.4732 15.4066 19.5802 15.46 19.7002C15.5133 19.8067 15.6267 19.8603 15.7998 19.8604H15.96C16.1066 19.8604 16.2136 19.8131 16.2803 19.7197C16.3468 19.6132 16.3799 19.4998 16.3799 19.3799V18.8398C16.3799 18.2666 16.2266 17.8066 15.9199 17.46C15.6133 17.1 15.18 16.9199 14.6201 16.9199H13.4004ZM23.793 19.1201C23.2867 19.1202 22.887 19.28 22.5938 19.5996C22.3138 19.9062 22.1729 20.3199 22.1729 20.8398V23.2803C22.1729 23.8001 22.3138 24.2201 22.5938 24.54C22.887 24.8465 23.2866 24.9999 23.793 25H24.6328C25.1261 25 25.5201 24.8467 25.8135 24.54C26.1067 24.2201 26.2529 23.8001 26.2529 23.2803V20.8398C26.2529 20.3199 26.1068 19.9062 25.8135 19.5996C25.5202 19.2797 25.1261 19.1201 24.6328 19.1201H23.793ZM41.0635 18C40.9303 18.0001 40.8303 18.0536 40.7637 18.1602C40.6971 18.2534 40.6641 18.3471 40.6641 18.4404V19.0195H40.2842C40.1643 19.0195 40.0706 19.0598 40.0039 19.1396C39.9373 19.2196 39.9033 19.3133 39.9033 19.4199V19.5596C39.9033 19.6929 39.9434 19.7937 40.0234 19.8604C40.1034 19.927 40.1908 19.96 40.2842 19.96H40.6641V23.2803C40.6641 23.8001 40.8174 24.2201 41.124 24.54C41.4307 24.8466 41.8238 25 42.3037 25H42.6436C42.7367 25 42.8234 24.9668 42.9033 24.9004C42.9833 24.8337 43.0234 24.7329 43.0234 24.5996V24.46C43.0234 24.3533 42.9905 24.2597 42.9238 24.1797C42.8572 24.0998 42.7635 24.0596 42.6436 24.0596H42.3037C41.8105 24.0596 41.5636 23.8001 41.5635 23.2803V19.96H42.5439C42.6371 19.9599 42.7238 19.9269 42.8037 19.8604C42.8837 19.7937 42.9238 19.6929 42.9238 19.5596V19.4199C42.9238 19.3133 42.8909 19.2196 42.8242 19.1396C42.7709 19.0597 42.6772 19.0196 42.5439 19.0195H41.5635V18.4404C41.5635 18.3738 41.5367 18.2864 41.4834 18.1797C41.4434 18.06 41.3504 18.0001 41.2041 18H41.0635ZM50.0156 19.1201C49.5091 19.1201 49.1087 19.2798 48.8154 19.5996C48.5355 19.9062 48.3955 20.3199 48.3955 20.8398V23.2803C48.3956 23.8001 48.5355 24.2201 48.8154 24.54C49.1087 24.8466 49.509 25 50.0156 25H50.8555C51.3486 24.9999 51.7419 24.8466 52.0352 24.54C52.3284 24.2201 52.4755 23.8001 52.4756 23.2803V20.8398C52.4756 20.3199 52.3285 19.9062 52.0352 19.5996C51.7419 19.2798 51.3485 19.1202 50.8555 19.1201H50.0156ZM68.2656 16.9199C67.7057 16.9199 67.2725 17.1 66.9658 17.46C66.6592 17.8066 66.5059 18.2666 66.5059 18.8398V23.0801C66.5059 23.68 66.6592 24.1533 66.9658 24.5C67.2725 24.8333 67.7057 25 68.2656 25H69.4854C70.0452 25 70.4785 24.8332 70.7852 24.5C71.0918 24.1533 71.2461 23.68 71.2461 23.0801V21.1396C71.246 20.9798 71.1987 20.8468 71.1055 20.7402C71.0122 20.6203 70.8792 20.5597 70.7061 20.5596H69.0859C68.9394 20.5596 68.8323 20.6132 68.7656 20.7197C68.7124 20.8262 68.6856 20.9263 68.6855 21.0195V21.1602C68.6856 21.28 68.7187 21.38 68.7852 21.46C68.8652 21.54 68.9659 21.5801 69.0859 21.5801H70.2461V23.0596C70.2461 23.6729 69.992 23.9805 69.4854 23.9805H68.2656C67.759 23.9805 67.5059 23.6729 67.5059 23.0596V18.8398C67.5059 18.2399 67.759 17.9404 68.2656 17.9404H69.4854C69.992 17.9404 70.246 18.2399 70.2461 18.8398V19.3799C70.2461 19.4732 70.2719 19.5802 70.3252 19.7002C70.3785 19.8069 70.4927 19.8604 70.666 19.8604H70.8252C70.9719 19.8604 71.0788 19.8131 71.1455 19.7197C71.2121 19.6131 71.2461 19.4998 71.2461 19.3799V18.8398C71.2461 18.2666 71.0918 17.8066 70.7852 17.46C70.4785 17.1001 70.0452 16.9199 69.4854 16.9199H68.2656ZM78.6592 19.1201C78.1526 19.1201 77.7523 19.2798 77.459 19.5996C77.179 19.9062 77.0391 20.3199 77.0391 20.8398V23.2803C77.0391 23.8001 77.179 24.2201 77.459 24.54C77.7523 24.8467 78.1525 25 78.6592 25H79.3789C79.6589 25 79.9326 24.9403 80.1992 24.8203C80.2526 24.9401 80.3659 25 80.5391 25H80.6592C80.7924 24.9999 80.8924 24.9598 80.959 24.8799C81.0256 24.7999 81.0586 24.7 81.0586 24.5801V19.5195C81.0585 19.4131 81.0255 19.3201 80.959 19.2402C80.8924 19.1603 80.7924 19.1202 80.6592 19.1201H78.6592ZM87.2363 16.9004C87.1031 16.9004 87.0032 16.9468 86.9365 17.04C86.8832 17.1334 86.8564 17.227 86.8564 17.3203V24.5801C86.8565 24.6601 86.8832 24.7537 86.9365 24.8604C87.0032 24.9535 87.1032 24.9999 87.2363 25H87.377C87.6433 24.9999 87.7763 24.8599 87.7764 24.5801V17.3203C87.7764 17.0404 87.6434 16.9005 87.377 16.9004H87.2363ZM94.1025 16.9004C93.9692 16.9004 93.8684 16.9467 93.8018 17.04C93.7485 17.1333 93.7227 17.2271 93.7227 17.3203V24.5801C93.7227 24.6601 93.7484 24.7537 93.8018 24.8604C93.8684 24.9537 93.9692 25 94.1025 25H94.2422C94.5088 25 94.6426 24.86 94.6426 24.5801V17.3203C94.6426 17.0403 94.5089 16.9004 94.2422 16.9004H94.1025ZM102.088 19.1201C101.581 19.1201 101.181 19.2797 100.888 19.5996C100.608 19.9062 100.468 20.3199 100.468 20.8398V23.2803C100.468 23.8001 100.608 24.2201 100.888 24.54C101.181 24.8467 101.581 25 102.088 25H104.107C104.201 25 104.288 24.9671 104.368 24.9004C104.461 24.8337 104.508 24.7329 104.508 24.5996V24.4805C104.508 24.2138 104.374 24.0801 104.107 24.0801H102.088C101.608 24.0801 101.368 23.8064 101.368 23.2598V22.5596H104.188C104.321 22.5596 104.414 22.5133 104.468 22.4199C104.534 22.3266 104.567 22.233 104.567 22.1396V20.8398C104.567 20.3199 104.427 19.9062 104.147 19.5996C103.868 19.28 103.468 19.1202 102.948 19.1201H102.088ZM110.465 19.1201C110.332 19.1202 110.238 19.1665 110.185 19.2598C110.145 19.3529 110.125 19.4397 110.125 19.5195V24.5801C110.125 24.6601 110.145 24.7537 110.185 24.8604C110.238 24.9536 110.332 25 110.465 25H110.585C110.705 25 110.791 24.9599 110.845 24.8799C110.911 24.7866 110.945 24.6867 110.945 24.5801V20.9404C110.945 20.6472 111.005 20.4269 111.125 20.2803C111.258 20.1203 111.425 20.04 111.625 20.04H111.985C112.078 20.04 112.158 20.0067 112.225 19.9404C112.305 19.8738 112.345 19.773 112.345 19.6396V19.5195C112.345 19.4264 112.312 19.3396 112.245 19.2598C112.179 19.1666 112.092 19.1202 111.985 19.1201H111.645C111.485 19.1202 111.344 19.1397 111.225 19.1797C111.105 19.2197 110.999 19.267 110.905 19.3203C110.852 19.187 110.745 19.1201 110.585 19.1201H110.465ZM24.6328 20.04C25.0994 20.04 25.333 20.3066 25.333 20.8398V23.2598C25.333 23.8064 25.0995 24.0801 24.6328 24.0801H23.793C23.3132 24.08 23.0732 23.8063 23.0732 23.2598V20.8398C23.0733 20.3067 23.3132 20.0402 23.793 20.04H24.6328ZM50.8555 20.04C51.3219 20.0402 51.5546 20.3067 51.5547 20.8398V23.2598C51.5547 23.8063 51.3219 24.08 50.8555 24.0801H50.0156C49.5356 24.0801 49.2949 23.8064 49.2949 23.2598V20.8398C49.295 20.3066 49.5357 20.04 50.0156 20.04H50.8555ZM79.7393 20.0195C79.7924 20.0196 79.8256 20.0267 79.8389 20.04C79.9989 20.0534 80.0925 20.0935 80.1191 20.1602C80.159 20.2266 80.1724 20.2866 80.1592 20.3398V20.46C80.1724 20.4736 80.1787 20.5405 80.1787 20.6602C80.1787 20.8068 80.1725 21.0735 80.1592 21.46V23.3203C80.1591 23.8266 79.8923 24.0799 79.3594 24.0801H78.6592C78.1792 24.0801 77.9385 23.8064 77.9385 23.2598V20.8398C77.9385 20.3066 78.1792 20.04 78.6592 20.04C78.9924 20.0534 79.2261 20.0596 79.3594 20.0596C79.5058 20.0463 79.6059 20.04 79.6592 20.04C79.6726 20.0268 79.6994 20.0195 79.7393 20.0195ZM102.948 20.04C103.428 20.0402 103.668 20.3068 103.668 20.8398V21.6396H101.368V20.8398C101.368 20.3066 101.608 20.04 102.088 20.04H102.948Z" fill="#FFFCF7"/>
</svg>
