<svg width="102" height="40" viewBox="0 0 102 40" fill="none" xmlns="http://www.w3.org/2000/svg">
<rect x="0.5" y="0.5" width="101" height="39" rx="0.5" fill="#D9D9D9" fill-opacity="0.05" stroke="#FFFCF7"/>
<path d="M26.24 24C26.1067 24 26 23.96 25.92 23.88C25.8533 23.7867 25.82 23.68 25.82 23.56V16.38C25.82 16.2733 25.8533 16.1733 25.92 16.08C25.9867 15.9733 26.0933 15.92 26.24 15.92H29.44C29.5733 15.92 29.6733 15.9667 29.74 16.06C29.82 16.14 29.86 16.24 29.86 16.36V16.5C29.86 16.6467 29.8133 16.76 29.72 16.84C29.6267 16.9067 29.5333 16.94 29.44 16.94H26.8V19.38H29.18C29.2733 19.38 29.3667 19.42 29.46 19.5C29.5533 19.5667 29.6 19.6733 29.6 19.82V19.96C29.6 20.08 29.56 20.1867 29.48 20.28C29.4133 20.36 29.3133 20.4 29.18 20.4H26.8V22.98H29.44C29.5733 22.98 29.6733 23.0267 29.74 23.12C29.82 23.2 29.86 23.3 29.86 23.42V23.56C29.86 23.7067 29.8133 23.82 29.72 23.9C29.6267 23.9667 29.5333 24 29.44 24H26.24ZM38.0464 23.7C38.0197 23.78 37.9731 23.8533 37.9064 23.92C37.8531 23.9733 37.7731 24 37.6664 24H37.4264C37.3064 24 37.2131 23.9667 37.1464 23.9C37.0931 23.82 37.0597 23.7533 37.0464 23.7L35.4864 18.64C35.4597 18.5333 35.4664 18.42 35.5064 18.3C35.5597 18.18 35.6731 18.12 35.8464 18.12H36.0064C36.1264 18.12 36.2131 18.16 36.2664 18.24C36.3331 18.3067 36.3731 18.36 36.3864 18.4L37.5464 22.28C37.6397 21.9467 37.7531 21.56 37.8864 21.12C38.0331 20.6667 38.1664 20.24 38.2864 19.84L38.7264 18.42C38.7264 18.38 38.7531 18.32 38.8064 18.24C38.8731 18.16 38.9664 18.12 39.0864 18.12H39.2464C39.4197 18.12 39.5264 18.18 39.5664 18.3C39.6197 18.42 39.6331 18.5333 39.6064 18.64L38.0464 23.7ZM45.9506 21.56V22.26C45.9506 22.8067 46.1906 23.08 46.6706 23.08H48.6906C48.9573 23.08 49.0906 23.2133 49.0906 23.48V23.6C49.0906 23.7333 49.044 23.8333 48.9506 23.9C48.8706 23.9667 48.784 24 48.6906 24H46.6706C46.164 24 45.764 23.8467 45.4706 23.54C45.1906 23.22 45.0506 22.8 45.0506 22.28V19.84C45.0506 19.32 45.1906 18.9067 45.4706 18.6C45.764 18.28 46.164 18.12 46.6706 18.12H47.5306C48.0506 18.12 48.4506 18.28 48.7306 18.6C49.0106 18.9067 49.1506 19.32 49.1506 19.84V21.14C49.1506 21.2333 49.1173 21.3267 49.0506 21.42C48.9973 21.5133 48.904 21.56 48.7706 21.56H45.9506ZM46.6706 19.04C46.1906 19.04 45.9506 19.3067 45.9506 19.84V20.64H48.2506V19.84C48.2506 19.3067 48.0106 19.04 47.5306 19.04H46.6706ZM58.3678 24C58.2478 24 58.1545 23.96 58.0878 23.88C58.0211 23.8 57.9878 23.7 57.9878 23.58V19.84C57.9878 19.3067 57.7545 19.04 57.2878 19.04H56.5678C56.0478 19.04 55.7878 19.2933 55.7878 19.8V23.58C55.7878 23.7 55.7545 23.8 55.6878 23.88C55.6211 23.96 55.5278 24 55.4078 24H55.2678C55.1345 24 55.0345 23.9533 54.9678 23.86C54.9145 23.7667 54.8878 23.6733 54.8878 23.58V18.52C54.8878 18.44 54.9145 18.3533 54.9678 18.26C55.0345 18.1667 55.1345 18.12 55.2678 18.12H55.4078C55.5678 18.12 55.6811 18.18 55.7478 18.3C55.9478 18.18 56.2211 18.12 56.5678 18.12H57.2878C57.7811 18.12 58.1745 18.28 58.4678 18.6C58.7611 18.9067 58.9078 19.32 58.9078 19.84V23.58C58.9078 23.7 58.8745 23.8 58.8078 23.88C58.7411 23.96 58.6411 24 58.5078 24H58.3678ZM66.7436 24C66.2636 24 65.8703 23.8467 65.5636 23.54C65.2569 23.22 65.1036 22.8 65.1036 22.28V18.96H64.7236C64.6303 18.96 64.5436 18.9267 64.4636 18.86C64.3836 18.7933 64.3436 18.6933 64.3436 18.56V18.42C64.3436 18.3133 64.3769 18.22 64.4436 18.14C64.5103 18.06 64.6036 18.02 64.7236 18.02H65.1036V17.44C65.1036 17.3467 65.1369 17.2533 65.2036 17.16C65.2703 17.0533 65.3703 17 65.5036 17H65.6436C65.7903 17 65.8836 17.06 65.9236 17.18C65.9769 17.2867 66.0036 17.3733 66.0036 17.44V18.02H66.9836C67.1169 18.02 67.2103 18.06 67.2636 18.14C67.3303 18.22 67.3636 18.3133 67.3636 18.42V18.56C67.3636 18.6933 67.3236 18.7933 67.2436 18.86C67.1636 18.9267 67.0769 18.96 66.9836 18.96H66.0036V22.28C66.0036 22.8 66.2503 23.06 66.7436 23.06H67.0836C67.2036 23.06 67.2969 23.1 67.3636 23.18C67.4303 23.26 67.4636 23.3533 67.4636 23.46V23.6C67.4636 23.7333 67.4236 23.8333 67.3436 23.9C67.2636 23.9667 67.1769 24 67.0836 24H66.7436ZM73.255 24C73.175 24 73.0883 23.9667 72.995 23.9C72.915 23.8333 72.875 23.7333 72.875 23.6V23.48C72.875 23.2133 73.0017 23.08 73.255 23.08H74.895C75.1617 23.08 75.3417 23.0333 75.435 22.94C75.5283 22.8467 75.575 22.72 75.575 22.56V22.26C75.575 22.0467 75.5483 21.9 75.495 21.82C75.4417 21.7267 75.335 21.6467 75.175 21.58L73.915 21.12C73.515 20.9733 73.2283 20.7867 73.055 20.56C72.895 20.32 72.815 19.9933 72.815 19.58C72.815 19.1 72.9417 18.74 73.195 18.5C73.4617 18.2467 73.835 18.12 74.315 18.12H75.855C75.9883 18.12 76.0817 18.1667 76.135 18.26C76.2017 18.3533 76.235 18.44 76.235 18.52V18.64C76.235 18.9067 76.1083 19.04 75.855 19.04H74.315C74.075 19.04 73.915 19.0867 73.835 19.18C73.7683 19.26 73.735 19.3467 73.735 19.44V19.72C73.735 19.8533 73.7617 19.9533 73.815 20.02C73.8683 20.0733 73.995 20.14 74.195 20.22L75.455 20.72C75.855 20.88 76.1217 21.1067 76.255 21.4C76.3883 21.68 76.455 22.0467 76.455 22.5C76.455 23.02 76.3217 23.4 76.055 23.64C75.7883 23.88 75.4017 24 74.895 24H73.255Z" fill="#FFFCF7"/>
</svg>
