<svg width="134" height="40" viewBox="0 0 134 40" fill="none" xmlns="http://www.w3.org/2000/svg">
<rect x="0.5" y="0.5" width="133" height="39" rx="0.5" fill="#C1C1C1" stroke="#FFFCF7"/>
<path d="M13.4 25C12.84 25 12.4067 24.8333 12.1 24.5C11.7933 24.1533 11.64 23.68 11.64 23.08V18.84C11.64 18.2667 11.7933 17.8067 12.1 17.46C12.4067 17.1 12.84 16.92 13.4 16.92H14.62C15.18 16.92 15.6133 17.1 15.92 17.46C16.2267 17.8067 16.38 18.2667 16.38 18.84V19.38C16.38 19.5 16.3467 19.6133 16.28 19.72C16.2133 19.8133 16.1067 19.86 15.96 19.86H15.8C15.6267 19.86 15.5133 19.8067 15.46 19.7C15.4067 19.58 15.38 19.4733 15.38 19.38V18.84C15.38 18.24 15.1267 17.94 14.62 17.94H13.4C12.8933 17.94 12.64 18.24 12.64 18.84V23.06C12.64 23.6733 12.8933 23.98 13.4 23.98H14.62C15.1267 23.98 15.38 23.6733 15.38 23.06V21.58H14.22C14.1 21.58 14 21.54 13.92 21.46C13.8533 21.38 13.82 21.28 13.82 21.16V21.02C13.82 20.9267 13.8467 20.8267 13.9 20.72C13.9667 20.6133 14.0733 20.56 14.22 20.56H15.84C16.0133 20.56 16.1467 20.62 16.24 20.74C16.3333 20.8467 16.38 20.98 16.38 21.14V23.08C16.38 23.68 16.2267 24.1533 15.92 24.5C15.6133 24.8333 15.18 25 14.62 25H13.4ZM23.7933 25C23.2866 25 22.8866 24.8467 22.5933 24.54C22.3133 24.22 22.1733 23.8 22.1733 23.28V20.84C22.1733 20.32 22.3133 19.9067 22.5933 19.6C22.8866 19.28 23.2866 19.12 23.7933 19.12H24.6333C25.1266 19.12 25.5199 19.28 25.8133 19.6C26.1066 19.9067 26.2533 20.32 26.2533 20.84V23.28C26.2533 23.8 26.1066 24.22 25.8133 24.54C25.5199 24.8467 25.1266 25 24.6333 25H23.7933ZM25.3333 20.84C25.3333 20.3067 25.0999 20.04 24.6333 20.04H23.7933C23.3133 20.04 23.0733 20.3067 23.0733 20.84V23.26C23.0733 23.8067 23.3133 24.08 23.7933 24.08H24.6333C25.0999 24.08 25.3333 23.8067 25.3333 23.26V20.84ZM42.3037 25C41.8237 25 41.4304 24.8467 41.1237 24.54C40.8171 24.22 40.6637 23.8 40.6637 23.28V19.96H40.2837C40.1904 19.96 40.1037 19.9267 40.0237 19.86C39.9437 19.7933 39.9037 19.6933 39.9037 19.56V19.42C39.9037 19.3133 39.9371 19.22 40.0037 19.14C40.0704 19.06 40.1637 19.02 40.2837 19.02H40.6637V18.44C40.6637 18.3467 40.6971 18.2533 40.7637 18.16C40.8304 18.0533 40.9304 18 41.0637 18H41.2037C41.3504 18 41.4437 18.06 41.4837 18.18C41.5371 18.2867 41.5637 18.3733 41.5637 18.44V19.02H42.5437C42.6771 19.02 42.7704 19.06 42.8237 19.14C42.8904 19.22 42.9237 19.3133 42.9237 19.42V19.56C42.9237 19.6933 42.8837 19.7933 42.8037 19.86C42.7237 19.9267 42.6371 19.96 42.5437 19.96H41.5637V23.28C41.5637 23.8 41.8104 24.06 42.3037 24.06H42.6437C42.7637 24.06 42.8571 24.1 42.9237 24.18C42.9904 24.26 43.0237 24.3533 43.0237 24.46V24.6C43.0237 24.7333 42.9837 24.8333 42.9037 24.9C42.8237 24.9667 42.7371 25 42.6437 25H42.3037ZM50.0152 25C49.5085 25 49.1085 24.8467 48.8152 24.54C48.5352 24.22 48.3952 23.8 48.3952 23.28V20.84C48.3952 20.32 48.5352 19.9067 48.8152 19.6C49.1085 19.28 49.5085 19.12 50.0152 19.12H50.8552C51.3485 19.12 51.7418 19.28 52.0352 19.6C52.3285 19.9067 52.4752 20.32 52.4752 20.84V23.28C52.4752 23.8 52.3285 24.22 52.0352 24.54C51.7418 24.8467 51.3485 25 50.8552 25H50.0152ZM51.5552 20.84C51.5552 20.3067 51.3218 20.04 50.8552 20.04H50.0152C49.5352 20.04 49.2952 20.3067 49.2952 20.84V23.26C49.2952 23.8067 49.5352 24.08 50.0152 24.08H50.8552C51.3218 24.08 51.5552 23.8067 51.5552 23.26V20.84ZM68.2656 25C67.7056 25 67.2723 24.8333 66.9656 24.5C66.659 24.1533 66.5056 23.68 66.5056 23.08V18.84C66.5056 18.2667 66.659 17.8067 66.9656 17.46C67.2723 17.1 67.7056 16.92 68.2656 16.92H69.4856C70.0456 16.92 70.479 17.1 70.7856 17.46C71.0923 17.8067 71.2456 18.2667 71.2456 18.84V19.38C71.2456 19.5 71.2123 19.6133 71.1456 19.72C71.079 19.8133 70.9723 19.86 70.8256 19.86H70.6656C70.4923 19.86 70.379 19.8067 70.3256 19.7C70.2723 19.58 70.2456 19.4733 70.2456 19.38V18.84C70.2456 18.24 69.9923 17.94 69.4856 17.94H68.2656C67.759 17.94 67.5056 18.24 67.5056 18.84V23.06C67.5056 23.6733 67.759 23.98 68.2656 23.98H69.4856C69.9923 23.98 70.2456 23.6733 70.2456 23.06V21.58H69.0856C68.9656 21.58 68.8656 21.54 68.7856 21.46C68.719 21.38 68.6856 21.28 68.6856 21.16V21.02C68.6856 20.9267 68.7123 20.8267 68.7656 20.72C68.8323 20.6133 68.939 20.56 69.0856 20.56H70.7056C70.879 20.56 71.0123 20.62 71.1056 20.74C71.199 20.8467 71.2456 20.98 71.2456 21.14V23.08C71.2456 23.68 71.0923 24.1533 70.7856 24.5C70.479 24.8333 70.0456 25 69.4856 25H68.2656ZM80.5389 25C80.3656 25 80.2522 24.94 80.1989 24.82C79.9322 24.94 79.6589 25 79.3789 25H78.6589C78.1522 25 77.7522 24.8467 77.4589 24.54C77.1789 24.22 77.0389 23.8 77.0389 23.28V20.84C77.0389 20.32 77.1789 19.9067 77.4589 19.6C77.7522 19.28 78.1522 19.12 78.6589 19.12H80.6589C80.7922 19.12 80.8922 19.16 80.9589 19.24C81.0256 19.32 81.0589 19.4133 81.0589 19.52V24.58C81.0589 24.7 81.0256 24.8 80.9589 24.88C80.8922 24.96 80.7922 25 80.6589 25H80.5389ZM80.1789 20.66C80.1789 20.54 80.1722 20.4733 80.1589 20.46V20.34C80.1722 20.2867 80.1589 20.2267 80.1189 20.16C80.0922 20.0933 79.9989 20.0533 79.8389 20.04C79.8256 20.0267 79.7922 20.02 79.7389 20.02C79.6989 20.02 79.6722 20.0267 79.6589 20.04C79.6056 20.04 79.5056 20.0467 79.3589 20.06C79.2256 20.06 78.9922 20.0533 78.6589 20.04C78.1789 20.04 77.9389 20.3067 77.9389 20.84V23.26C77.9389 23.8067 78.1789 24.08 78.6589 24.08H79.3589C79.8922 24.08 80.1589 23.8267 80.1589 23.32C80.1589 22.4667 80.1589 21.8467 80.1589 21.46C80.1722 21.0733 80.1789 20.8067 80.1789 20.66ZM87.2366 25C87.1032 25 87.0032 24.9533 86.9366 24.86C86.8832 24.7533 86.8566 24.66 86.8566 24.58V17.32C86.8566 17.2267 86.8832 17.1333 86.9366 17.04C87.0032 16.9467 87.1032 16.9 87.2366 16.9H87.3766C87.6432 16.9 87.7766 17.04 87.7766 17.32V24.58C87.7766 24.86 87.6432 25 87.3766 25H87.2366ZM94.1022 25C93.9689 25 93.8689 24.9533 93.8022 24.86C93.7489 24.7533 93.7222 24.66 93.7222 24.58V17.32C93.7222 17.2267 93.7489 17.1333 93.8022 17.04C93.8689 16.9467 93.9689 16.9 94.1022 16.9H94.2422C94.5089 16.9 94.6422 17.04 94.6422 17.32V24.58C94.6422 24.86 94.5089 25 94.2422 25H94.1022ZM101.368 22.56V23.26C101.368 23.8067 101.608 24.08 102.088 24.08H104.108C104.374 24.08 104.508 24.2133 104.508 24.48V24.6C104.508 24.7333 104.461 24.8333 104.368 24.9C104.288 24.9667 104.201 25 104.108 25H102.088C101.581 25 101.181 24.8467 100.888 24.54C100.608 24.22 100.468 23.8 100.468 23.28V20.84C100.468 20.32 100.608 19.9067 100.888 19.6C101.181 19.28 101.581 19.12 102.088 19.12H102.948C103.468 19.12 103.868 19.28 104.148 19.6C104.428 19.9067 104.568 20.32 104.568 20.84V22.14C104.568 22.2333 104.534 22.3267 104.468 22.42C104.414 22.5133 104.321 22.56 104.188 22.56H101.368ZM102.088 20.04C101.608 20.04 101.368 20.3067 101.368 20.84V21.64H103.668V20.84C103.668 20.3067 103.428 20.04 102.948 20.04H102.088ZM111.625 20.04C111.425 20.04 111.258 20.12 111.125 20.28C111.005 20.4267 110.945 20.6467 110.945 20.94V24.58C110.945 24.6867 110.912 24.7867 110.845 24.88C110.792 24.96 110.705 25 110.585 25H110.465C110.332 25 110.238 24.9533 110.185 24.86C110.145 24.7533 110.125 24.66 110.125 24.58V19.52C110.125 19.44 110.145 19.3533 110.185 19.26C110.238 19.1667 110.332 19.12 110.465 19.12H110.585C110.745 19.12 110.852 19.1867 110.905 19.32C110.998 19.2667 111.105 19.22 111.225 19.18C111.345 19.14 111.485 19.12 111.645 19.12H111.985C112.092 19.12 112.178 19.1667 112.245 19.26C112.312 19.34 112.345 19.4267 112.345 19.52V19.64C112.345 19.7733 112.305 19.8733 112.225 19.94C112.158 20.0067 112.078 20.04 111.985 20.04H111.625ZM120.453 24.56C120.346 24.8667 120.246 25.1267 120.153 25.34C120.073 25.5533 119.999 25.7133 119.933 25.82C119.586 26.4067 119.099 26.7 118.473 26.7H118.213C118.119 26.7 118.019 26.6667 117.913 26.6C117.819 26.5467 117.773 26.44 117.773 26.28V26.16C117.773 26.0267 117.813 25.9267 117.893 25.86C117.986 25.7933 118.093 25.76 118.213 25.76H118.473C118.753 25.76 118.959 25.6533 119.093 25.44C119.226 25.2267 119.339 24.9867 119.433 24.72C119.166 24 118.873 23.1867 118.553 22.28C118.233 21.3733 117.926 20.4933 117.633 19.64C117.606 19.56 117.613 19.4533 117.653 19.32C117.693 19.1867 117.799 19.12 117.973 19.12H118.133C118.266 19.12 118.359 19.16 118.413 19.24C118.466 19.32 118.506 19.38 118.533 19.42L119.873 23.36L120.713 20.9L121.213 19.42C121.253 19.34 121.306 19.2733 121.373 19.22C121.439 19.1533 121.526 19.12 121.633 19.12H121.773C121.959 19.12 122.066 19.1867 122.093 19.32C122.133 19.4533 122.146 19.56 122.133 19.64L120.453 24.56Z" fill="#FFFCF7"/>
</svg>
