<svg width="102" height="40" viewBox="0 0 102 40" fill="none" xmlns="http://www.w3.org/2000/svg">
<path d="M101 0C101.552 0 102 0.447715 102 1V39C102 39.5523 101.552 40 101 40H1C0.447715 40 8.0532e-09 39.5523 0 39V1C0 0.447715 0.447715 1.91263e-08 1 0H101ZM26.2402 15.9199C26.0936 15.9199 25.9866 15.9734 25.9199 16.0801C25.8533 16.1734 25.8203 16.2733 25.8203 16.3799V23.5596C25.8203 23.6795 25.8533 23.7866 25.9199 23.8799C25.9999 23.9599 26.1069 24 26.2402 24H29.4404C29.5335 23.9999 29.6267 23.9668 29.7197 23.9004C29.8131 23.8204 29.8604 23.7062 29.8604 23.5596V23.4199C29.8603 23.3 29.8201 23.2001 29.7402 23.1201C29.6736 23.0269 29.5735 22.9806 29.4404 22.9805H26.7998V20.4004H29.1797C29.313 20.4004 29.4138 20.3603 29.4805 20.2803C29.5604 20.187 29.5996 20.0799 29.5996 19.96V19.8203C29.5996 19.6736 29.5533 19.5667 29.46 19.5C29.3666 19.42 29.273 19.3799 29.1797 19.3799H26.7998V16.9404H29.4404C29.5336 16.9403 29.6266 16.9064 29.7197 16.8398C29.8131 16.7598 29.8604 16.6467 29.8604 16.5V16.3604C29.8604 16.2404 29.8202 16.1396 29.7402 16.0596C29.6736 15.9665 29.5735 15.92 29.4404 15.9199H26.2402ZM35.8467 18.1201C35.6735 18.1201 35.5602 18.18 35.5068 18.2998C35.4669 18.4197 35.4598 18.5331 35.4863 18.6396L37.0469 23.7002C37.0603 23.7535 37.0933 23.8205 37.1465 23.9004C37.2131 23.9669 37.3069 24 37.4268 24H37.666C37.7727 24 37.8529 23.9732 37.9062 23.9199C37.9729 23.8533 38.0202 23.7802 38.0469 23.7002L39.6064 18.6396C39.633 18.5331 39.6197 18.4197 39.5664 18.2998C39.5264 18.1799 39.4193 18.1201 39.2461 18.1201H39.0859C38.9662 18.1202 38.8732 18.1603 38.8066 18.2402C38.7534 18.3202 38.7266 18.3799 38.7266 18.4199L38.2861 19.8398C38.1661 20.2398 38.0334 20.6668 37.8867 21.1201C37.7534 21.5601 37.6402 21.9469 37.5469 22.2803L36.3867 18.4004C36.3734 18.3604 36.3331 18.3068 36.2666 18.2402C36.2133 18.1603 36.1266 18.1202 36.0068 18.1201H35.8467ZM46.6709 18.1201C46.1644 18.1201 45.764 18.2798 45.4707 18.5996C45.1907 18.9062 45.0508 19.3199 45.0508 19.8398V22.2803C45.0508 22.8001 45.1908 23.2201 45.4707 23.54C45.764 23.8467 46.1643 24 46.6709 24H48.6904C48.7836 24 48.8703 23.9668 48.9502 23.9004C49.0435 23.8337 49.0908 23.7329 49.0908 23.5996V23.4805C49.0908 23.2138 48.9571 23.0801 48.6904 23.0801H46.6709C46.1909 23.0801 45.9502 22.8064 45.9502 22.2598V21.5596H48.7705C48.9038 21.5596 48.9974 21.5133 49.0508 21.4199C49.1174 21.3266 49.1504 21.2329 49.1504 21.1396V19.8398C49.1504 19.3199 49.0104 18.9062 48.7305 18.5996C48.4505 18.2798 48.0501 18.1201 47.5303 18.1201H46.6709ZM55.2676 18.1201C55.1344 18.1202 55.0344 18.1666 54.9678 18.2598C54.9145 18.3529 54.8878 18.4397 54.8877 18.5195V23.5801C54.8877 23.6734 54.9145 23.767 54.9678 23.8604C55.0344 23.9535 55.1345 23.9999 55.2676 24H55.4082C55.528 23.9999 55.6209 23.9597 55.6875 23.8799C55.7542 23.7999 55.7881 23.7 55.7881 23.5801V19.7998C55.7882 19.2934 56.0477 19.0402 56.5674 19.04H57.2881C57.7545 19.0401 57.9882 19.3067 57.9883 19.8398V23.5801C57.9883 23.7 58.0213 23.7999 58.0879 23.8799C58.1546 23.9599 58.2482 24 58.3682 24H58.5078C58.6411 24 58.741 23.9599 58.8076 23.8799C58.8743 23.7999 58.9082 23.7 58.9082 23.5801V19.8398C58.9082 19.3199 58.7611 18.9062 58.4678 18.5996C58.1745 18.2798 57.7812 18.1202 57.2881 18.1201H56.5674C56.2211 18.1202 55.9479 18.18 55.748 18.2998C55.6814 18.1799 55.568 18.1202 55.4082 18.1201H55.2676ZM65.5039 17C65.3706 17 65.2698 17.0535 65.2031 17.1602C65.1366 17.2534 65.1035 17.3472 65.1035 17.4404V18.0195H64.7236C64.6037 18.0195 64.51 18.0597 64.4434 18.1396C64.3767 18.2196 64.3438 18.3133 64.3438 18.4199V18.5596C64.3438 18.6929 64.3839 18.7937 64.4639 18.8604C64.5438 18.9268 64.6304 18.96 64.7236 18.96H65.1035V22.2803C65.1036 22.8001 65.2569 23.2201 65.5635 23.54C65.87 23.8466 66.2634 23.9999 66.7432 24H67.084C67.1771 23.9999 67.2639 23.9669 67.3438 23.9004C67.4238 23.8337 67.4639 23.7329 67.4639 23.5996V23.46C67.4639 23.3533 67.4299 23.2597 67.3633 23.1797C67.2967 23.1 67.2036 23.0597 67.084 23.0596H66.7432C66.2502 23.0594 66.004 22.7999 66.0039 22.2803V18.96H66.9834C67.0766 18.96 67.1633 18.9268 67.2432 18.8604C67.3232 18.7937 67.3633 18.6929 67.3633 18.5596V18.4199C67.3633 18.3133 67.3303 18.2196 67.2637 18.1396C67.2103 18.0598 67.1166 18.0195 66.9834 18.0195H66.0039V17.4404C66.0039 17.3738 65.9772 17.2864 65.9238 17.1797C65.8838 17.0598 65.7901 17 65.6436 17H65.5039ZM74.3154 18.1201C73.8355 18.1201 73.462 18.2468 73.1953 18.5C72.942 18.74 72.8154 19.1001 72.8154 19.5801C72.8154 19.9931 72.8949 20.3196 73.0547 20.5596C73.228 20.7862 73.515 20.9734 73.915 21.1201L75.1748 21.5801C75.3348 21.6467 75.4418 21.727 75.4951 21.8203C75.5483 21.9003 75.5752 22.0468 75.5752 22.2598V22.5596C75.5752 22.7196 75.5279 22.8471 75.4346 22.9404C75.3411 23.0335 75.1608 23.0801 74.8945 23.0801H73.2549C73.0016 23.0801 72.875 23.2138 72.875 23.4805V23.5996C72.875 23.7329 72.9151 23.8337 72.9951 23.9004C73.0883 23.9669 73.175 24 73.2549 24H74.8945C75.4012 24 75.788 23.8796 76.0547 23.6396C76.3214 23.3996 76.4551 23.02 76.4551 22.5C76.4551 22.0468 76.3881 21.6804 76.2549 21.4004C76.1216 21.1071 75.8551 20.8797 75.4551 20.7197L74.1953 20.2197C73.9953 20.1397 73.8688 20.0729 73.8154 20.0195C73.7621 19.9529 73.7354 19.853 73.7354 19.7197V19.4404C73.7354 19.3471 73.7683 19.2597 73.835 19.1797C73.915 19.0865 74.0756 19.04 74.3154 19.04H75.8555C76.1085 19.0399 76.2354 18.9062 76.2354 18.6396V18.5195C76.2352 18.4397 76.2013 18.3529 76.1348 18.2598C76.0815 18.1667 75.9884 18.1202 75.8555 18.1201H74.3154ZM47.5303 19.04C48.0102 19.04 48.2509 19.3066 48.251 19.8398V20.6396H45.9502V19.8398C45.9502 19.3066 46.1909 19.04 46.6709 19.04H47.5303Z" fill="#FFFCF7"/>
</svg>
