<svg width="141" height="40" viewBox="0 0 141 40" fill="none" xmlns="http://www.w3.org/2000/svg">
<rect x="0.5" y="0.5" width="133" height="39" rx="0.5" fill="#C1C1C1" stroke="#FFFCF7"/>
<path d="M7.4 25C6.84 25 6.40667 24.8333 6.1 24.5C5.79333 24.1533 5.64 23.68 5.64 23.08V18.84C5.64 18.2667 5.79333 17.8067 6.1 17.46C6.40667 17.1 6.84 16.92 7.4 16.92H8.62C9.18 16.92 9.61333 17.1 9.92 17.46C10.2267 17.8067 10.38 18.2667 10.38 18.84V19.38C10.38 19.5 10.3467 19.6133 10.28 19.72C10.2133 19.8133 10.1067 19.86 9.96 19.86H9.8C9.62667 19.86 9.51333 19.8067 9.46 19.7C9.40667 19.58 9.38 19.4733 9.38 19.38V18.84C9.38 18.24 9.12667 17.94 8.62 17.94H7.4C6.89333 17.94 6.64 18.24 6.64 18.84V23.06C6.64 23.6733 6.89333 23.98 7.4 23.98H8.62C9.12667 23.98 9.38 23.6733 9.38 23.06V21.58H8.22C8.1 21.58 8 21.54 7.92 21.46C7.85333 21.38 7.82 21.28 7.82 21.16V21.02C7.82 20.9267 7.84667 20.8267 7.9 20.72C7.96667 20.6133 8.07333 20.56 8.22 20.56H9.84C10.0133 20.56 10.1467 20.62 10.24 20.74C10.3333 20.8467 10.38 20.98 10.38 21.14V23.08C10.38 23.68 10.2267 24.1533 9.92 24.5C9.61333 24.8333 9.18 25 8.62 25H7.4ZM17.7933 25C17.2866 25 16.8866 24.8467 16.5933 24.54C16.3133 24.22 16.1733 23.8 16.1733 23.28V20.84C16.1733 20.32 16.3133 19.9067 16.5933 19.6C16.8866 19.28 17.2866 19.12 17.7933 19.12H18.6333C19.1266 19.12 19.5199 19.28 19.8133 19.6C20.1066 19.9067 20.2533 20.32 20.2533 20.84V23.28C20.2533 23.8 20.1066 24.22 19.8133 24.54C19.5199 24.8467 19.1266 25 18.6333 25H17.7933ZM19.3333 20.84C19.3333 20.3067 19.0999 20.04 18.6333 20.04H17.7933C17.3133 20.04 17.0733 20.3067 17.0733 20.84V23.26C17.0733 23.8067 17.3133 24.08 17.7933 24.08H18.6333C19.0999 24.08 19.3333 23.8067 19.3333 23.26V20.84ZM36.3037 25C35.8237 25 35.4304 24.8467 35.1237 24.54C34.8171 24.22 34.6637 23.8 34.6637 23.28V19.96H34.2837C34.1904 19.96 34.1037 19.9267 34.0237 19.86C33.9437 19.7933 33.9037 19.6933 33.9037 19.56V19.42C33.9037 19.3133 33.9371 19.22 34.0037 19.14C34.0704 19.06 34.1637 19.02 34.2837 19.02H34.6637V18.44C34.6637 18.3467 34.6971 18.2533 34.7637 18.16C34.8304 18.0533 34.9304 18 35.0637 18H35.2037C35.3504 18 35.4437 18.06 35.4837 18.18C35.5371 18.2867 35.5637 18.3733 35.5637 18.44V19.02H36.5437C36.6771 19.02 36.7704 19.06 36.8237 19.14C36.8904 19.22 36.9237 19.3133 36.9237 19.42V19.56C36.9237 19.6933 36.8837 19.7933 36.8037 19.86C36.7237 19.9267 36.6371 19.96 36.5437 19.96H35.5637V23.28C35.5637 23.8 35.8104 24.06 36.3037 24.06H36.6437C36.7637 24.06 36.8571 24.1 36.9237 24.18C36.9904 24.26 37.0237 24.3533 37.0237 24.46V24.6C37.0237 24.7333 36.9837 24.8333 36.9037 24.9C36.8237 24.9667 36.7371 25 36.6437 25H36.3037ZM44.0152 25C43.5085 25 43.1085 24.8467 42.8152 24.54C42.5352 24.22 42.3952 23.8 42.3952 23.28V20.84C42.3952 20.32 42.5352 19.9067 42.8152 19.6C43.1085 19.28 43.5085 19.12 44.0152 19.12H44.8552C45.3485 19.12 45.7418 19.28 46.0352 19.6C46.3285 19.9067 46.4752 20.32 46.4752 20.84V23.28C46.4752 23.8 46.3285 24.22 46.0352 24.54C45.7418 24.8467 45.3485 25 44.8552 25H44.0152ZM45.5552 20.84C45.5552 20.3067 45.3218 20.04 44.8552 20.04H44.0152C43.5352 20.04 43.2952 20.3067 43.2952 20.84V23.26C43.2952 23.8067 43.5352 24.08 44.0152 24.08H44.8552C45.3218 24.08 45.5552 23.8067 45.5552 23.26V20.84ZM65.0656 25C64.839 25 64.6856 24.9067 64.6056 24.72L62.4456 21.34L61.5856 22.46V24.56C61.5856 24.6533 61.5456 24.7533 61.4656 24.86C61.399 24.9533 61.2923 25 61.1456 25H61.0056C60.8723 25 60.759 24.96 60.6656 24.88C60.5856 24.7867 60.5456 24.68 60.5456 24.56V17.38C60.5456 17.26 60.579 17.1533 60.6456 17.06C60.7256 16.9667 60.8456 16.92 61.0056 16.92H61.1456C61.319 16.92 61.4323 16.9733 61.4856 17.08C61.5523 17.1867 61.5856 17.2867 61.5856 17.38V20.8L64.2256 17.18C64.279 17.1133 64.339 17.0533 64.4056 17C64.4856 16.9467 64.5723 16.92 64.6656 16.92H64.8856C65.019 16.92 65.1123 16.9467 65.1656 17C65.219 17.04 65.2523 17.1 65.2656 17.18C65.279 17.2467 65.2723 17.32 65.2456 17.4C65.2323 17.4667 65.219 17.5267 65.2056 17.58L63.1056 20.48L65.5456 24.34C65.6256 24.46 65.6456 24.6 65.6056 24.76C65.5656 24.92 65.4323 25 65.2056 25H65.0656ZM74.717 25C74.5437 25 74.4304 24.94 74.377 24.82C74.1504 24.94 73.8704 25 73.537 25H72.837C72.3437 25 71.9437 24.8467 71.637 24.54C71.3437 24.22 71.197 23.8 71.197 23.28V19.52C71.197 19.4133 71.2304 19.32 71.297 19.24C71.377 19.16 71.477 19.12 71.597 19.12H71.757C71.877 19.12 71.9704 19.1667 72.037 19.26C72.1037 19.3533 72.137 19.44 72.137 19.52V23.26C72.137 23.8067 72.3704 24.08 72.837 24.08H73.537C74.057 24.08 74.317 23.8267 74.317 23.32V19.52C74.317 19.4133 74.3504 19.32 74.417 19.24C74.4837 19.16 74.5837 19.12 74.717 19.12H74.837C74.9704 19.12 75.0637 19.1667 75.117 19.26C75.1837 19.3533 75.217 19.44 75.217 19.52V24.58C75.217 24.6733 75.1837 24.7667 75.117 24.86C75.0637 24.9533 74.9704 25 74.837 25H74.717ZM84.3952 25C84.2752 25 84.1818 24.96 84.1152 24.88C84.0485 24.8 84.0152 24.7 84.0152 24.58V20.84C84.0152 20.3067 83.7818 20.04 83.3152 20.04H82.5952C82.0752 20.04 81.8152 20.2933 81.8152 20.8V24.58C81.8152 24.7 81.7818 24.8 81.7152 24.88C81.6485 24.96 81.5552 25 81.4352 25H81.2952C81.1618 25 81.0618 24.9533 80.9952 24.86C80.9418 24.7667 80.9152 24.6733 80.9152 24.58V19.52C80.9152 19.44 80.9418 19.3533 80.9952 19.26C81.0618 19.1667 81.1618 19.12 81.2952 19.12H81.4352C81.5952 19.12 81.7085 19.18 81.7752 19.3C81.9752 19.18 82.2485 19.12 82.5952 19.12H83.3152C83.8085 19.12 84.2018 19.28 84.4952 19.6C84.7885 19.9067 84.9352 20.32 84.9352 20.84V24.58C84.9352 24.7 84.9018 24.8 84.8352 24.88C84.7685 24.96 84.6685 25 84.5352 25H84.3952ZM90.9909 25C90.9109 25 90.8243 24.9667 90.7309 24.9C90.6509 24.8333 90.6109 24.7333 90.6109 24.6V24.48C90.6109 24.2133 90.7376 24.08 90.9909 24.08H92.6309C92.8976 24.08 93.0776 24.0333 93.1709 23.94C93.2643 23.8467 93.3109 23.72 93.3109 23.56V23.26C93.3109 23.0467 93.2843 22.9 93.2309 22.82C93.1776 22.7267 93.0709 22.6467 92.9109 22.58L91.6509 22.12C91.2509 21.9733 90.9643 21.7867 90.7909 21.56C90.6309 21.32 90.5509 20.9933 90.5509 20.58C90.5509 20.1 90.6776 19.74 90.9309 19.5C91.1976 19.2467 91.5709 19.12 92.0509 19.12H93.5909C93.7243 19.12 93.8176 19.1667 93.8709 19.26C93.9376 19.3533 93.9709 19.44 93.9709 19.52V19.64C93.9709 19.9067 93.8443 20.04 93.5909 20.04H92.0509C91.8109 20.04 91.6509 20.0867 91.5709 20.18C91.5043 20.26 91.4709 20.3467 91.4709 20.44V20.72C91.4709 20.8533 91.4976 20.9533 91.5509 21.02C91.6043 21.0733 91.7309 21.14 91.9309 21.22L93.1909 21.72C93.5909 21.88 93.8576 22.1067 93.9909 22.4C94.1243 22.68 94.1909 23.0467 94.1909 23.5C94.1909 24.02 94.0576 24.4 93.7909 24.64C93.5243 24.88 93.1376 25 92.6309 25H90.9909ZM101.844 25C101.364 25 100.97 24.8467 100.664 24.54C100.357 24.22 100.204 23.8 100.204 23.28V19.96H99.8236C99.7303 19.96 99.6436 19.9267 99.5636 19.86C99.4836 19.7933 99.4436 19.6933 99.4436 19.56V19.42C99.4436 19.3133 99.4769 19.22 99.5436 19.14C99.6103 19.06 99.7036 19.02 99.8236 19.02H100.204V18.44C100.204 18.3467 100.237 18.2533 100.304 18.16C100.37 18.0533 100.47 18 100.604 18H100.744C100.89 18 100.984 18.06 101.024 18.18C101.077 18.2867 101.104 18.3733 101.104 18.44V19.02H102.084C102.217 19.02 102.31 19.06 102.364 19.14C102.43 19.22 102.464 19.3133 102.464 19.42V19.56C102.464 19.6933 102.424 19.7933 102.344 19.86C102.264 19.9267 102.177 19.96 102.084 19.96H101.104V23.28C101.104 23.8 101.35 24.06 101.844 24.06H102.184C102.304 24.06 102.397 24.1 102.464 24.18C102.53 24.26 102.564 24.3533 102.564 24.46V24.6C102.564 24.7333 102.524 24.8333 102.444 24.9C102.364 24.9667 102.277 25 102.184 25H101.844ZM111.535 25C111.282 25 111.155 24.86 111.155 24.58V20.7C111.155 20.1533 110.922 19.88 110.455 19.88H109.735C109.215 19.88 108.955 20.14 108.955 20.66V24.58C108.955 24.86 108.828 25 108.575 25H108.435C108.302 25 108.202 24.9533 108.135 24.86C108.082 24.7533 108.055 24.66 108.055 24.58V17.32C108.055 17.2267 108.082 17.1333 108.135 17.04C108.202 16.9467 108.302 16.9 108.435 16.9H108.575C108.828 16.9 108.955 17.04 108.955 17.32V19.1C109.195 18.9933 109.455 18.94 109.735 18.94H110.455C110.948 18.94 111.342 19.0933 111.635 19.4C111.928 19.7067 112.075 20.14 112.075 20.7V24.58C112.075 24.86 111.942 25 111.675 25H111.535ZM121.25 25C121.077 25 120.963 24.94 120.91 24.82C120.643 24.94 120.37 25 120.09 25H119.37C118.863 25 118.463 24.8467 118.17 24.54C117.89 24.22 117.75 23.8 117.75 23.28V20.84C117.75 20.32 117.89 19.9067 118.17 19.6C118.463 19.28 118.863 19.12 119.37 19.12H121.37C121.503 19.12 121.603 19.16 121.67 19.24C121.737 19.32 121.77 19.4133 121.77 19.52V24.58C121.77 24.7 121.737 24.8 121.67 24.88C121.603 24.96 121.503 25 121.37 25H121.25ZM120.89 20.66C120.89 20.54 120.883 20.4733 120.87 20.46V20.34C120.883 20.2867 120.87 20.2267 120.83 20.16C120.803 20.0933 120.71 20.0533 120.55 20.04C120.537 20.0267 120.503 20.02 120.45 20.02C120.41 20.02 120.383 20.0267 120.37 20.04C120.317 20.04 120.217 20.0467 120.07 20.06C119.937 20.06 119.703 20.0533 119.37 20.04C118.89 20.04 118.65 20.3067 118.65 20.84V23.26C118.65 23.8067 118.89 24.08 119.37 24.08H120.07C120.603 24.08 120.87 23.8267 120.87 23.32C120.87 22.4667 120.87 21.8467 120.87 21.46C120.883 21.0733 120.89 20.8067 120.89 20.66ZM127.947 25C127.814 25 127.714 24.9533 127.647 24.86C127.594 24.7533 127.567 24.66 127.567 24.58V17.32C127.567 17.2267 127.594 17.1333 127.647 17.04C127.714 16.9467 127.814 16.9 127.947 16.9H128.087C128.354 16.9 128.487 17.04 128.487 17.32V24.58C128.487 24.86 128.354 25 128.087 25H127.947Z" fill="#FFFCF7"/>
</svg>
