<svg width="134" height="40" viewBox="0 0 134 40" fill="none" xmlns="http://www.w3.org/2000/svg">
<rect x="0.5" y="0.5" width="133" height="39" rx="0.5" fill="#C1C1C1" stroke="#FFFCF7"/>
<path d="M13.4 24C12.84 24 12.4067 23.8333 12.1 23.5C11.7933 23.1533 11.64 22.68 11.64 22.08V17.84C11.64 17.2667 11.7933 16.8067 12.1 16.46C12.4067 16.1 12.84 15.92 13.4 15.92H14.62C15.18 15.92 15.6133 16.1 15.92 16.46C16.2267 16.8067 16.38 17.2667 16.38 17.84V18.38C16.38 18.5 16.3467 18.6133 16.28 18.72C16.2133 18.8133 16.1067 18.86 15.96 18.86H15.8C15.6267 18.86 15.5133 18.8067 15.46 18.7C15.4067 18.58 15.38 18.4733 15.38 18.38V17.84C15.38 17.24 15.1267 16.94 14.62 16.94H13.4C12.8933 16.94 12.64 17.24 12.64 17.84V22.06C12.64 22.6733 12.8933 22.98 13.4 22.98H14.62C15.1267 22.98 15.38 22.6733 15.38 22.06V20.58H14.22C14.1 20.58 14 20.54 13.92 20.46C13.8533 20.38 13.82 20.28 13.82 20.16V20.02C13.82 19.9267 13.8467 19.8267 13.9 19.72C13.9667 19.6133 14.0733 19.56 14.22 19.56H15.84C16.0133 19.56 16.1467 19.62 16.24 19.74C16.3333 19.8467 16.38 19.98 16.38 20.14V22.08C16.38 22.68 16.2267 23.1533 15.92 23.5C15.6133 23.8333 15.18 24 14.62 24H13.4ZM23.7933 24C23.2866 24 22.8866 23.8467 22.5933 23.54C22.3133 23.22 22.1733 22.8 22.1733 22.28V19.84C22.1733 19.32 22.3133 18.9067 22.5933 18.6C22.8866 18.28 23.2866 18.12 23.7933 18.12H24.6333C25.1266 18.12 25.5199 18.28 25.8133 18.6C26.1066 18.9067 26.2533 19.32 26.2533 19.84V22.28C26.2533 22.8 26.1066 23.22 25.8133 23.54C25.5199 23.8467 25.1266 24 24.6333 24H23.7933ZM25.3333 19.84C25.3333 19.3067 25.0999 19.04 24.6333 19.04H23.7933C23.3133 19.04 23.0733 19.3067 23.0733 19.84V22.26C23.0733 22.8067 23.3133 23.08 23.7933 23.08H24.6333C25.0999 23.08 25.3333 22.8067 25.3333 22.26V19.84ZM42.3037 24C41.8237 24 41.4304 23.8467 41.1237 23.54C40.8171 23.22 40.6637 22.8 40.6637 22.28V18.96H40.2837C40.1904 18.96 40.1037 18.9267 40.0237 18.86C39.9437 18.7933 39.9037 18.6933 39.9037 18.56V18.42C39.9037 18.3133 39.9371 18.22 40.0037 18.14C40.0704 18.06 40.1637 18.02 40.2837 18.02H40.6637V17.44C40.6637 17.3467 40.6971 17.2533 40.7637 17.16C40.8304 17.0533 40.9304 17 41.0637 17H41.2037C41.3504 17 41.4437 17.06 41.4837 17.18C41.5371 17.2867 41.5637 17.3733 41.5637 17.44V18.02H42.5437C42.6771 18.02 42.7704 18.06 42.8237 18.14C42.8904 18.22 42.9237 18.3133 42.9237 18.42V18.56C42.9237 18.6933 42.8837 18.7933 42.8037 18.86C42.7237 18.9267 42.6371 18.96 42.5437 18.96H41.5637V22.28C41.5637 22.8 41.8104 23.06 42.3037 23.06H42.6437C42.7637 23.06 42.8571 23.1 42.9237 23.18C42.9904 23.26 43.0237 23.3533 43.0237 23.46V23.6C43.0237 23.7333 42.9837 23.8333 42.9037 23.9C42.8237 23.9667 42.7371 24 42.6437 24H42.3037ZM50.0152 24C49.5085 24 49.1085 23.8467 48.8152 23.54C48.5352 23.22 48.3952 22.8 48.3952 22.28V19.84C48.3952 19.32 48.5352 18.9067 48.8152 18.6C49.1085 18.28 49.5085 18.12 50.0152 18.12H50.8552C51.3485 18.12 51.7418 18.28 52.0352 18.6C52.3285 18.9067 52.4752 19.32 52.4752 19.84V22.28C52.4752 22.8 52.3285 23.22 52.0352 23.54C51.7418 23.8467 51.3485 24 50.8552 24H50.0152ZM51.5552 19.84C51.5552 19.3067 51.3218 19.04 50.8552 19.04H50.0152C49.5352 19.04 49.2952 19.3067 49.2952 19.84V22.26C49.2952 22.8067 49.5352 23.08 50.0152 23.08H50.8552C51.3218 23.08 51.5552 22.8067 51.5552 22.26V19.84ZM68.2656 24C67.7056 24 67.2723 23.8333 66.9656 23.5C66.659 23.1533 66.5056 22.68 66.5056 22.08V17.84C66.5056 17.2667 66.659 16.8067 66.9656 16.46C67.2723 16.1 67.7056 15.92 68.2656 15.92H69.4856C70.0456 15.92 70.479 16.1 70.7856 16.46C71.0923 16.8067 71.2456 17.2667 71.2456 17.84V18.38C71.2456 18.5 71.2123 18.6133 71.1456 18.72C71.079 18.8133 70.9723 18.86 70.8256 18.86H70.6656C70.4923 18.86 70.379 18.8067 70.3256 18.7C70.2723 18.58 70.2456 18.4733 70.2456 18.38V17.84C70.2456 17.24 69.9923 16.94 69.4856 16.94H68.2656C67.759 16.94 67.5056 17.24 67.5056 17.84V22.06C67.5056 22.6733 67.759 22.98 68.2656 22.98H69.4856C69.9923 22.98 70.2456 22.6733 70.2456 22.06V20.58H69.0856C68.9656 20.58 68.8656 20.54 68.7856 20.46C68.719 20.38 68.6856 20.28 68.6856 20.16V20.02C68.6856 19.9267 68.7123 19.8267 68.7656 19.72C68.8323 19.6133 68.939 19.56 69.0856 19.56H70.7056C70.879 19.56 71.0123 19.62 71.1056 19.74C71.199 19.8467 71.2456 19.98 71.2456 20.14V22.08C71.2456 22.68 71.0923 23.1533 70.7856 23.5C70.479 23.8333 70.0456 24 69.4856 24H68.2656ZM80.5389 24C80.3656 24 80.2522 23.94 80.1989 23.82C79.9322 23.94 79.6589 24 79.3789 24H78.6589C78.1522 24 77.7522 23.8467 77.4589 23.54C77.1789 23.22 77.0389 22.8 77.0389 22.28V19.84C77.0389 19.32 77.1789 18.9067 77.4589 18.6C77.7522 18.28 78.1522 18.12 78.6589 18.12H80.6589C80.7922 18.12 80.8922 18.16 80.9589 18.24C81.0256 18.32 81.0589 18.4133 81.0589 18.52V23.58C81.0589 23.7 81.0256 23.8 80.9589 23.88C80.8922 23.96 80.7922 24 80.6589 24H80.5389ZM80.1789 19.66C80.1789 19.54 80.1722 19.4733 80.1589 19.46V19.34C80.1722 19.2867 80.1589 19.2267 80.1189 19.16C80.0922 19.0933 79.9989 19.0533 79.8389 19.04C79.8256 19.0267 79.7922 19.02 79.7389 19.02C79.6989 19.02 79.6722 19.0267 79.6589 19.04C79.6056 19.04 79.5056 19.0467 79.3589 19.06C79.2256 19.06 78.9922 19.0533 78.6589 19.04C78.1789 19.04 77.9389 19.3067 77.9389 19.84V22.26C77.9389 22.8067 78.1789 23.08 78.6589 23.08H79.3589C79.8922 23.08 80.1589 22.8267 80.1589 22.32C80.1589 21.4667 80.1589 20.8467 80.1589 20.46C80.1722 20.0733 80.1789 19.8067 80.1789 19.66ZM87.2366 24C87.1032 24 87.0032 23.9533 86.9366 23.86C86.8832 23.7533 86.8566 23.66 86.8566 23.58V16.32C86.8566 16.2267 86.8832 16.1333 86.9366 16.04C87.0032 15.9467 87.1032 15.9 87.2366 15.9H87.3766C87.6432 15.9 87.7766 16.04 87.7766 16.32V23.58C87.7766 23.86 87.6432 24 87.3766 24H87.2366ZM94.1022 24C93.9689 24 93.8689 23.9533 93.8022 23.86C93.7489 23.7533 93.7222 23.66 93.7222 23.58V16.32C93.7222 16.2267 93.7489 16.1333 93.8022 16.04C93.8689 15.9467 93.9689 15.9 94.1022 15.9H94.2422C94.5089 15.9 94.6422 16.04 94.6422 16.32V23.58C94.6422 23.86 94.5089 24 94.2422 24H94.1022ZM101.368 21.56V22.26C101.368 22.8067 101.608 23.08 102.088 23.08H104.108C104.374 23.08 104.508 23.2133 104.508 23.48V23.6C104.508 23.7333 104.461 23.8333 104.368 23.9C104.288 23.9667 104.201 24 104.108 24H102.088C101.581 24 101.181 23.8467 100.888 23.54C100.608 23.22 100.468 22.8 100.468 22.28V19.84C100.468 19.32 100.608 18.9067 100.888 18.6C101.181 18.28 101.581 18.12 102.088 18.12H102.948C103.468 18.12 103.868 18.28 104.148 18.6C104.428 18.9067 104.568 19.32 104.568 19.84V21.14C104.568 21.2333 104.534 21.3267 104.468 21.42C104.414 21.5133 104.321 21.56 104.188 21.56H101.368ZM102.088 19.04C101.608 19.04 101.368 19.3067 101.368 19.84V20.64H103.668V19.84C103.668 19.3067 103.428 19.04 102.948 19.04H102.088ZM111.625 19.04C111.425 19.04 111.258 19.12 111.125 19.28C111.005 19.4267 110.945 19.6467 110.945 19.94V23.58C110.945 23.6867 110.912 23.7867 110.845 23.88C110.792 23.96 110.705 24 110.585 24H110.465C110.332 24 110.238 23.9533 110.185 23.86C110.145 23.7533 110.125 23.66 110.125 23.58V18.52C110.125 18.44 110.145 18.3533 110.185 18.26C110.238 18.1667 110.332 18.12 110.465 18.12H110.585C110.745 18.12 110.852 18.1867 110.905 18.32C110.998 18.2667 111.105 18.22 111.225 18.18C111.345 18.14 111.485 18.12 111.645 18.12H111.985C112.092 18.12 112.178 18.1667 112.245 18.26C112.312 18.34 112.345 18.4267 112.345 18.52V18.64C112.345 18.7733 112.305 18.8733 112.225 18.94C112.158 19.0067 112.078 19.04 111.985 19.04H111.625ZM120.453 23.56C120.346 23.8667 120.246 24.1267 120.153 24.34C120.073 24.5533 119.999 24.7133 119.933 24.82C119.586 25.4067 119.099 25.7 118.473 25.7H118.213C118.119 25.7 118.019 25.6667 117.913 25.6C117.819 25.5467 117.773 25.44 117.773 25.28V25.16C117.773 25.0267 117.813 24.9267 117.893 24.86C117.986 24.7933 118.093 24.76 118.213 24.76H118.473C118.753 24.76 118.959 24.6533 119.093 24.44C119.226 24.2267 119.339 23.9867 119.433 23.72C119.166 23 118.873 22.1867 118.553 21.28C118.233 20.3733 117.926 19.4933 117.633 18.64C117.606 18.56 117.613 18.4533 117.653 18.32C117.693 18.1867 117.799 18.12 117.973 18.12H118.133C118.266 18.12 118.359 18.16 118.413 18.24C118.466 18.32 118.506 18.38 118.533 18.42L119.873 22.36L120.713 19.9L121.213 18.42C121.253 18.34 121.306 18.2733 121.373 18.22C121.439 18.1533 121.526 18.12 121.633 18.12H121.773C121.959 18.12 122.066 18.1867 122.093 18.32C122.133 18.4533 122.146 18.56 122.133 18.64L120.453 23.56Z" fill="#FFFCF7"/>
</svg>
