<svg width="134" height="40" viewBox="0 0 134 40" fill="none" xmlns="http://www.w3.org/2000/svg">
<rect x="2" y="3" width="130" height="33" fill="#C1C1C1"/>
<path d="M133 0C133.552 0 134 0.447715 134 1V39C134 39.5523 133.552 40 133 40H1C0.447715 40 8.05324e-09 39.5523 0 39V1C0 0.447715 0.447715 0 1 0H133ZM7.40039 16.9199C6.84039 16.9199 6.40628 17.1 6.09961 17.46C5.79307 17.8066 5.63968 18.2667 5.63965 18.8398V23.0801C5.63966 23.6799 5.79307 24.1534 6.09961 24.5C6.40628 24.8333 6.84039 25 7.40039 25H8.62012C9.18004 25 9.61328 24.8333 9.91992 24.5C10.2266 24.1533 10.3799 23.68 10.3799 23.0801V21.1396C10.3798 20.9799 10.3334 20.8468 10.2402 20.7402C10.1469 20.6202 10.0132 20.5596 9.83984 20.5596H8.21973C8.07337 20.5596 7.96703 20.6134 7.90039 20.7197C7.84715 20.8262 7.8204 20.9263 7.82031 21.0195V21.1602C7.82034 21.2801 7.85332 21.38 7.91992 21.46C7.99986 21.5399 8.09985 21.58 8.21973 21.5801H9.37988V23.0596C9.37988 23.6729 9.12671 23.9804 8.62012 23.9805H7.40039C6.89372 23.9805 6.63965 23.6729 6.63965 23.0596V18.8398C6.63969 18.2399 6.89377 17.9404 7.40039 17.9404H8.62012C9.12666 17.9405 9.37984 18.24 9.37988 18.8398V19.3799C9.37988 19.4732 9.40663 19.5802 9.45996 19.7002C9.5133 19.8067 9.62666 19.8603 9.7998 19.8604H9.95996C10.1066 19.8604 10.2136 19.8131 10.2803 19.7197C10.3468 19.6132 10.3799 19.4998 10.3799 19.3799V18.8398C10.3799 18.2666 10.2266 17.8066 9.91992 17.46C9.61328 17.1 9.18003 16.9199 8.62012 16.9199H7.40039ZM17.793 19.1201C17.2867 19.1202 16.887 19.28 16.5938 19.5996C16.3138 19.9062 16.1729 20.3199 16.1729 20.8398V23.2803C16.1729 23.8001 16.3138 24.2201 16.5938 24.54C16.887 24.8465 17.2866 24.9999 17.793 25H18.6328C19.1261 25 19.5201 24.8467 19.8135 24.54C20.1067 24.2201 20.2529 23.8001 20.2529 23.2803V20.8398C20.2529 20.3199 20.1068 19.9062 19.8135 19.5996C19.5202 19.2797 19.1261 19.1201 18.6328 19.1201H17.793ZM35.0635 18C34.9303 18.0001 34.8303 18.0536 34.7637 18.1602C34.6971 18.2534 34.6641 18.3471 34.6641 18.4404V19.0195H34.2842C34.1643 19.0195 34.0706 19.0598 34.0039 19.1396C33.9373 19.2196 33.9033 19.3133 33.9033 19.4199V19.5596C33.9033 19.6929 33.9434 19.7937 34.0234 19.8604C34.1034 19.927 34.1908 19.96 34.2842 19.96H34.6641V23.2803C34.6641 23.8001 34.8174 24.2201 35.124 24.54C35.4307 24.8466 35.8238 25 36.3037 25H36.6436C36.7367 25 36.8234 24.9668 36.9033 24.9004C36.9833 24.8337 37.0234 24.7329 37.0234 24.5996V24.46C37.0234 24.3533 36.9905 24.2597 36.9238 24.1797C36.8572 24.0998 36.7635 24.0596 36.6436 24.0596H36.3037C35.8105 24.0596 35.5636 23.8001 35.5635 23.2803V19.96H36.5439C36.6371 19.9599 36.7238 19.9269 36.8037 19.8604C36.8837 19.7937 36.9238 19.6929 36.9238 19.5596V19.4199C36.9238 19.3133 36.8909 19.2196 36.8242 19.1396C36.7709 19.0597 36.6772 19.0196 36.5439 19.0195H35.5635V18.4404C35.5635 18.3738 35.5367 18.2864 35.4834 18.1797C35.4434 18.06 35.3504 18.0001 35.2041 18H35.0635ZM44.0156 19.1201C43.5091 19.1201 43.1087 19.2798 42.8154 19.5996C42.5355 19.9062 42.3955 20.3199 42.3955 20.8398V23.2803C42.3956 23.8001 42.5355 24.2201 42.8154 24.54C43.1087 24.8466 43.509 25 44.0156 25H44.8555C45.3486 24.9999 45.7419 24.8466 46.0352 24.54C46.3284 24.2201 46.4755 23.8001 46.4756 23.2803V20.8398C46.4756 20.3199 46.3285 19.9062 46.0352 19.5996C45.7419 19.2798 45.3485 19.1202 44.8555 19.1201H44.0156ZM61.0059 16.9199C60.846 16.9199 60.7255 16.9664 60.6455 17.0596C60.5789 17.1529 60.5459 17.2599 60.5459 17.3799V24.5596C60.5459 24.6796 60.586 24.7865 60.666 24.8799C60.7593 24.9598 60.8726 25 61.0059 25H61.1455C61.2921 25 61.3991 24.9536 61.4658 24.8604C61.5458 24.7537 61.5859 24.6529 61.5859 24.5596V22.46L62.4453 21.3398L64.6055 24.7197C64.6854 24.9063 64.8389 24.9999 65.0654 25H65.2061C65.4325 24.9999 65.5655 24.9197 65.6055 24.7598C65.6454 24.5999 65.6259 24.4598 65.5459 24.3398L63.1055 20.4805L65.2061 17.5801C65.2194 17.5268 65.2328 17.4669 65.2461 17.4004C65.2728 17.3204 65.279 17.2464 65.2656 17.1797C65.2523 17.1 65.2191 17.0399 65.166 17C65.1127 16.9467 65.019 16.9199 64.8857 16.9199H64.666C64.5727 16.9199 64.4853 16.9467 64.4053 17C64.3388 17.0532 64.2788 17.1132 64.2256 17.1797L61.5859 20.7998V17.3799C61.5859 17.2866 61.552 17.1867 61.4854 17.0801C61.432 16.9734 61.3188 16.9199 61.1455 16.9199H61.0059ZM71.5967 19.1201C71.4768 19.1202 71.3768 19.1603 71.2969 19.2402C71.2304 19.3201 71.1974 19.4132 71.1973 19.5195V23.2803C71.1973 23.8001 71.3435 24.2201 71.6367 24.54C71.9434 24.8467 72.3436 25 72.8369 25H73.5371C73.8703 25 74.1503 24.9402 74.377 24.8203C74.4303 24.9401 74.5437 24.9999 74.7168 25H74.8369C74.9702 25 75.0638 24.9536 75.1172 24.8604C75.1838 24.767 75.2168 24.6734 75.2168 24.5801V19.5195C75.2167 19.4397 75.1837 19.3529 75.1172 19.2598C75.0638 19.1665 74.9702 19.1201 74.8369 19.1201H74.7168C74.5836 19.1202 74.4836 19.1603 74.417 19.2402C74.3505 19.3201 74.3175 19.4131 74.3174 19.5195V23.3203C74.3173 23.8267 74.0569 24.0801 73.5371 24.0801H72.8369C72.3703 24.08 72.1367 23.8064 72.1367 23.2598V19.5195C72.1366 19.4397 72.1036 19.3529 72.0371 19.2598C71.9705 19.1665 71.8768 19.1201 71.7568 19.1201H71.5967ZM81.2949 19.1201C81.1618 19.1202 81.0617 19.1666 80.9951 19.2598C80.9419 19.3529 80.9151 19.4397 80.915 19.5195V24.5801C80.9151 24.6734 80.9418 24.767 80.9951 24.8604C81.0617 24.9535 81.1618 24.9999 81.2949 25H81.4355C81.5553 24.9999 81.6483 24.9597 81.7148 24.8799C81.7815 24.7999 81.8154 24.7 81.8154 24.5801V20.7998C81.8155 20.2934 82.0751 20.0402 82.5947 20.04H83.3154C83.7819 20.0401 84.0156 20.3067 84.0156 20.8398V24.5801C84.0156 24.7 84.0486 24.7999 84.1152 24.8799C84.1819 24.9599 84.2755 25 84.3955 25H84.5352C84.6685 25 84.7683 24.9599 84.835 24.8799C84.9016 24.7999 84.9355 24.7 84.9355 24.5801V20.8398C84.9355 20.3199 84.7884 19.9062 84.4951 19.5996C84.2019 19.2798 83.8085 19.1202 83.3154 19.1201H82.5947C82.2484 19.1202 81.9753 19.18 81.7754 19.2998C81.7088 19.1799 81.5953 19.1202 81.4355 19.1201H81.2949ZM92.0508 19.1201C91.5709 19.1201 91.1973 19.2467 90.9307 19.5C90.6774 19.74 90.5508 20.1002 90.5508 20.5801C90.5508 20.9932 90.6311 21.3196 90.791 21.5596C90.9643 21.7862 91.2514 21.9734 91.6514 22.1201L92.9111 22.5801C93.071 22.6467 93.1772 22.727 93.2305 22.8203C93.2838 22.9003 93.3105 23.0466 93.3105 23.2598V23.5596C93.3105 23.7196 93.2642 23.8471 93.1709 23.9404C93.0775 24.0336 92.8973 24.0801 92.6309 24.0801H90.9912C90.7379 24.0801 90.6113 24.2138 90.6113 24.4805V24.5996C90.6113 24.7329 90.6505 24.8337 90.7305 24.9004C90.8238 24.9671 90.9112 25 90.9912 25H92.6309C93.1375 25 93.5243 24.8796 93.791 24.6396C94.0575 24.3996 94.1914 24.0199 94.1914 23.5C94.1914 23.0469 94.1244 22.6803 93.9912 22.4004C93.8579 22.1071 93.5912 21.8797 93.1914 21.7197L91.9307 21.2197C91.7309 21.1398 91.6041 21.0728 91.5508 21.0195C91.4976 20.9529 91.4707 20.8528 91.4707 20.7197V20.4404C91.4707 20.3471 91.5046 20.2597 91.5713 20.1797C91.6514 20.0866 91.8112 20.0401 92.0508 20.04H93.5908C93.8442 20.04 93.9707 19.9063 93.9707 19.6396V19.5195C93.9706 19.4397 93.9376 19.3529 93.8711 19.2598C93.8177 19.1665 93.7241 19.1201 93.5908 19.1201H92.0508ZM100.604 18C100.47 18 100.37 18.0535 100.304 18.1602C100.237 18.2535 100.203 18.3471 100.203 18.4404V19.0195H99.8232C99.7036 19.0196 99.6105 19.06 99.5439 19.1396C99.4773 19.2196 99.4434 19.3133 99.4434 19.4199V19.5596C99.4434 19.6929 99.4835 19.7937 99.5635 19.8604C99.6433 19.9269 99.7301 19.9599 99.8232 19.96H100.203V23.2803C100.203 23.8001 100.357 24.2201 100.664 24.54C100.971 24.8465 101.364 25 101.844 25H102.184C102.277 25 102.363 24.9669 102.443 24.9004C102.523 24.8337 102.563 24.7329 102.563 24.5996V24.46C102.563 24.3533 102.531 24.2597 102.464 24.1797C102.397 24.0997 102.304 24.0596 102.184 24.0596H101.844C101.351 24.0596 101.104 23.8001 101.104 23.2803V19.96H102.084C102.177 19.9599 102.264 19.9269 102.344 19.8604C102.424 19.7937 102.464 19.6929 102.464 19.5596V19.4199C102.464 19.3133 102.43 19.2196 102.363 19.1396C102.31 19.06 102.217 19.0196 102.084 19.0195H101.104V18.4404C101.104 18.3738 101.077 18.2864 101.023 18.1797C100.983 18.0599 100.89 18 100.743 18H100.604ZM108.435 16.9004C108.301 16.9005 108.201 16.9468 108.135 17.04C108.081 17.1333 108.055 17.227 108.055 17.3203V24.5801C108.055 24.6601 108.081 24.7537 108.135 24.8604C108.201 24.9535 108.302 24.9999 108.435 25H108.575C108.828 24.9999 108.955 24.86 108.955 24.5801V20.6602C108.955 20.1402 109.215 19.8799 109.735 19.8799H110.455C110.922 19.8799 111.155 20.1536 111.155 20.7002V24.5801C111.155 24.86 111.282 25 111.535 25H111.675C111.941 25 112.075 24.86 112.075 24.5801V20.7002C112.075 20.1402 111.928 19.7071 111.635 19.4004C111.341 19.0937 110.948 18.9404 110.455 18.9404H109.735C109.455 18.9404 109.195 18.993 108.955 19.0996V17.3203C108.955 17.0404 108.828 16.9005 108.575 16.9004H108.435ZM119.37 19.1201C118.864 19.1201 118.463 19.2798 118.17 19.5996C117.89 19.9062 117.75 20.3199 117.75 20.8398V23.2803C117.75 23.8001 117.89 24.2201 118.17 24.54C118.463 24.8467 118.863 25 119.37 25H120.09C120.37 25 120.643 24.9403 120.91 24.8203C120.964 24.9401 121.077 25 121.25 25H121.37C121.503 24.9999 121.603 24.9598 121.67 24.8799C121.737 24.7999 121.77 24.7 121.77 24.5801V19.5195C121.769 19.4131 121.736 19.3201 121.67 19.2402C121.603 19.1603 121.503 19.1202 121.37 19.1201H119.37ZM127.947 16.9004C127.814 16.9004 127.714 16.9468 127.647 17.04C127.594 17.1334 127.567 17.227 127.567 17.3203V24.5801C127.567 24.6601 127.594 24.7537 127.647 24.8604C127.714 24.9535 127.814 24.9999 127.947 25H128.088C128.354 24.9999 128.487 24.8599 128.487 24.5801V17.3203C128.487 17.0405 128.354 16.9005 128.088 16.9004H127.947ZM18.6328 20.04C19.0994 20.04 19.333 20.3066 19.333 20.8398V23.2598C19.333 23.8064 19.0995 24.0801 18.6328 24.0801H17.793C17.3132 24.08 17.0732 23.8063 17.0732 23.2598V20.8398C17.0733 20.3067 17.3132 20.0402 17.793 20.04H18.6328ZM44.8555 20.04C45.3219 20.0402 45.5546 20.3067 45.5547 20.8398V23.2598C45.5547 23.8063 45.3219 24.08 44.8555 24.0801H44.0156C43.5356 24.0801 43.2949 23.8064 43.2949 23.2598V20.8398C43.295 20.3066 43.5357 20.04 44.0156 20.04H44.8555ZM120.45 20.0195C120.503 20.0196 120.536 20.0267 120.55 20.04C120.71 20.0534 120.803 20.0935 120.83 20.1602C120.87 20.2266 120.883 20.2866 120.87 20.3398V20.46C120.883 20.4736 120.89 20.5405 120.89 20.6602C120.89 20.8069 120.883 21.0735 120.87 21.46V23.3203C120.87 23.8266 120.603 24.0799 120.07 24.0801H119.37C118.89 24.0801 118.649 23.8064 118.649 23.2598V20.8398C118.649 20.3066 118.89 20.04 119.37 20.04C119.703 20.0534 119.937 20.0596 120.07 20.0596C120.217 20.0463 120.317 20.04 120.37 20.04C120.383 20.0268 120.41 20.0195 120.45 20.0195Z" fill="#FFFCF7"/>
</svg>
